SplineFontDB: 3.0
FontName: FanwoodText-Regular
FullName: Fanwood Text
FamilyName: Fanwood Text
Weight: Regular
Copyright: Copyright (c) 2011, Barry Schwartz  (chemoelectric@chemoelectric.org)
Version: 1.1001
ItalicAngle: 0
UnderlinePosition: -410
UnderlineWidth: 204
Ascent: 2827
Descent: 1269
LayerCount: 2
Layer: 0 1 "Back"  1
Layer: 1 1 "Fore"  0
NeedsXUIDChange: 1
XUID: [1021 288 713564382 1360979]
FSType: 0
OS2Version: 4
OS2_WeightWidthSlopeOnly: 0
OS2_UseTypoMetrics: 1
CreationTime: 1287776574
ModificationTime: 1314382694
PfmFamily: 17
TTFWeight: 400
TTFWidth: 5
LineGap: 0
VLineGap: 0
Panose: 2 0 5 3 0 0 0 0 0 0
OS2TypoAscent: 3761
OS2TypoAOffset: 0
OS2TypoDescent: -1609
OS2TypoDOffset: 0
OS2TypoLinegap: 0
OS2WinAscent: 3761
OS2WinAOffset: 0
OS2WinDescent: 1609
OS2WinDOffset: 0
HheadAscent: 3761
HheadAOffset: 0
HheadDescent: -1609
HheadDOffset: 0
OS2SubXSize: 2662
OS2SubYSize: 2867
OS2SubXOff: 0
OS2SubYOff: 573
OS2SupXSize: 2662
OS2SupYSize: 2867
OS2SupXOff: 0
OS2SupYOff: 1966
OS2StrikeYSize: 204
OS2StrikeYPos: 1060
OS2Vendor: 'PfEd'
OS2CodePages: 00000093.00000000
OS2UnicodeRanges: a000006f.0000004a.00000000.00000000
Lookup: 3 0 0 "'aalt' Access All Alternates lookup 0"  {"'aalt' Access All Alternates lookup 0 subtable"  } ['aalt' ('DFLT' <'dflt' > ) ]
Lookup: 3 0 0 "'aalt' Access All Alternates in Latin lookup 1"  {"'aalt' Access All Alternates in Latin lookup 1 subtable"  } ['aalt' ('latn' <'AZE ' 'CAT ' 'CRT ' 'MOL ' 'ROM ' 'TRK ' 'dflt' > ) ]
Lookup: 1 0 0 "'locl' Localized Forms in Latin lookup 2"  {"'locl' Localized Forms in Latin lookup 2 subtable"  } ['locl' ('latn' <'CAT ' > ) ]
Lookup: 1 0 0 "'locl' Localized Forms in Latin lookup 3"  {"'locl' Localized Forms in Latin lookup 3 subtable"  } ['locl' ('latn' <'MOL ' 'ROM ' > ) ]
Lookup: 1 0 0 "'locl' Localized Forms in Latin lookup 4"  {"'locl' Localized Forms in Latin lookup 4 subtable"  } ['locl' ('latn' <'AZE ' 'CRT ' 'TRK ' > ) ]

StartChar: .notdef
Encoding: 65536 -1 0
Width: 1497
Flags: HW
LayerCount: 2
Fore
SplineSet
136 0 m 1,0,-1
 136 2730 l 1,1,-1
 1225 2730 l 1,2,-1
 1225 0 l 1,3,-1
 136 0 l 1,0,-1
272 136 m 1,4,-1
 1089 136 l 1,5,-1
 1089 2594 l 1,6,-1
 272 2594 l 1,7,-1
 272 136 l 1,4,-1
EndSplineSet
EndChar

StartChar: exclam
Encoding: 33 33 4
Width: 1069
GlyphClass: 2
Flags: HW
LayerCount: 2
Fore
SplineSet
399 26.5 m 128,-1,1
 315 98 315 98 315 149 c 128,-1,2
 315 200 315 200 347 260.5 c 128,-1,3
 379 321 379 321 425 365.5 c 128,-1,4
 471 410 471 410 510 410 c 128,-1,5
 549 410 549 410 605.5 383.5 c 128,-1,6
 662 357 662 357 708 307.5 c 128,-1,7
 754 258 754 258 754 186.5 c 128,-1,8
 754 115 754 115 684.5 35 c 128,-1,9
 615 -45 615 -45 549 -45 c 128,-1,0
 483 -45 483 -45 399 26.5 c 128,-1,1
463 745 m 1,10,-1
 385 2654 l 1,11,12
 385 2719 385 2719 431 2744 c 128,-1,13
 477 2769 477 2769 559 2769 c 128,-1,14
 641 2769 641 2769 673 2749.5 c 128,-1,15
 705 2730 705 2730 705 2693.5 c 128,-1,16
 705 2657 705 2657 689 2411.5 c 0,17,18
 635.386658431 1588.8702903 635.386658431 1588.8702903 598 745 c 1,19,20
 598 692 598 692 530.5 692 c 128,-1,21
 463 692 463 692 463 745 c 1,10,-1
EndSplineSet
Position2: "'cpsp' Capital Spacing in Latin lookup 0 subtable" dx=16 dy=0 dh=33 dv=0
EndChar

StartChar: numbersign
Encoding: 35 35 6
Width: 1810
GlyphClass: 2
Flags: HW
LayerCount: 2
Fore
SplineSet
111 1401 m 2,0,1
 111 1458 111 1458 152 1458 c 2,2,-1
 541 1458 l 2,3,4
 576 1458 576 1458 581.5 1463.5 c 128,-1,5
 587 1469 587 1469 613.5 1656.5 c 128,-1,6
 640 1844 640 1844 658 1985 c 0,7,8
 680.785714286 2163.48809524 680.785714286 2163.48809524 699.392857143 2177.24404762 c 128,-1,9
 718 2191 718 2191 761 2191 c 128,-1,10
 804 2191 804 2191 815.5 2190 c 128,-1,11
 827 2189 827 2189 842.5 2184 c 0,12,13
 872 2174.48387097 872 2174.48387097 872 2148.74193548 c 128,-1,14
 872 2123 872 2123 852.5 1997.5 c 128,-1,15
 833 1872 833 1872 806.5 1706 c 128,-1,16
 780 1540 780 1540 775 1505.5 c 128,-1,17
 770 1471 770 1471 773 1464.5 c 128,-1,18
 776 1458 776 1458 799 1458 c 0,19,20
 972 1458 972 1458 1068 1458 c 128,-1,21
 1164 1458 1164 1458 1167.5 1460.5 c 128,-1,22
 1171 1463 1171 1463 1172.5 1476.5 c 128,-1,23
 1174 1490 1174 1490 1223.5 1811 c 128,-1,24
 1273 2132 1273 2132 1278 2148 c 128,-1,25
 1283 2164 1283 2164 1285.5 2168.5 c 0,26,27
 1298 2191 1298 2191 1338 2191 c 128,-1,28
 1378 2191 1378 2191 1392 2190 c 128,-1,29
 1406 2189 1406 2189 1424.5 2184.5 c 0,30,31
 1458 2176.35135135 1458 2176.35135135 1458 2149.17567568 c 128,-1,32
 1458 2122 1458 2122 1438.5 1988.5 c 128,-1,33
 1419 1855 1419 1855 1394.5 1695 c 128,-1,34
 1370 1535 1370 1535 1365 1502 c 128,-1,35
 1360 1469 1360 1469 1363 1463.5 c 128,-1,36
 1366 1458 1366 1458 1384 1458 c 2,37,-1
 1626 1458 l 2,38,39
 1670 1458 1670 1458 1685 1443 c 128,-1,40
 1700 1428 1700 1428 1700 1388.5 c 128,-1,41
 1700 1349 1700 1349 1689.5 1333 c 0,42,43
 1675.0625 1311 1675.0625 1311 1634 1311 c 2,44,-1
 1368 1311 l 2,45,46
 1338 1311 1338 1311 1332 1305.5 c 128,-1,47
 1326 1300 1326 1300 1323 1274 c 2,48,-1
 1253 811 l 1,49,50
 1248 786 1248 786 1252 780 c 128,-1,51
 1256 774 1256 774 1282 774 c 2,52,-1
 1642 774 l 2,53,54
 1678 774 1678 774 1689 757 c 128,-1,55
 1700 740 1700 740 1700 695 c 128,-1,56
 1700 650 1700 650 1685.5 636.5 c 128,-1,57
 1671 623 1671 623 1630 623 c 2,58,-1
 1257 623 l 2,59,60
 1236 623 1236 623 1232 618.5 c 128,-1,61
 1228 614 1228 614 1225 594 c 2,62,-1
 1143 8 l 1,63,64
 1134.48044693 -36.3016759777 1134.48044693 -36.3016759777 1108.24022346 -44.6508379888 c 128,-1,65
 1082 -53 1082 -53 1035.5 -53 c 128,-1,66
 989 -53 989 -53 971.5 -45 c 128,-1,67
 954 -37 954 -37 954 -5 c 128,-1,68
 954 27 954 27 999.5 319.5 c 128,-1,69
 1045 612 1045 612 1042 617.5 c 128,-1,70
 1039 623 1039 623 1016 623 c 2,71,-1
 672 623 l 2,72,73
 648 623 648 623 643 618 c 0,74,75
 637.376344086 612.376344086 637.376344086 612.376344086 595.688172043 304.188172043 c 128,-1,76
 554 -4 554 -4 546.5 -17 c 128,-1,77
 539 -30 539 -30 533 -36.5 c 0,78,79
 517.769230769 -53 517.769230769 -53 457.384615385 -53 c 128,-1,80
 397 -53 397 -53 378.5 -39 c 128,-1,81
 360 -25 360 -25 360 0 c 128,-1,82
 360 25 360 25 377.5 141.5 c 128,-1,83
 395 258 395 258 417.5 400.5 c 128,-1,84
 440 543 440 543 444.5 578.5 c 128,-1,85
 449 614 449 614 443.5 618.5 c 128,-1,86
 438 623 438 623 410 623 c 2,87,-1
 172 623 l 2,88,89
 133 623 133 623 122 640.5 c 128,-1,90
 111 658 111 658 111 692 c 2,91,-1
 111 709 l 2,92,93
 111 774 111 774 168 774 c 2,94,-1
 451 774 l 2,95,96
 473 774 473 774 476.5 777.5 c 128,-1,97
 480 781 480 781 481.5 782 c 128,-1,98
 483 783 483 783 483.5 787.5 c 128,-1,99
 484 792 484 792 484.5 794.5 c 128,-1,100
 485 797 485 797 485.5 804 c 128,-1,101
 486 811 486 811 513 1021.5 c 128,-1,102
 540 1232 540 1232 544 1264.5 c 128,-1,103
 548 1297 548 1297 544.5 1304 c 128,-1,104
 541 1311 541 1311 520 1311 c 2,105,-1
 152 1311 l 2,106,107
 111 1311 111 1311 111 1376 c 2,108,-1
 111 1401 l 2,0,1
682.5 931 m 128,-1,110
 667 835 667 835 663.5 812.5 c 128,-1,111
 660 790 660 790 663 786 c 128,-1,112
 666 782 666 782 696 782 c 2,113,-1
 1032 782 l 2,114,115
 1058 782 1058 782 1064 786.5 c 128,-1,116
 1070 791 1070 791 1104.5 1019 c 128,-1,117
 1139 1247 1139 1247 1144.5 1275.5 c 128,-1,118
 1150 1304 1150 1304 1145.5 1311.5 c 128,-1,119
 1141 1319 1141 1319 1114 1319 c 2,120,-1
 782 1319 l 2,121,122
 755 1319 755 1319 747.5 1313.5 c 128,-1,123
 740 1308 740 1308 734 1264.5 c 128,-1,124
 728 1221 728 1221 713 1124 c 128,-1,109
 698 1027 698 1027 682.5 931 c 128,-1,110
EndSplineSet
EndChar

StartChar: dollar
Encoding: 36 36 7
Width: 2048
GlyphClass: 2
Flags: HW
LayerCount: 2
Fore
SplineSet
1085 1495 m 1,0,-1
 1090 1436 l 2,1,2
 1090 1432 1090 1432 1095.5 1429 c 128,-1,3
 1101 1426 1101 1426 1102 1424.5 c 128,-1,4
 1103 1423 1103 1423 1112.5 1419 c 128,-1,5
 1122 1415 1122 1415 1157.5 1398.5 c 128,-1,6
 1193 1382 1193 1382 1234.5 1362 c 128,-1,7
 1276 1342 1276 1342 1341.5 1308 c 128,-1,8
 1407 1274 1407 1274 1449.5 1247.5 c 128,-1,9
 1492 1221 1492 1221 1547.5 1181.5 c 128,-1,10
 1603 1142 1603 1142 1638.5 1105.5 c 128,-1,11
 1674 1069 1674 1069 1712.5 1021 c 128,-1,12
 1751 973 1751 973 1772.5 924 c 0,13,14
 1823 808.906976744 1823 808.906976744 1823 692 c 0,15,16
 1823 392 1823 392 1641 203.5 c 128,-1,17
 1459 15 1459 15 1130 -16 c 0,18,19
 1101 -19 1101 -19 1093 -26 c 128,-1,20
 1085 -33 1085 -33 1085 -53 c 2,21,-1
 1085 -573 l 2,22,23
 1085 -606 1085 -606 1076.5 -612 c 128,-1,24
 1068 -618 1068 -618 1025 -618 c 128,-1,25
 982 -618 982 -618 974.5 -611 c 128,-1,26
 967 -604 967 -604 967 -569 c 2,27,-1
 967 -53 l 2,28,29
 967 -31 967 -31 960.5 -25 c 128,-1,30
 954 -19 954 -19 926 -16 c 1,31,32
 745 -4 745 -4 581 57.5 c 128,-1,33
 417 119 417 119 321 205.5 c 128,-1,34
 225 292 225 292 225 377 c 0,35,36
 225 415 225 415 280.5 439 c 128,-1,37
 336 463 336 463 372.5 463 c 128,-1,38
 409 463 409 463 430 444.5 c 128,-1,39
 451 426 451 426 484.5 378 c 128,-1,40
 518 330 518 330 566.5 271 c 128,-1,41
 615 212 615 212 707.5 158.5 c 128,-1,42
 800 105 800 105 872.5 99.5 c 128,-1,43
 945 94 945 94 952 95.5 c 0,44,45
 967 98.7142857143 967 98.7142857143 967 127 c 2,46,-1
 967 1106 l 2,47,48
 967 1151 967 1151 959.5 1164 c 128,-1,49
 952 1177 952 1177 896 1202 c 128,-1,50
 840 1227 840 1227 779.5 1257.5 c 128,-1,51
 719 1288 719 1288 645.5 1331.5 c 128,-1,52
 572 1375 572 1375 517.5 1418 c 128,-1,53
 463 1461 463 1461 408.5 1519.5 c 128,-1,54
 354 1578 354 1578 319.5 1639.5 c 0,55,56
 242 1777.65217391 242 1777.65217391 242 1925.32608696 c 128,-1,57
 242 2073 242 2073 297 2187 c 128,-1,58
 352 2301 352 2301 446.5 2381.5 c 0,59,60
 643.776955603 2549.55073996 643.776955603 2549.55073996 930 2580 c 1,61,62
 966 2580 966 2580 966 2594.5 c 2,63,-1
 967 2613 l 1,64,-1
 967 2777 l 2,65,66
 967 2797 967 2797 976 2801.5 c 128,-1,67
 985 2806 985 2806 1008 2806 c 2,68,-1
 1044 2806 l 2,69,70
 1085 2806 1085 2806 1085 2777 c 2,71,-1
 1085 2609 l 2,72,73
 1085 2585 1085 2585 1106 2585 c 1,74,75
 1387.4614895 2564.89560789 1387.4614895 2564.89560789 1563.5 2421.5 c 0,76,77
 1724 2290.7615894 1724 2290.7615894 1724 2179 c 0,78,79
 1724 2145 1724 2145 1691.5 2115 c 0,80,81
 1627.58333333 2056 1627.58333333 2056 1586.79166667 2056 c 128,-1,82
 1546 2056 1546 2056 1530 2069 c 128,-1,83
 1514 2082 1514 2082 1505 2104 c 128,-1,84
 1496 2126 1496 2126 1488 2154.5 c 128,-1,85
 1480 2183 1480 2183 1470 2216 c 128,-1,86
 1460 2249 1460 2249 1445.5 2282 c 128,-1,87
 1431 2315 1431 2315 1404.5 2347 c 128,-1,88
 1378 2379 1378 2379 1342 2405 c 0,89,90
 1250.31847134 2471.21443737 1250.31847134 2471.21443737 1098.5 2479 c 0,91,92
 1085 2479 1085 2479 1085 2468 c 2,93,-1
 1085 1495 l 1,0,-1
522.5 2167 m 128,-1,95
 492 2083 492 2083 492 1994 c 128,-1,96
 492 1905 492 1905 518 1838 c 128,-1,97
 544 1771 544 1771 583 1723 c 128,-1,98
 622 1675 622 1675 683 1630.5 c 0,99,100
 779.571961223 1560.04996271 779.571961223 1560.04996271 864.285980611 1523.02498136 c 128,-1,101
 949 1486 949 1486 958 1487.5 c 128,-1,102
 967 1489 967 1489 967 1511 c 2,103,-1
 967 2449 l 2,104,105
 967 2468 967 2468 964 2473 c 128,-1,106
 961 2478 961 2478 925.5 2476 c 128,-1,107
 890 2474 890 2474 831 2456 c 128,-1,108
 772 2438 772 2438 710.5 2399 c 128,-1,109
 649 2360 649 2360 601 2305.5 c 128,-1,94
 553 2251 553 2251 522.5 2167 c 128,-1,95
1085 152 m 2,110,111
 1085 114 1085 114 1092 105 c 128,-1,112
 1099 96 1099 96 1126 102 c 0,113,114
 1315 141 1315 141 1440 288 c 128,-1,115
 1565 435 1565 435 1565 602 c 0,116,117
 1565 873.991596639 1565 873.991596639 1256.5 1042.5 c 0,118,119
 1118.27692308 1118 1118.27692308 1118 1101.63846154 1118 c 128,-1,120
 1085 1118 1085 1118 1085 1090 c 2,121,-1
 1085 152 l 2,110,111
EndSplineSet
Substitution2: "'subs' Subscript in Latin lookup 10 subtable" dollar.sub
Substitution2: "'sups' Superscript in Latin lookup 9 subtable" dollar.sup
Substitution2: "'dnom' Denominators in Latin lookup 6 subtable" dollar.denom
Substitution2: "'numr' Numerators in Latin lookup 5 subtable" dollar.numer
AlternateSubs2: "'aalt' Access All Alternates in Latin lookup 1 subtable" dollar.sub dollar.sup dollar.denom dollar.numer
AlternateSubs2: "'aalt' Access All Alternates lookup 0 subtable" dollar.sub dollar.sup dollar.denom dollar.numer
EndChar

StartChar: percent
Encoding: 37 37 8
Width: 2691
GlyphClass: 2
Flags: HW
LayerCount: 2
Fore
SplineSet
1458 1999 m 1,0,-1
 1357 2004 l 2,1,2
 1352 2004 1352 2004 1344.5 2004.5 c 128,-1,3
 1337 2005 1337 2005 1335.5 2003 c 128,-1,4
 1334 2001 1334 2001 1330.5 2000.5 c 128,-1,5
 1327 2000 1327 2000 1327.5 1994.5 c 128,-1,6
 1328 1989 1328 1989 1327 1986.5 c 128,-1,7
 1326 1984 1326 1984 1326.5 1974 c 128,-1,8
 1327 1964 1327 1964 1327 1958 c 2,9,-1
 1327 1901 l 2,10,11
 1327 1831 1327 1831 1319 1742 c 128,-1,12
 1311 1653 1311 1653 1247 1510 c 128,-1,13
 1183 1367 1183 1367 1087.5 1257.5 c 128,-1,14
 992 1148 992 1148 866.5 1080 c 128,-1,15
 741 1012 741 1012 611 1012 c 128,-1,16
 481 1012 481 1012 384 1076.5 c 0,17,18
 193 1203.50515464 193 1203.50515464 193 1483 c 0,19,20
 193 1636.59550562 193 1636.59550562 262 1780.79775281 c 128,-1,21
 331 1925 331 1925 398 2012.5 c 128,-1,22
 465 2100 465 2100 544 2168 c 0,23,24
 718.264705882 2318 718.264705882 2318 930 2318 c 0,25,26
 1098 2318 1098 2318 1210.5 2205.5 c 128,-1,27
 1323 2093 1323 2093 1437 2093 c 0,28,29
 1637.70212766 2093 1637.70212766 2093 1831 2208 c 1,30,31
 1954.8247331 2285.69395018 1954.8247331 2285.69395018 2067.91236655 2397.84697509 c 0,32,33
 2200.05511811 2528.8976378 2200.05511811 2528.8976378 2215.52755906 2546.9488189 c 0,34,35
 2261.85714286 2601 2261.85714286 2601 2275.42857143 2601 c 128,-1,36
 2289 2601 2289 2601 2322 2579.5 c 128,-1,37
 2355 2558 2355 2558 2355 2542 c 128,-1,38
 2355 2526 2355 2526 2241 2357 c 0,39,40
 645.646502836 -8.0415879017 645.646502836 -8.0415879017 553 -152 c 1,41,42
 538 -180 538 -180 457.5 -180 c 128,-1,43
 377 -180 377 -180 377 -135 c 0,44,45
 377 -118.686635945 377 -118.686635945 711.5 358.656682028 c 0,46,47
 1918.25759494 2080.74240506 1918.25759494 2080.74240506 1892 2107 c 1,48,49
 1887 2108 1887 2108 1864 2097 c 0,50,51
 1656 1999 1656 1999 1458 1999 c 1,0,-1
1184 1888 m 0,52,53
 1184 2163 1184 2163 983 2163 c 0,54,55
 897 2163 897 2163 796.5 2091 c 128,-1,56
 696 2019 696 2019 613 1908.5 c 128,-1,57
 530 1798 530 1798 474 1653.5 c 128,-1,58
 418 1509 418 1509 418 1405 c 128,-1,59
 418 1301 418 1301 439 1240 c 0,60,61
 487.885245902 1098 487.885245902 1098 627 1098 c 0,62,63
 788.653061224 1098 788.653061224 1098 935 1249.5 c 0,64,65
 1184 1507.26760563 1184 1507.26760563 1184 1888 c 0,52,53
1411.5 185.5 m 128,-1,67
 1364 291 1364 291 1364 413 c 128,-1,68
 1364 535 1364 535 1403.5 656 c 128,-1,69
 1443 777 1443 777 1515.5 884.5 c 128,-1,70
 1588 992 1588 992 1680.5 1078.5 c 0,71,72
 1881.00578035 1266 1881.00578035 1266 2088.00289017 1266 c 128,-1,73
 2295 1266 2295 1266 2397 1142 c 128,-1,74
 2499 1018 2499 1018 2499 806.5 c 128,-1,75
 2499 595 2499 595 2396.5 395.5 c 128,-1,76
 2294 196 2294 196 2128 73.5 c 128,-1,77
 1962 -49 1962 -49 1807.5 -49 c 128,-1,78
 1653 -49 1653 -49 1556 15.5 c 128,-1,66
 1459 80 1459 80 1411.5 185.5 c 128,-1,67
2150 1106 m 0,79,80
 1973.06451613 1106 1973.06451613 1106 1783.5 850.5 c 0,81,82
 1589 588.347826087 1589 588.347826087 1589 319 c 0,83,84
 1589 198 1589 198 1640 119.5 c 128,-1,85
 1691 41 1691 41 1792.5 41 c 128,-1,86
 1894 41 1894 41 1993.5 103 c 128,-1,87
 2093 165 2093 165 2173 268.5 c 0,88,89
 2355 503.9625 2355 503.9625 2355 804.98125 c 128,-1,90
 2355 1106 2355 1106 2150 1106 c 0,79,80
EndSplineSet
EndChar

StartChar: ampersand
Encoding: 38 38 9
Width: 2691
GlyphClass: 2
Flags: HW
LayerCount: 2
Fore
SplineSet
2245 1483 m 1,0,-1
 2548 1495 l 1,1,2
 2581 1495 2581 1495 2591 1478.5 c 128,-1,3
 2601 1462 2601 1462 2601 1415 c 128,-1,4
 2601 1368 2601 1368 2588.5 1358 c 128,-1,5
 2576 1348 2576 1348 2531 1348 c 2,6,-1
 2392 1348 l 2,7,8
 2365 1348 2365 1348 2333 1301 c 128,-1,9
 2301 1254 2301 1254 2248 1177.5 c 128,-1,10
 2195 1101 2195 1101 2146.5 1031.5 c 128,-1,11
 2098 962 2098 962 2046 886 c 0,12,13
 1930.18181818 716.727272727 1930.18181818 716.727272727 1927.59090909 702.363636364 c 128,-1,14
 1925 688 1925 688 2009.5 582 c 128,-1,15
 2094 476 2094 476 2172.5 335 c 128,-1,16
 2251 194 2251 194 2262.5 179.5 c 128,-1,17
 2274 165 2274 165 2305 148.5 c 0,18,19
 2352.90909091 123 2352.90909091 123 2449.45454545 123 c 128,-1,20
 2546 123 2546 123 2551 114 c 128,-1,21
 2556 105 2556 105 2556 57 c 128,-1,22
 2556 9 2556 9 2546 -1.5 c 128,-1,23
 2536 -12 2536 -12 2431.5 -13 c 128,-1,24
 2327 -14 2327 -14 2171 -33.5 c 128,-1,25
 2015 -53 2015 -53 1993 -53 c 0,26,27
 1948.20689655 -53 1948.20689655 -53 1933 -4 c 1,28,29
 1878 197 1878 197 1741 393 c 0,30,31
 1719 424 1719 424 1709.5 424.5 c 128,-1,32
 1700 425 1700 425 1675 397 c 0,33,34
 1264 -53 1264 -53 897 -53 c 0,35,36
 558.142857143 -53 558.142857143 -53 353.5 142 c 0,37,38
 152 334.005235602 152 334.005235602 152 635 c 0,39,40
 152 919.006535948 152 919.006535948 419.5 1193.5 c 0,41,42
 535.044206296 1312.06496986 535.044206296 1312.06496986 624.022103148 1375.03248493 c 128,-1,43
 713 1438 713 1438 713 1443.5 c 128,-1,44
 713 1449 713 1449 706 1456 c 128,-1,45
 699 1463 699 1463 683.5 1477.5 c 128,-1,46
 668 1492 668 1492 655 1507 c 0,47,48
 422 1771 422 1771 422 1991 c 0,49,50
 422 2269.32432432 422 2269.32432432 624.5 2456.5 c 0,51,52
 825.187134503 2642 825.187134503 2642 1102 2642 c 0,53,54
 1392.81632653 2642 1392.81632653 2642 1555.5 2493 c 0,55,56
 1671 2387.21495327 1671 2387.21495327 1671 2220 c 0,57,58
 1671 1905.83050847 1671 1905.83050847 1155 1556 c 0,59,60
 1111 1527 1111 1527 1110 1516 c 128,-1,61
 1109 1505 1109 1505 1129 1488.5 c 128,-1,62
 1149 1472 1149 1472 1195 1433.5 c 128,-1,63
 1241 1395 1241 1395 1319.5 1323 c 128,-1,64
 1398 1251 1398 1251 1491 1155.5 c 0,65,66
 1620.89256198 1022.11570248 1620.89256198 1022.11570248 1723.94628099 911.55785124 c 128,-1,67
 1827 801 1827 801 1834.5 802 c 128,-1,68
 1842 803 1842 803 1863 842 c 128,-1,69
 1884 881 1884 881 1937 972.5 c 128,-1,70
 1990 1064 1990 1064 2023 1122.5 c 0,71,72
 2114 1283.81818182 2114 1283.81818182 2114 1339 c 0,73,74
 2114 1348 2114 1348 2048 1348 c 2,75,-1
 1790 1348 l 2,76,77
 1751 1348 1751 1348 1744 1359 c 128,-1,78
 1737 1370 1737 1370 1737 1417.5 c 128,-1,79
 1737 1465 1737 1465 1749 1480 c 128,-1,80
 1761 1495 1761 1495 1790 1495 c 2,81,-1
 2245 1483 l 1,0,-1
449.5 944 m 128,-1,83
 430 878 430 878 430 765 c 128,-1,84
 430 652 430 652 516 516.5 c 128,-1,85
 602 381 602 381 740 303 c 128,-1,86
 878 225 878 225 1028 225 c 0,87,88
 1339 225 1339 225 1610 496 c 1,89,90
 1630 523 1630 523 1630 527.5 c 128,-1,91
 1630 532 1630 532 1627 537.5 c 128,-1,92
 1624 543 1624 543 1616 555 c 128,-1,93
 1608 567 1608 567 1550.5 648.5 c 128,-1,94
 1493 730 1493 730 1284 941.5 c 128,-1,95
 1075 1153 1075 1153 979 1232.5 c 128,-1,96
 883 1312 883 1312 874.5 1318.5 c 128,-1,97
 866 1325 866 1325 861.5 1328.5 c 128,-1,98
 857 1332 857 1332 851 1336.5 c 128,-1,99
 845 1341 845 1341 841.5 1343.5 c 128,-1,100
 838 1346 838 1346 833.5 1348 c 0,101,102
 824.5 1352 824.5 1352 816.25 1352 c 128,-1,103
 808 1352 808 1352 744.5 1307 c 128,-1,104
 681 1262 681 1262 646 1232 c 128,-1,105
 611 1202 611 1202 568.5 1154.5 c 128,-1,106
 526 1107 526 1107 497.5 1058.5 c 128,-1,82
 469 1010 469 1010 449.5 944 c 128,-1,83
918 1692 m 1,107,108
 982.473684211 1622 982.473684211 1622 1000.23684211 1622 c 128,-1,109
 1018 1622 1018 1622 1048 1643.5 c 128,-1,110
 1078 1665 1078 1665 1104.5 1685 c 128,-1,111
 1131 1705 1131 1705 1175.5 1748.5 c 128,-1,112
 1220 1792 1220 1792 1266.5 1853.5 c 0,113,114
 1368 1987.74193548 1368 1987.74193548 1368 2139.37096774 c 128,-1,115
 1368 2291 1368 2291 1279 2392.5 c 128,-1,116
 1190 2494 1190 2494 1065.5 2494 c 128,-1,117
 941 2494 941 2494 862 2440 c 0,118,119
 713 2338.15189873 713 2338.15189873 713 2136.32594937 c 128,-1,120
 713 1934.5 713 1934.5 918 1692 c 1,107,108
EndSplineSet
Substitution2: "'c2sc' Capitals to Small Capitals in Latin lookup 14 subtable" ampersand.c2
AlternateSubs2: "'aalt' Access All Alternates in Latin lookup 1 subtable" ampersand.c2
AlternateSubs2: "'aalt' Access All Alternates lookup 0 subtable" ampersand.c2
Position2: "'cpsp' Capital Spacing in Latin lookup 0 subtable" dx=16 dy=0 dh=33 dv=0
EndChar

StartChar: quotesingle
Encoding: 39 39 10
Width: 536
GlyphClass: 2
Flags: HW
LayerCount: 2
Fore
SplineSet
111 2093 m 0,0,1
 111 2139.57142857 111 2139.57142857 129 2399.28571429 c 128,-1,2
 147 2659 147 2659 153 2709.5 c 0,3,4
 167.316831683 2830 167.316831683 2830 295 2830 c 0,5,6
 358 2830 358 2830 392 2798.5 c 128,-1,7
 426 2767 426 2767 426 2730.5 c 128,-1,8
 426 2694 426 2694 412 2635 c 128,-1,9
 398 2576 398 2576 326.5 2344.5 c 128,-1,10
 255 2113 255 2113 253 2106.5 c 128,-1,11
 251 2100 251 2100 245.5 2082 c 128,-1,12
 240 2064 240 2064 238 2059 c 128,-1,13
 236 2054 236 2054 230.5 2044 c 128,-1,14
 225 2034 225 2034 218 2031.5 c 0,15,16
 194.2 2023 194.2 2023 172 2023 c 0,17,18
 111 2023 111 2023 111 2093 c 0,0,1
EndSplineSet
EndChar

StartChar: parenleft
Encoding: 40 40 11
Width: 1142
GlyphClass: 2
Flags: HW
LayerCount: 2
Fore
SplineSet
975 -516 m 0,0,1
 975 -586 975 -586 897 -586 c 0,2,3
 831.142857143 -586 831.142857143 -586 578.5 -193 c 0,4,5
 287.8170347 259.173501577 287.8170347 259.173501577 190 774 c 0,6,7
 152 974 152 974 152 1157 c 128,-1,8
 152 1340 152 1340 177.5 1507.5 c 128,-1,9
 203 1675 203 1675 245.5 1812 c 128,-1,10
 288 1949 288 1949 344 2077 c 128,-1,11
 400 2205 400 2205 461.5 2305.5 c 128,-1,12
 523 2406 523 2406 585.5 2493 c 128,-1,13
 648 2580 648 2580 704.5 2641.5 c 128,-1,14
 761 2703 761 2703 807 2747 c 0,15,16
 897.954545455 2834 897.954545455 2834 918.977272727 2834 c 128,-1,17
 940 2834 940 2834 965.5 2814.5 c 128,-1,18
 991 2795 991 2795 991 2779.5 c 128,-1,19
 991 2764 991 2764 971 2740 c 128,-1,20
 951 2716 951 2716 917.5 2675 c 128,-1,21
 884 2634 884 2634 840.5 2577 c 128,-1,22
 797 2520 797 2520 748.5 2442 c 128,-1,23
 700 2364 700 2364 652 2272.5 c 128,-1,24
 604 2181 604 2181 560.5 2064 c 128,-1,25
 517 1947 517 1947 483.5 1820.5 c 0,26,27
 410 1542.95522388 410 1542.95522388 410 1275.97761194 c 128,-1,28
 410 1009 410 1009 434.5 813.5 c 128,-1,29
 459 618 459 618 498.5 467.5 c 128,-1,30
 538 317 538 317 589 180.5 c 128,-1,31
 640 44 640 44 692.5 -55 c 128,-1,32
 745 -154 745 -154 796 -238.5 c 128,-1,33
 847 -323 847 -323 886.5 -376 c 0,34,35
 975 -494.746835443 975 -494.746835443 975 -516 c 0,0,1
EndSplineSet
Substitution2: "'case' Case-Sensitive Forms in Latin lookup 16 subtable" parenleft.u
Substitution2: "'subs' Subscript in Latin lookup 10 subtable" parenleft.sub
Substitution2: "'sups' Superscript in Latin lookup 9 subtable" parenleft.sup
Substitution2: "'dnom' Denominators in Latin lookup 6 subtable" parenleft.denom
Substitution2: "'numr' Numerators in Latin lookup 5 subtable" parenleft.numer
AlternateSubs2: "'aalt' Access All Alternates in Latin lookup 1 subtable" parenleft.u parenleft.sub parenleft.sup parenleft.denom parenleft.numer
AlternateSubs2: "'aalt' Access All Alternates lookup 0 subtable" parenleft.u parenleft.sub parenleft.sup parenleft.denom parenleft.numer
EndChar

StartChar: parenright
Encoding: 41 41 12
Width: 1142
GlyphClass: 2
Flags: HW
LayerCount: 2
Fore
SplineSet
168 2765 m 0,0,1
 168 2834 168 2834 246 2834 c 0,2,3
 311.857142857 2834 311.857142857 2834 564.5 2441 c 0,4,5
 855.1829653 1988.82649842 855.1829653 1988.82649842 953 1474 c 0,6,7
 991 1274 991 1274 991 1091 c 128,-1,8
 991 908 991 908 965.5 740.5 c 128,-1,9
 940 573 940 573 897.5 436 c 128,-1,10
 855 299 855 299 799 171 c 128,-1,11
 743 43 743 43 681.5 -57.5 c 128,-1,12
 620 -158 620 -158 557 -245 c 128,-1,13
 494 -332 494 -332 437.5 -393.5 c 128,-1,14
 381 -455 381 -455 335 -499 c 0,15,16
 244.045454545 -586 244.045454545 -586 223.022727273 -586 c 128,-1,17
 202 -586 202 -586 177 -566 c 128,-1,18
 152 -546 152 -546 152 -530.5 c 128,-1,19
 152 -515 152 -515 172 -491 c 128,-1,20
 192 -467 192 -467 225.5 -426 c 128,-1,21
 259 -385 259 -385 302.5 -328 c 128,-1,22
 346 -271 346 -271 394.5 -193 c 128,-1,23
 443 -115 443 -115 491 -23.5 c 128,-1,24
 539 68 539 68 582.5 185 c 128,-1,25
 626 302 626 302 659.5 428.5 c 0,26,27
 733 706.044776119 733 706.044776119 733 987.02238806 c 128,-1,28
 733 1268 733 1268 702 1487.5 c 128,-1,29
 671 1707 671 1707 621 1870 c 128,-1,30
 571 2033 571 2033 510.5 2175 c 128,-1,31
 450 2317 450 2317 390 2416.5 c 128,-1,32
 330 2516 330 2516 280 2589 c 128,-1,33
 230 2662 230 2662 199 2706.5 c 128,-1,34
 168 2751 168 2751 168 2765 c 0,0,1
EndSplineSet
Substitution2: "'case' Case-Sensitive Forms in Latin lookup 16 subtable" parenright.u
Substitution2: "'subs' Subscript in Latin lookup 10 subtable" parenright.sub
Substitution2: "'sups' Superscript in Latin lookup 9 subtable" parenright.sup
Substitution2: "'dnom' Denominators in Latin lookup 6 subtable" parenright.denom
Substitution2: "'numr' Numerators in Latin lookup 5 subtable" parenright.numer
AlternateSubs2: "'aalt' Access All Alternates in Latin lookup 1 subtable" parenright.u parenright.sub parenright.sup parenright.denom parenright.numer
AlternateSubs2: "'aalt' Access All Alternates lookup 0 subtable" parenright.u parenright.sub parenright.sup parenright.denom parenright.numer
EndChar

StartChar: asterisk
Encoding: 42 42 13
Width: 1601
GlyphClass: 2
Flags: HW
LayerCount: 2
Fore
SplineSet
149.5 1741 m 128,-1,1
 111 1774 111 1774 111 1825.5 c 0,2,3
 111 1927.70731707 111 1927.70731707 213 1970 c 1,4,5
 259 1991 259 1991 420 2047.5 c 128,-1,6
 581 2104 581 2104 628 2123 c 128,-1,7
 675 2142 675 2142 687.5 2152.5 c 128,-1,8
 700 2163 700 2163 694 2172 c 128,-1,9
 688 2181 688 2181 666 2196.5 c 128,-1,10
 644 2212 644 2212 628.5 2223.5 c 128,-1,11
 613 2235 613 2235 465 2328 c 128,-1,12
 317 2421 317 2421 269 2474.5 c 128,-1,13
 221 2528 221 2528 221 2583.5 c 128,-1,14
 221 2639 221 2639 254 2675.5 c 128,-1,15
 287 2712 287 2712 336 2712 c 0,16,17
 424.333333333 2712 424.333333333 2712 469.166666667 2662.5 c 128,-1,18
 514 2613 514 2613 559.5 2543 c 128,-1,19
 605 2473 605 2473 659 2382 c 128,-1,20
 713 2291 713 2291 725.5 2272 c 128,-1,21
 738 2253 738 2253 744.5 2243 c 128,-1,22
 751 2233 751 2233 753 2228 c 128,-1,23
 755 2223 755 2223 759.5 2220 c 128,-1,24
 764 2217 764 2217 764 2215.5 c 128,-1,25
 764 2214 764 2214 768 2218.5 c 128,-1,26
 772 2223 772 2223 772.5 2225 c 128,-1,27
 773 2227 773 2227 778.5 2239 c 128,-1,28
 784 2251 784 2251 792.5 2272.5 c 128,-1,29
 801 2294 801 2294 836 2396.5 c 0,30,31
 918.646569647 2638.53638254 918.646569647 2638.53638254 949.323284823 2684.26819127 c 0,32,33
 1011.52741283 2777 1011.52741283 2777 1080.76370641 2777 c 128,-1,34
 1150 2777 1150 2777 1185.5 2736.5 c 128,-1,35
 1221 2696 1221 2696 1221 2645 c 128,-1,36
 1221 2594 1221 2594 1182 2538 c 128,-1,37
 1143 2482 1143 2482 1017 2372 c 128,-1,38
 891 2262 891 2262 873 2242.5 c 128,-1,39
 855 2223 855 2223 847.5 2214.5 c 128,-1,40
 840 2206 840 2206 836.5 2202.5 c 128,-1,41
 833 2199 833 2199 828 2193 c 128,-1,42
 823 2187 823 2187 822.5 2184.5 c 128,-1,43
 822 2182 822 2182 820.5 2178 c 128,-1,44
 819 2174 819 2174 822.5 2172.5 c 128,-1,45
 826 2171 826 2171 830 2168.5 c 128,-1,46
 834 2166 834 2166 842 2164.5 c 0,47,48
 883.229586936 2156.76945245 883.229586936 2156.76945245 1097.61479347 2151.88472622 c 128,-1,49
 1312 2147 1312 2147 1364.5 2130 c 0,50,51
 1491 2089.03809524 1491 2089.03809524 1491 1991 c 0,52,53
 1491 1930 1491 1930 1449 1895 c 128,-1,54
 1407 1860 1407 1860 1356.5 1860 c 128,-1,55
 1306 1860 1306 1860 1228.5 1894 c 128,-1,56
 1151 1928 1151 1928 1039 1987.5 c 128,-1,57
 927 2047 927 2047 899 2059.5 c 128,-1,58
 871 2072 871 2072 856.5 2079 c 128,-1,59
 842 2086 842 2086 837.5 2088.5 c 128,-1,60
 833 2091 833 2091 826 2092 c 128,-1,61
 819 2093 819 2093 818 2090.5 c 128,-1,62
 817 2088 817 2088 816 2081 c 0,63,64
 812.564885496 2056.95419847 812.564885496 2056.95419847 855.782442748 1923.97709924 c 0,65,66
 942 1658.69230769 942 1658.69230769 942 1600.84615385 c 128,-1,67
 942 1543 942 1543 929.5 1505.5 c 0,68,69
 898.666666667 1413 898.666666667 1413 817.833333333 1413 c 128,-1,70
 737 1413 737 1413 698 1466.5 c 128,-1,71
 659 1520 659 1520 659 1568.5 c 128,-1,72
 659 1617 659 1617 671.5 1688.5 c 128,-1,73
 684 1760 684 1760 703 1851 c 128,-1,74
 722 1942 722 1942 729.5 1986.5 c 128,-1,75
 737 2031 737 2031 737 2060 c 128,-1,76
 737 2089 737 2089 724.5 2088.5 c 128,-1,77
 712 2088 712 2088 680 2057 c 128,-1,78
 648 2026 648 2026 524 1896 c 128,-1,79
 400 1766 400 1766 349.5 1737 c 128,-1,80
 299 1708 299 1708 243.5 1708 c 128,-1,0
 188 1708 188 1708 149.5 1741 c 128,-1,1
EndSplineSet
EndChar

StartChar: plus
Encoding: 43 43 14
Width: 2158
GlyphClass: 2
Flags: HW
LayerCount: 2
Fore
SplineSet
129 782.5 m 128,-1,1
 115 807 115 807 115 849.5 c 128,-1,2
 115 892 115 892 117 906 c 128,-1,3
 119 920 119 920 127 935 c 0,4,5
 141.933333333 963 141.933333333 963 201 963 c 2,6,-1
 897 963 l 2,7,8
 948 963 948 963 961.5 977.5 c 128,-1,9
 975 992 975 992 975 1028 c 2,10,-1
 975 1749 l 2,11,12
 975 1797 975 1797 998.5 1810 c 128,-1,13
 1022 1823 1022 1823 1060.5 1823 c 128,-1,14
 1099 1823 1099 1823 1115 1820.5 c 128,-1,15
 1131 1818 1131 1818 1149 1810 c 0,16,17
 1184 1794.44444444 1184 1794.44444444 1184 1729 c 2,18,-1
 1184 1061 l 2,19,20
 1184 983.583333333 1184 983.583333333 1203 973.291666667 c 128,-1,21
 1222 963 1222 963 1241 963 c 2,22,-1
 1966 963 l 2,23,24
 2016 963 2016 963 2030 939.5 c 128,-1,25
 2044 916 2044 916 2044 860 c 128,-1,26
 2044 804 2044 804 2027.5 781 c 128,-1,27
 2011 758 2011 758 1946 758 c 2,28,-1
 1241 758 l 2,29,30
 1186.26666667 758 1186.26666667 758 1184.5 731.5 c 0,31,32
 1184 724 1184 724 1184 711.5 c 2,33,-1
 1184 -20 l 2,34,35
 1184 -75.7419354839 1184 -75.7419354839 1161 -86.8709677419 c 0,36,37
 1129.73333333 -102 1129.73333333 -102 1075.86666667 -102 c 128,-1,38
 1022 -102 1022 -102 998.5 -87.5 c 128,-1,39
 975 -73 975 -73 975 -16 c 2,40,-1
 975 696 l 2,41,42
 975 740 975 740 962 749 c 128,-1,43
 949 758 949 758 921 758 c 2,44,-1
 197 758 l 2,45,0
 143 758 143 758 129 782.5 c 128,-1,1
EndSplineSet
EndChar

StartChar: comma
Encoding: 44 44 15
Width: 831
GlyphClass: 2
Flags: HW
LayerCount: 2
Fore
SplineSet
168 -623 m 128,-1,1
 152 -595 152 -595 152 -577.5 c 128,-1,2
 152 -560 152 -560 181.5 -530.5 c 128,-1,3
 211 -501 211 -501 253 -459.5 c 128,-1,4
 295 -418 295 -418 337 -369 c 0,5,6
 438 -251.166666667 438 -251.166666667 438 -139 c 0,7,8
 438 -41.3670886076 438 -41.3670886076 342.5 36 c 0,9,10
 303 68 303 68 263.5 95.5 c 0,11,12
 168 161.987341772 168 161.987341772 168 197 c 128,-1,13
 168 232 168 232 215 275.5 c 128,-1,14
 262 319 262 319 311 346 c 128,-1,15
 360 373 360 373 387.5 373 c 128,-1,16
 415 373 415 373 487 330 c 128,-1,17
 559 287 559 287 619.5 221 c 128,-1,18
 680 155 680 155 680 79 c 128,-1,19
 680 3 680 3 636 -110.5 c 128,-1,20
 592 -224 592 -224 528 -316.5 c 128,-1,21
 464 -409 464 -409 396 -486.5 c 0,22,23
 251.664516129 -651 251.664516129 -651 217.832258065 -651 c 128,-1,0
 184 -651 184 -651 168 -623 c 128,-1,1
EndSplineSet
Substitution2: "'subs' Subscript in Latin lookup 10 subtable" comma.sub
Substitution2: "'sups' Superscript in Latin lookup 9 subtable" comma.sup
Substitution2: "'dnom' Denominators in Latin lookup 6 subtable" comma.denom
Substitution2: "'numr' Numerators in Latin lookup 5 subtable" comma.numer
AlternateSubs2: "'aalt' Access All Alternates in Latin lookup 1 subtable" comma.sub comma.sup comma.denom comma.numer
AlternateSubs2: "'aalt' Access All Alternates lookup 0 subtable" comma.sub comma.sup comma.denom comma.numer
EndChar

StartChar: hyphen
Encoding: 45 45 16
Width: 1056
GlyphClass: 2
Flags: HW
LayerCount: 2
Fore
SplineSet
507.5 813.5 m 128,-1,1
 156 799 156 799 121 799 c 128,-1,2
 86 799 86 799 86 826 c 128,-1,3
 86 853 86 853 112.5 924.5 c 128,-1,4
 139 996 139 996 164 999 c 0,5,6
 192 1002 192 1002 549 1015 c 128,-1,7
 906 1028 906 1028 926 1028 c 128,-1,8
 946 1028 946 1028 946 985.5 c 128,-1,9
 946 943 946 943 935 888.5 c 128,-1,10
 924 834 924 834 905 831 c 1,11,0
 859 828 859 828 507.5 813.5 c 128,-1,1
EndSplineSet
Substitution2: "'case' Case-Sensitive Forms in Latin lookup 16 subtable" hyphen.u
Substitution2: "'subs' Subscript in Latin lookup 10 subtable" hyphen.sub
Substitution2: "'sups' Superscript in Latin lookup 9 subtable" hyphen.sup
Substitution2: "'dnom' Denominators in Latin lookup 6 subtable" hyphen.denom
Substitution2: "'numr' Numerators in Latin lookup 5 subtable" hyphen.numer
AlternateSubs2: "'aalt' Access All Alternates in Latin lookup 1 subtable" hyphen.u hyphen.sub hyphen.sup hyphen.denom hyphen.numer
AlternateSubs2: "'aalt' Access All Alternates lookup 0 subtable" hyphen.u hyphen.sub hyphen.sup hyphen.denom hyphen.numer
EndChar

StartChar: period
Encoding: 46 46 17
Width: 905
GlyphClass: 2
Flags: HW
LayerCount: 2
Fore
SplineSet
316.5 27 m 128,-1,1
 233 99 233 99 233 162 c 128,-1,2
 233 225 233 225 301 317.5 c 128,-1,3
 369 410 369 410 418 410 c 128,-1,4
 467 410 467 410 523.5 383.5 c 128,-1,5
 580 357 580 357 626 307.5 c 128,-1,6
 672 258 672 258 672 208.5 c 128,-1,7
 672 159 672 159 650.5 111.5 c 128,-1,8
 629 64 629 64 599 30.5 c 0,9,10
 531.388059701 -45 531.388059701 -45 465.694029851 -45 c 128,-1,0
 400 -45 400 -45 316.5 27 c 128,-1,1
EndSplineSet
Substitution2: "'subs' Subscript in Latin lookup 10 subtable" period.sub
Substitution2: "'sups' Superscript in Latin lookup 9 subtable" period.sup
Substitution2: "'dnom' Denominators in Latin lookup 6 subtable" period.denom
Substitution2: "'numr' Numerators in Latin lookup 5 subtable" period.numer
AlternateSubs2: "'aalt' Access All Alternates in Latin lookup 1 subtable" period.sub period.sup period.denom period.numer
AlternateSubs2: "'aalt' Access All Alternates lookup 0 subtable" period.sub period.sup period.denom period.numer
EndChar

StartChar: slash
Encoding: 47 47 18
Width: 1662
GlyphClass: 2
Flags: HW
LayerCount: 2
Fore
SplineSet
20 -918 m 0,0,1
 20 -882.071428571 20 -882.071428571 106 -664 c 1,2,-1
 1405 2818 l 1,3,4
 1425.8311488 2889.75173477 1425.8311488 2889.75173477 1471.5 2894 c 0,5,6
 1493 2896 1493 2896 1565.5 2896 c 128,-1,7
 1638 2896 1638 2896 1638 2851 c 0,8,9
 1638 2801.68421053 1638 2801.68421053 1577 2654 c 1,10,-1
 291 -831 l 1,11,12
 259 -921 259 -921 244.5 -942 c 0,13,14
 227.238095238 -967 227.238095238 -967 123.619047619 -967 c 128,-1,15
 20 -967 20 -967 20 -918 c 0,0,1
EndSplineSet
Substitution2: "'numr' Numerators in Latin lookup 5 subtable" fraction
AlternateSubs2: "'aalt' Access All Alternates in Latin lookup 1 subtable" fraction
AlternateSubs2: "'aalt' Access All Alternates lookup 0 subtable" fraction
EndChar

StartChar: zero
Encoding: 48 48 19
Width: 2048
GlyphClass: 2
Flags: HW
LayerCount: 2
Fore
SplineSet
286.5 466 m 128,-1,1
 225 614 225 614 225 779 c 128,-1,2
 225 944 225 944 288 1092.5 c 128,-1,3
 351 1241 351 1241 459 1345 c 0,4,5
 691.615384615 1569 691.615384615 1569 1028 1569 c 0,6,7
 1401.2739726 1569 1401.2739726 1569 1616 1331.5 c 0,8,9
 1823 1102.54545455 1823 1102.54545455 1823 770 c 0,10,11
 1823 417.6 1823 417.6 1585 191.5 c 0,12,13
 1348.68421053 -33 1348.68421053 -33 1004 -33 c 0,14,15
 845 -33 845 -33 700 33 c 128,-1,16
 555 99 555 99 451.5 208.5 c 128,-1,0
 348 318 348 318 286.5 466 c 128,-1,1
436.5 1008.5 m 128,-1,18
 385 896 385 896 385 748 c 128,-1,19
 385 600 385 600 469 465 c 0,20,21
 641.355555556 188 641.355555556 188 999 188 c 0,22,23
 1382.77777778 188 1382.77777778 188 1549 452 c 0,24,25
 1647 607.647058824 1647 607.647058824 1647 795.823529412 c 128,-1,26
 1647 984 1647 984 1557 1112 c 128,-1,27
 1467 1240 1467 1240 1322 1310 c 128,-1,28
 1177 1380 1177 1380 1033 1380 c 128,-1,29
 889 1380 889 1380 773.5 1331.5 c 128,-1,30
 658 1283 658 1283 573 1202 c 128,-1,17
 488 1121 488 1121 436.5 1008.5 c 128,-1,18
EndSplineSet
Substitution2: "'pnum' Proportional Numbers in Latin lookup 12 subtable" zero.p
Substitution2: "'lnum' Lining Figures in Latin lookup 11 subtable" zero.u
Substitution2: "'subs' Subscript in Latin lookup 10 subtable" zero.sub
Substitution2: "'sups' Superscript in Latin lookup 9 subtable" zero.sup
Substitution2: "'dnom' Denominators in Latin lookup 6 subtable" zero.denom
Substitution2: "'numr' Numerators in Latin lookup 5 subtable" zero.numer
AlternateSubs2: "'aalt' Access All Alternates in Latin lookup 1 subtable" zero.p zero.u zero.sub zero.sup zero.denom zero.numer
AlternateSubs2: "'aalt' Access All Alternates lookup 0 subtable" zero.p zero.u zero.sub zero.sup zero.denom zero.numer
EndChar

StartChar: one
Encoding: 49 49 20
Width: 2048
GlyphClass: 2
Flags: HW
LayerCount: 2
Fore
SplineSet
1028 -12 m 1,0,-1
 651 -20 l 2,1,2
 617 -20 617 -20 609.5 -5.5 c 128,-1,3
 602 9 602 9 602 46.5 c 128,-1,4
 602 84 602 84 613.5 99.5 c 128,-1,5
 625 115 625 115 664 115 c 2,6,-1
 848 115 l 2,7,8
 877 115 877 115 877 152 c 1,9,10
 881 271 881 271 881 512 c 2,11,-1
 881 877 l 2,12,13
 881 1236 881 1236 876.5 1342 c 128,-1,14
 872 1448 872 1448 872 1461.5 c 128,-1,15
 872 1475 872 1475 864 1475 c 0,16,17
 761.5 1475 761.5 1475 659 1475 c 0,18,19
 614 1475 614 1475 614 1542.5 c 128,-1,20
 614 1610 614 1610 659 1610 c 2,21,-1
 1044 1602 l 1,22,-1
 1425 1610 l 2,23,24
 1464.52173913 1610 1464.52173913 1610 1468.5 1579.5 c 0,25,26
 1470 1568 1470 1568 1470 1544.5 c 128,-1,27
 1470 1521 1470 1521 1469 1512 c 128,-1,28
 1468 1503 1468 1503 1463 1492.5 c 0,29,30
 1454.66666667 1475 1454.66666667 1475 1413 1475 c 2,31,-1
 1225 1475 l 1,32,-1
 1216.5 1474 l 2,33,34
 1210 1474 1210 1474 1210 1464.5 c 0,35,36
 1210 1448 1210 1448 1203 1324 c 128,-1,37
 1196 1200 1196 1200 1196 731.5 c 128,-1,38
 1196 263 1196 263 1198 194.5 c 128,-1,39
 1200 126 1200 126 1205 120.5 c 128,-1,40
 1210 115 1210 115 1237 115 c 2,41,-1
 1401 115 l 2,42,43
 1458 115 1458 115 1458 47.5 c 128,-1,44
 1458 -20 1458 -20 1401 -20 c 1,45,-1
 1028 -12 l 1,0,-1
EndSplineSet
Substitution2: "'pnum' Proportional Numbers in Latin lookup 12 subtable" one.p
Substitution2: "'lnum' Lining Figures in Latin lookup 11 subtable" one.u
Substitution2: "'subs' Subscript in Latin lookup 10 subtable" one.sub
Substitution2: "'sups' Superscript in Latin lookup 9 subtable" one.sup
Substitution2: "'dnom' Denominators in Latin lookup 6 subtable" one.denom
Substitution2: "'numr' Numerators in Latin lookup 5 subtable" one.numer
AlternateSubs2: "'aalt' Access All Alternates in Latin lookup 1 subtable" one.p one.u one.sub one.sup one.denom one.numer
AlternateSubs2: "'aalt' Access All Alternates lookup 0 subtable" one.p one.u one.sub one.sup one.denom one.numer
EndChar

StartChar: two
Encoding: 50 50 21
Width: 2048
GlyphClass: 2
Flags: HW
LayerCount: 2
Fore
SplineSet
324 -12 m 2,0,1
 246 -12 246 -12 246 45 c 0,2,3
 246 77 246 77 292.5 117 c 128,-1,4
 339 157 339 157 402.5 203.5 c 128,-1,5
 466 250 466 250 531.5 294 c 128,-1,6
 597 338 597 338 674.5 394.5 c 128,-1,7
 752 451 752 451 821.5 507 c 128,-1,8
 891 563 891 563 957 633 c 128,-1,9
 1023 703 1023 703 1070.5 774 c 0,10,11
 1176 931.694736842 1176 931.694736842 1176 1107.34736842 c 128,-1,12
 1176 1283 1176 1283 1084.5 1381 c 128,-1,13
 993 1479 993 1479 844 1479 c 0,14,15
 622.730769231 1479 622.730769231 1479 346.5 1251 c 0,16,17
 315 1225 315 1225 306 1225 c 128,-1,18
 297 1225 297 1225 265 1261.5 c 128,-1,19
 233 1298 233 1298 233 1322.5 c 128,-1,20
 233 1347 233 1347 301.5 1404 c 128,-1,21
 370 1461 370 1461 469.5 1521.5 c 0,22,23
 721.950413223 1675 721.950413223 1675 947.975206612 1675 c 128,-1,24
 1174 1675 1174 1675 1326.5 1523.5 c 128,-1,25
 1479 1372 1479 1372 1479 1147 c 0,26,27
 1479 756.842105263 1479 756.842105263 692 280.5 c 0,28,29
 659 260.526315789 659 260.526315789 659 255.263157895 c 128,-1,30
 659 250 659 250 729 250 c 2,31,-1
 1585 250 l 2,32,33
 1594 250 1594 250 1665 389 c 128,-1,34
 1736 528 1736 528 1741 528 c 0,35,36
 1758 528 1758 528 1794.5 517.5 c 128,-1,37
 1831 507 1831 507 1831 496 c 0,38,39
 1831 464 1831 464 1716 20 c 1,40,41
 1706 -12 1706 -12 1659 -12 c 2,42,-1
 324 -12 l 2,0,1
EndSplineSet
Substitution2: "'pnum' Proportional Numbers in Latin lookup 12 subtable" two.p
Substitution2: "'lnum' Lining Figures in Latin lookup 11 subtable" two.u
Substitution2: "'subs' Subscript in Latin lookup 10 subtable" two.sub
Substitution2: "'sups' Superscript in Latin lookup 9 subtable" two.sup
Substitution2: "'dnom' Denominators in Latin lookup 6 subtable" two.denom
Substitution2: "'numr' Numerators in Latin lookup 5 subtable" two.numer
AlternateSubs2: "'aalt' Access All Alternates in Latin lookup 1 subtable" two.p two.u two.sub two.sup two.denom two.numer
AlternateSubs2: "'aalt' Access All Alternates lookup 0 subtable" two.p two.u two.sub two.sup two.denom two.numer
EndChar

StartChar: three
Encoding: 51 51 22
Width: 2048
GlyphClass: 2
Flags: HW
LayerCount: 2
Fore
SplineSet
1114 562 m 1,0,-1
 1126 561 l 2,1,2
 1741 510 1741 510 1741 -111 c 0,3,4
 1741 -278 1741 -278 1669 -425 c 128,-1,5
 1597 -572 1597 -572 1480.5 -671 c 0,6,7
 1228.67171717 -885 1228.67171717 -885 913 -885 c 0,8,9
 749.865384615 -885 749.865384615 -885 597.432692308 -843.5 c 0,10,11
 315 -766.607329843 315 -766.607329843 315 -672 c 0,12,13
 315 -633 315 -633 367 -605.5 c 128,-1,14
 419 -578 419 -578 476 -578 c 0,15,16
 557.333333333 -578 557.333333333 -578 618.666666667 -614.5 c 128,-1,17
 680 -651 680 -651 717 -677 c 128,-1,18
 754 -703 754 -703 778.5 -717.5 c 0,19,20
 846.931034483 -758 846.931034483 -758 961.965517241 -758 c 128,-1,21
 1077 -758 1077 -758 1194 -675 c 128,-1,22
 1311 -592 1311 -592 1384.5 -452.5 c 128,-1,23
 1458 -313 1458 -313 1458 -160 c 0,24,25
 1458 120 1458 120 1313.5 242.5 c 128,-1,26
 1169 365 1169 365 852 365 c 1,27,-1
 635 352 l 1,28,29
 587.965517241 352 587.965517241 352 571 413.5 c 0,30,31
 567 428 567 428 562 443 c 128,-1,32
 557 458 557 458 557 471 c 128,-1,33
 557 484 557 484 558.5 492 c 128,-1,34
 560 500 560 500 564.5 507 c 128,-1,35
 569 514 569 514 572.5 519 c 128,-1,36
 576 524 576 524 584 529 c 0,37,38
 603.428571429 541.142857143 603.428571429 541.142857143 615.214285714 545.071428571 c 128,-1,39
 627 549 627 549 638.5 553 c 128,-1,40
 650 557 650 557 729.5 579.5 c 128,-1,41
 809 602 809 602 919 651.5 c 128,-1,42
 1029 701 1029 701 1108 767.5 c 0,43,44
 1262 897.132911392 1262 897.132911392 1262 1084.5664557 c 128,-1,45
 1262 1272 1262 1272 1167.5 1385.5 c 128,-1,46
 1073 1499 1073 1499 926 1499 c 0,47,48
 681.860465116 1499 681.860465116 1499 490 1311.5 c 0,49,50
 468 1290 468 1290 458 1290 c 128,-1,51
 448 1290 448 1290 412.5 1323.5 c 128,-1,52
 377 1357 377 1357 377 1374.5 c 128,-1,53
 377 1392 377 1392 428 1441 c 128,-1,54
 479 1490 479 1490 558 1543.5 c 0,55,56
 758.08411215 1679 758.08411215 1679 994.042056075 1679 c 128,-1,57
 1230 1679 1230 1679 1383 1538 c 128,-1,58
 1536 1397 1536 1397 1536 1163 c 0,59,60
 1536 817 1536 817 1155 651 c 1,61,62
 1012 592 1012 592 1012 579.571428571 c 0,63,64
 1012 562 1012 562 1114 562 c 1,0,-1
EndSplineSet
Substitution2: "'pnum' Proportional Numbers in Latin lookup 12 subtable" three.p
Substitution2: "'lnum' Lining Figures in Latin lookup 11 subtable" three.u
Substitution2: "'subs' Subscript in Latin lookup 10 subtable" three.sub
Substitution2: "'sups' Superscript in Latin lookup 9 subtable" three.sup
Substitution2: "'dnom' Denominators in Latin lookup 6 subtable" three.denom
Substitution2: "'numr' Numerators in Latin lookup 5 subtable" three.numer
AlternateSubs2: "'aalt' Access All Alternates in Latin lookup 1 subtable" three.p three.u three.sub three.sup three.denom three.numer
AlternateSubs2: "'aalt' Access All Alternates lookup 0 subtable" three.p three.u three.sub three.sup three.denom three.numer
EndChar

StartChar: four
Encoding: 52 52 23
Width: 2048
GlyphClass: 2
Flags: HW
LayerCount: 2
Fore
SplineSet
1294 -889 m 1,0,1
 1237 -889 1237 -889 1237 -823 c 2,2,-1
 1237 -61 l 2,3,4
 1237 -29 1237 -29 1228.5 -20.5 c 128,-1,5
 1220 -12 1220 -12 1184 -12 c 2,6,-1
 238 -12 l 2,7,8
 152 -12 152 -12 152 30.5 c 128,-1,9
 152 73 152 73 191 147 c 128,-1,10
 230 221 230 221 291 305.5 c 0,11,12
 397.613949716 453.186536902 397.613949716 453.186536902 500 573 c 1,13,-1
 1044 1229 l 2,14,15
 1045 1231 1045 1231 1080 1270.5 c 128,-1,16
 1115 1310 1115 1310 1149 1349 c 128,-1,17
 1183 1388 1183 1388 1232 1440.5 c 128,-1,18
 1281 1493 1281 1493 1320.5 1532 c 0,19,20
 1415.70512821 1626 1415.70512821 1626 1446 1626 c 0,21,22
 1511 1626 1511 1626 1511 1507 c 2,23,-1
 1511 295 l 2,24,25
 1511 249 1511 249 1517.5 241 c 128,-1,26
 1524 233 1524 233 1561 233 c 2,27,-1
 1798 233 l 2,28,29
 1833.11764706 233 1833.11764706 233 1836.05882353 220.5 c 128,-1,30
 1839 208 1839 208 1839 193 c 2,31,-1
 1839 29 l 2,32,33
 1839 -2 1839 -2 1833 -7 c 128,-1,34
 1827 -12 1827 -12 1790 -12 c 2,35,-1
 1565 -12 l 2,36,37
 1523.66666667 -12 1523.66666667 -12 1521.33333333 -26 c 128,-1,38
 1519 -40 1519 -40 1537.5 -423.5 c 128,-1,39
 1556 -807 1556 -807 1556 -824.5 c 0,40,41
 1556 -866.225 1556 -866.225 1479 -872 c 1,42,-1
 1294 -889 l 1,0,1
459 340 m 2,43,44
 456 336 456 336 430.5 305.5 c 128,-1,45
 405 275 405 275 404.5 256 c 0,46,47
 403.969014085 235.822535211 403.969014085 235.822535211 483 233 c 1,48,-1
 1171 233 l 2,49,50
 1220 233 1220 233 1228.5 242.5 c 128,-1,51
 1237 252 1237 252 1237 303 c 2,52,-1
 1237 1188 l 2,53,54
 1237 1251 1237 1251 1226.5 1253.5 c 128,-1,55
 1216 1256 1216 1256 1196 1231 c 128,-1,56
 1176 1206 1176 1206 1171 1200 c 2,57,-1
 459 340 l 2,43,44
EndSplineSet
Substitution2: "'pnum' Proportional Numbers in Latin lookup 12 subtable" four.p
Substitution2: "'lnum' Lining Figures in Latin lookup 11 subtable" four.u
Substitution2: "'subs' Subscript in Latin lookup 10 subtable" four.sub
Substitution2: "'sups' Superscript in Latin lookup 9 subtable" four.sup
Substitution2: "'dnom' Denominators in Latin lookup 6 subtable" four.denom
Substitution2: "'numr' Numerators in Latin lookup 5 subtable" four.numer
AlternateSubs2: "'aalt' Access All Alternates in Latin lookup 1 subtable" four.p four.u four.sub four.sup four.denom four.numer
AlternateSubs2: "'aalt' Access All Alternates lookup 0 subtable" four.p four.u four.sub four.sup four.denom four.numer
EndChar

StartChar: five
Encoding: 53 53 24
Width: 2048
GlyphClass: 2
Flags: HW
LayerCount: 2
Fore
SplineSet
630.625 1614 m 2,0,-1
 643 1614 l 2,1,2
 650 1614 650 1614 815 1605 c 0,3,4
 1328.33333333 1577 1328.33333333 1577 1456.66666667 1577 c 128,-1,5
 1585 1577 1585 1577 1592.5 1584.5 c 128,-1,6
 1600 1592 1600 1592 1609.5 1619 c 0,7,8
 1636.59259259 1696 1636.59259259 1696 1651 1696 c 2,9,-1
 1667 1696 l 2,10,11
 1733 1696 1733 1696 1733 1659 c 1,12,13
 1718 1441 1718 1441 1716 1376 c 1,14,15
 1712 1294 1712 1294 1561 1294 c 128,-1,16
 1410 1294 1410 1294 1284.5 1300.5 c 128,-1,17
 1159 1307 1159 1307 1002.5 1318 c 128,-1,18
 846 1329 846 1329 772.5 1332 c 128,-1,19
 699 1335 699 1335 689 1328.5 c 128,-1,20
 679 1322 679 1322 636.5 1110.5 c 128,-1,21
 594 899 594 899 594 881 c 128,-1,22
 594 863 594 863 595 860.5 c 128,-1,23
 596 858 596 858 599 856.5 c 128,-1,24
 602 855 602 855 604.5 854.5 c 128,-1,25
 607 854 607 854 614 853.5 c 128,-1,26
 621 853 621 853 706.5 844.5 c 128,-1,27
 792 836 792 836 925.5 805.5 c 128,-1,28
 1059 775 1059 775 1182 716 c 128,-1,29
 1305 657 1305 657 1388 573.5 c 0,30,31
 1569 391.409638554 1569 391.409638554 1569 78 c 0,32,33
 1569 -242.44 1569 -242.44 1316 -500.5 c 0,34,35
 1073.95053004 -747.390459364 1073.95053004 -747.390459364 664 -875.5 c 0,36,37
 528 -918 528 -918 482 -918 c 128,-1,38
 436 -918 436 -918 427 -900 c 128,-1,39
 418 -882 418 -882 418 -837 c 128,-1,40
 418 -792 418 -792 426 -778.5 c 128,-1,41
 434 -765 434 -765 477.5 -757.5 c 128,-1,42
 521 -750 521 -750 588.5 -729 c 128,-1,43
 656 -708 656 -708 734.5 -672 c 128,-1,44
 813 -636 813 -636 885 -591.5 c 128,-1,45
 957 -547 957 -547 1025 -484 c 128,-1,46
 1093 -421 1093 -421 1143 -349.5 c 0,47,48
 1253 -192.2 1253 -192.2 1253 -29.6 c 128,-1,49
 1253 133 1253 133 1212 230.5 c 128,-1,50
 1171 328 1171 328 1099.5 393.5 c 128,-1,51
 1028 459 1028 459 928 503 c 0,52,53
 739.363636364 586 739.363636364 586 471 586 c 0,54,55
 397 586 397 586 397 647 c 0,56,57
 397 679.24 397 679.24 481 1063.12 c 128,-1,58
 565 1447 565 1447 578 1517.5 c 128,-1,59
 591 1588 591 1588 593.5 1593 c 128,-1,60
 596 1598 596 1598 598.5 1601.5 c 128,-1,61
 601 1605 601 1605 605.5 1607.5 c 128,-1,62
 610 1610 610 1610 612 1611.5 c 0,63,64
 615.333333333 1614 615.333333333 1614 630.625 1614 c 2,0,-1
EndSplineSet
Substitution2: "'pnum' Proportional Numbers in Latin lookup 12 subtable" five.p
Substitution2: "'lnum' Lining Figures in Latin lookup 11 subtable" five.u
Substitution2: "'subs' Subscript in Latin lookup 10 subtable" five.sub
Substitution2: "'sups' Superscript in Latin lookup 9 subtable" five.sup
Substitution2: "'dnom' Denominators in Latin lookup 6 subtable" five.denom
Substitution2: "'numr' Numerators in Latin lookup 5 subtable" five.numer
AlternateSubs2: "'aalt' Access All Alternates in Latin lookup 1 subtable" five.p five.u five.sub five.sup five.denom five.numer
AlternateSubs2: "'aalt' Access All Alternates lookup 0 subtable" five.p five.u five.sub five.sup five.denom five.numer
EndChar

StartChar: six
Encoding: 54 54 25
Width: 2048
GlyphClass: 2
Flags: HW
LayerCount: 2
Fore
SplineSet
244.5 524 m 128,-1,1
 184 711 184 711 184 920 c 128,-1,2
 184 1129 184 1129 225.5 1304.5 c 128,-1,3
 267 1480 267 1480 337.5 1624.5 c 128,-1,4
 408 1769 408 1769 501.5 1903.5 c 128,-1,5
 595 2038 595 2038 698 2143 c 128,-1,6
 801 2248 801 2248 908 2339 c 128,-1,7
 1015 2430 1015 2430 1113 2494.5 c 128,-1,8
 1211 2559 1211 2559 1293.5 2605 c 0,9,10
 1454.91304348 2695 1454.91304348 2695 1493.45652174 2695 c 128,-1,11
 1532 2695 1532 2695 1554.5 2659.5 c 128,-1,12
 1577 2624 1577 2624 1577 2600 c 128,-1,13
 1577 2576 1577 2576 1495 2541.5 c 128,-1,14
 1413 2507 1413 2507 1306 2436.5 c 128,-1,15
 1199 2366 1199 2366 1116.5 2290 c 128,-1,16
 1034 2214 1034 2214 958.5 2126 c 128,-1,17
 883 2038 883 2038 829 1958.5 c 128,-1,18
 775 1879 775 1879 728 1795 c 0,19,20
 649.044524669 1653.88808664 649.044524669 1653.88808664 611.022262335 1557.44404332 c 128,-1,21
 573 1461 573 1461 573 1447.5 c 128,-1,22
 573 1434 573 1434 585.5 1434 c 128,-1,23
 598 1434 598 1434 715 1456.5 c 128,-1,24
 832 1479 832 1479 1014 1479 c 128,-1,25
 1196 1479 1196 1479 1339.5 1427.5 c 128,-1,26
 1483 1376 1483 1376 1589 1285 c 0,27,28
 1819 1087.54716981 1819 1087.54716981 1819 774 c 0,29,30
 1819 398.133928571 1819 398.133928571 1576 179 c 0,31,32
 1340.91089109 -33 1340.91089109 -33 999 -33 c 0,33,34
 636.776859504 -33 636.776859504 -33 413.5 216 c 0,35,0
 305 337 305 337 244.5 524 c 128,-1,1
502.5 1131 m 128,-1,37
 483 1036 483 1036 483 879 c 128,-1,38
 483 722 483 722 503.5 624 c 128,-1,39
 524 526 524 526 570 434 c 128,-1,40
 616 342 616 342 681.5 272.5 c 0,41,42
 826.165467626 119 826.165467626 119 1057 119 c 0,43,44
 1256.44099379 119 1256.44099379 119 1388 298.5 c 0,45,46
 1516 473.144067797 1516 473.144067797 1516 654.072033898 c 128,-1,47
 1516 835 1516 835 1477.5 956.5 c 128,-1,48
 1439 1078 1439 1078 1363 1170 c 0,49,50
 1202.73913043 1364 1202.73913043 1364 889 1364 c 0,51,52
 733 1364 733 1364 652 1346 c 128,-1,53
 571 1328 571 1328 565 1323.5 c 128,-1,54
 559 1319 559 1319 554 1317.5 c 128,-1,55
 549 1316 549 1316 545 1308.5 c 128,-1,56
 541 1301 541 1301 539 1298 c 128,-1,57
 537 1295 537 1295 534 1283 c 128,-1,58
 531 1271 531 1271 530 1266 c 0,59,36
 522 1226 522 1226 502.5 1131 c 128,-1,37
EndSplineSet
Substitution2: "'pnum' Proportional Numbers in Latin lookup 12 subtable" six.p
Substitution2: "'lnum' Lining Figures in Latin lookup 11 subtable" six.u
Substitution2: "'subs' Subscript in Latin lookup 10 subtable" six.sub
Substitution2: "'sups' Superscript in Latin lookup 9 subtable" six.sup
Substitution2: "'dnom' Denominators in Latin lookup 6 subtable" six.denom
Substitution2: "'numr' Numerators in Latin lookup 5 subtable" six.numer
AlternateSubs2: "'aalt' Access All Alternates in Latin lookup 1 subtable" six.p six.u six.sub six.sup six.denom six.numer
AlternateSubs2: "'aalt' Access All Alternates lookup 0 subtable" six.p six.u six.sub six.sup six.denom six.numer
EndChar

StartChar: seven
Encoding: 55 55 26
Width: 2048
GlyphClass: 2
Flags: HW
LayerCount: 2
Fore
SplineSet
332 1135 m 0,0,1
 332 1141.5 332 1141.5 351.5 1335.75 c 128,-1,2
 371 1530 371 1530 379 1613.5 c 128,-1,3
 387 1697 387 1697 398.5 1710.5 c 128,-1,4
 410 1724 410 1724 456 1724 c 128,-1,5
 502 1724 502 1724 513 1711.5 c 128,-1,6
 524 1699 524 1699 524 1659 c 2,7,-1
 524 1638 l 2,8,9
 524 1622 524 1622 1184 1622 c 2,10,-1
 1864 1622 l 2,11,12
 1946 1622 1946 1622 1946 1573 c 0,13,14
 1946 1562 1946 1562 1840.5 1364.5 c 128,-1,15
 1735 1167 1735 1167 1403.5 520.5 c 0,16,17
 674.610208817 -901 674.610208817 -901 647 -901 c 0,18,19
 607 -901 607 -901 547 -860 c 128,-1,20
 487 -819 487 -819 487 -774 c 0,21,22
 487 -750.443946188 487 -750.443946188 1045.5 211.278026906 c 128,-1,23
 1604 1173 1604 1173 1640 1235.5 c 128,-1,24
 1676 1298 1676 1298 1682.5 1309.5 c 128,-1,25
 1689 1321 1689 1321 1691.5 1325.5 c 0,26,27
 1701 1342.6 1701 1342.6 1701 1351.3 c 128,-1,28
 1701 1360 1701 1360 1681 1360 c 2,29,-1
 831 1360 l 2,30,31
 488.590909091 1360 488.590909091 1360 483 1319 c 2,32,-1
 459 1122 l 2,33,34
 454.733333333 1090 454.733333333 1090 393.366666667 1090 c 128,-1,35
 332 1090 332 1090 332 1135 c 0,0,1
EndSplineSet
Substitution2: "'pnum' Proportional Numbers in Latin lookup 12 subtable" seven.p
Substitution2: "'lnum' Lining Figures in Latin lookup 11 subtable" seven.u
Substitution2: "'subs' Subscript in Latin lookup 10 subtable" seven.sub
Substitution2: "'sups' Superscript in Latin lookup 9 subtable" seven.sup
Substitution2: "'dnom' Denominators in Latin lookup 6 subtable" seven.denom
Substitution2: "'numr' Numerators in Latin lookup 5 subtable" seven.numer
AlternateSubs2: "'aalt' Access All Alternates in Latin lookup 1 subtable" seven.p seven.u seven.sub seven.sup seven.denom seven.numer
AlternateSubs2: "'aalt' Access All Alternates lookup 0 subtable" seven.p seven.u seven.sub seven.sup seven.denom seven.numer
EndChar

StartChar: eight
Encoding: 56 56 27
Width: 2048
GlyphClass: 2
Flags: HW
LayerCount: 2
Fore
SplineSet
339 360 m 128,-1,1
 279 486 279 486 279 604 c 128,-1,2
 279 722 279 722 298.5 804 c 128,-1,3
 318 886 318 886 345.5 945.5 c 128,-1,4
 373 1005 373 1005 419 1061 c 128,-1,5
 465 1117 465 1117 502 1151 c 128,-1,6
 539 1185 539 1185 593.5 1221.5 c 0,7,8
 726.494880546 1310.56996587 726.494880546 1310.56996587 758.747440273 1319.78498294 c 128,-1,9
 791 1329 791 1329 791 1331 c 128,-1,10
 791 1333 791 1333 784 1337.5 c 0,11,12
 315 1639 315 1639 315 2028 c 0,13,14
 315 2313.30526316 315 2313.30526316 522 2510.5 c 0,15,16
 728.270718232 2707 728.270718232 2707 1024 2707 c 0,17,18
 1297.19375 2707 1297.19375 2707 1488.5 2536 c 0,19,20
 1683 2362.1452514 1683 2362.1452514 1683 2081 c 0,21,22
 1683 1723.28571429 1683 1723.28571429 1355.5 1480 c 0,23,24
 1307.66666667 1444.46666667 1307.66666667 1444.46666667 1272.33333333 1419.23333333 c 128,-1,25
 1237 1394 1237 1394 1237 1390.5 c 128,-1,26
 1237 1387 1237 1387 1252 1376.5 c 128,-1,27
 1267 1366 1267 1366 1317 1337.5 c 128,-1,28
 1367 1309 1367 1309 1396 1291 c 128,-1,29
 1425 1273 1425 1273 1479 1232.5 c 128,-1,30
 1533 1192 1533 1192 1567.5 1156 c 128,-1,31
 1602 1120 1602 1120 1645 1062 c 128,-1,32
 1688 1004 1688 1004 1713 944 c 0,33,34
 1774 797.6 1774 797.6 1774 631 c 0,35,36
 1774 333 1774 333 1565 148 c 128,-1,37
 1356 -37 1356 -37 1016 -37 c 0,38,39
 715.427745665 -37 715.427745665 -37 500 147.5 c 0,40,0
 399 234 399 234 339 360 c 128,-1,1
520 672 m 0,41,42
 520 417 520 417 661 259.5 c 128,-1,43
 802 102 802 102 1032 102 c 0,44,45
 1166 102 1166 102 1271 177.5 c 0,46,47
 1483 329.938095238 1483 329.938095238 1483 627 c 0,48,49
 1483 834.382716049 1483 834.382716049 1369.5 967.5 c 0,50,51
 1261.21706587 1094.49850299 1261.21706587 1094.49850299 1004 1233 c 1,52,53
 920 1282 920 1282 903.5 1280.5 c 0,54,55
 871.46031746 1277.58730159 871.46031746 1277.58730159 804.73015873 1227.29365079 c 128,-1,56
 738 1177 738 1177 709 1149 c 128,-1,57
 680 1121 680 1121 644 1073 c 128,-1,58
 608 1025 608 1025 582 970 c 0,59,60
 520 838.846153846 520 838.846153846 520 672 c 0,41,42
856 1602 m 0,61,62
 987.938888889 1500.18888889 987.938888889 1500.18888889 1053.46944444 1470.59444444 c 128,-1,63
 1119 1441 1119 1441 1126 1437.5 c 128,-1,64
 1133 1434 1133 1434 1138 1434 c 128,-1,65
 1143 1434 1143 1434 1216 1499.5 c 128,-1,66
 1289 1565 1289 1565 1382 1734 c 128,-1,67
 1475 1903 1475 1903 1475 2048 c 0,68,69
 1475 2307 1475 2307 1347.5 2450 c 128,-1,70
 1220 2593 1220 2593 1016 2593 c 0,71,72
 883 2593 883 2593 782 2522 c 0,73,74
 578 2378.59405941 578 2378.59405941 578 2098.40814081 c 128,-1,75
 578 1818.22222222 578 1818.22222222 856 1602 c 0,61,62
EndSplineSet
Substitution2: "'pnum' Proportional Numbers in Latin lookup 12 subtable" eight.p
Substitution2: "'lnum' Lining Figures in Latin lookup 11 subtable" eight.u
Substitution2: "'subs' Subscript in Latin lookup 10 subtable" eight.sub
Substitution2: "'sups' Superscript in Latin lookup 9 subtable" eight.sup
Substitution2: "'dnom' Denominators in Latin lookup 6 subtable" eight.denom
Substitution2: "'numr' Numerators in Latin lookup 5 subtable" eight.numer
AlternateSubs2: "'aalt' Access All Alternates in Latin lookup 1 subtable" eight.p eight.u eight.sub eight.sup eight.denom eight.numer
AlternateSubs2: "'aalt' Access All Alternates lookup 0 subtable" eight.p eight.u eight.sub eight.sup eight.denom eight.numer
EndChar

StartChar: nine
Encoding: 57 57 28
Width: 2048
GlyphClass: 2
Flags: HW
LayerCount: 2
Fore
SplineSet
317 465 m 128,-1,1
 233 627 233 627 233 806 c 128,-1,2
 233 985 233 985 273.5 1114.5 c 128,-1,3
 314 1244 314 1244 387.5 1340 c 128,-1,4
 461 1436 461 1436 560.5 1504.5 c 0,5,6
 760.226277372 1642 760.226277372 1642 1036 1642 c 0,7,8
 1391.43568465 1642 1391.43568465 1642 1625.5 1393.5 c 0,9,10
 1868 1136.04405286 1868 1136.04405286 1868 664 c 0,11,12
 1868 415 1868 415 1784.5 194.5 c 128,-1,13
 1701 -26 1701 -26 1569 -180.5 c 128,-1,14
 1437 -335 1437 -335 1271.5 -463.5 c 128,-1,15
 1106 -592 1106 -592 945 -671.5 c 128,-1,16
 784 -751 784 -751 637.5 -806 c 0,17,18
 373.8 -905 373.8 -905 291 -905 c 0,19,20
 274 -905 274 -905 260 -859.5 c 128,-1,21
 246 -814 246 -814 246 -786 c 0,22,23
 246 -779 246 -779 299 -760.5 c 128,-1,24
 352 -742 352 -742 441.5 -709 c 128,-1,25
 531 -676 531 -676 642.5 -627.5 c 128,-1,26
 754 -579 754 -579 877.5 -500 c 128,-1,27
 1001 -421 1001 -421 1114.5 -322.5 c 0,28,29
 1372.60510716 -98.5056999544 1372.60510716 -98.5056999544 1491 233 c 0,30,31
 1505 275 1505 275 1497 276 c 128,-1,32
 1489 277 1489 277 1424 237 c 128,-1,33
 1359 197 1359 197 1223 158 c 128,-1,34
 1087 119 1087 119 904 119 c 128,-1,35
 721 119 721 119 561 211 c 128,-1,0
 401 303 401 303 317 465 c 128,-1,1
556.5 1119 m 0,36,37
 524 1008 524 1008 524 896.5 c 128,-1,38
 524 785 524 785 545.5 697.5 c 128,-1,39
 567 610 567 610 610.5 532.5 c 128,-1,40
 654 455 654 455 715 396.5 c 0,41,42
 846.905982906 270 846.905982906 270 1042.95299145 270 c 128,-1,43
 1239 270 1239 270 1369 327.5 c 128,-1,44
 1499 385 1499 385 1548 475 c 1,45,46
 1573 527.272727273 1573 527.272727273 1573 674.636363636 c 128,-1,47
 1573 822 1573 822 1554.5 933.5 c 128,-1,48
 1536 1045 1536 1045 1494.5 1147.5 c 128,-1,49
 1453 1250 1453 1250 1393 1326.5 c 0,50,51
 1260.84313725 1495 1260.84313725 1495 1049 1495 c 0,52,53
 666.59009009 1495 666.59009009 1495 556.5 1119 c 0,36,37
EndSplineSet
Substitution2: "'pnum' Proportional Numbers in Latin lookup 12 subtable" nine.p
Substitution2: "'lnum' Lining Figures in Latin lookup 11 subtable" nine.u
Substitution2: "'subs' Subscript in Latin lookup 10 subtable" nine.sub
Substitution2: "'sups' Superscript in Latin lookup 9 subtable" nine.sup
Substitution2: "'dnom' Denominators in Latin lookup 6 subtable" nine.denom
Substitution2: "'numr' Numerators in Latin lookup 5 subtable" nine.numer
AlternateSubs2: "'aalt' Access All Alternates in Latin lookup 1 subtable" nine.p nine.u nine.sub nine.sup nine.denom nine.numer
AlternateSubs2: "'aalt' Access All Alternates lookup 0 subtable" nine.p nine.u nine.sub nine.sup nine.denom nine.numer
EndChar

StartChar: less
Encoding: 60 60 31
Width: 2158
GlyphClass: 2
Flags: HW
LayerCount: 2
Fore
SplineSet
1917 1573 m 0,0,1
 2007 1573 2007 1573 2007 1458 c 0,2,3
 2007 1407 2007 1407 1933 1380 c 2,4,-1
 643 926 l 2,5,6
 503 876 503 876 479 852 c 1,7,8
 490.466666667 840.533333333 490.466666667 840.533333333 555.733333333 819.766666667 c 128,-1,9
 621 799 621 799 643 791 c 2,10,-1
 1954 332 l 1,11,12
 2007 317 2007 317 2007 273 c 128,-1,13
 2007 229 2007 229 1979 192.5 c 128,-1,14
 1951 156 1951 156 1915.5 156 c 128,-1,15
 1880 156 1880 156 1818 177.5 c 128,-1,16
 1756 199 1756 199 1270.5 376 c 128,-1,17
 785 553 785 553 221 758 c 1,18,19
 179 772 179 772 167.5 794 c 128,-1,20
 156 816 156 816 156 852.5 c 128,-1,21
 156 889 156 889 159 902 c 0,22,23
 166.716621253 935.438692098 166.716621253 935.438692098 225 958 c 1,24,25
 1049 1258 1049 1258 1445 1404.5 c 0,26,27
 1900.46757679 1573 1900.46757679 1573 1917 1573 c 0,0,1
EndSplineSet
EndChar

StartChar: greater
Encoding: 62 62 33
Width: 2158
GlyphClass: 2
Flags: HW
LayerCount: 2
Fore
SplineSet
205 332 m 1,0,-1
 1520 791 l 1,1,2
 1674 843 1674 843 1683 852 c 1,3,4
 1663 872 1663 872 1520 926 c 1,5,-1
 225 1380 l 2,6,7
 156 1405 156 1405 156 1458 c 0,8,9
 156 1573 156 1573 242 1573 c 0,10,11
 259.418181818 1573 259.418181818 1573 677.709090909 1417.5 c 128,-1,12
 1096 1262 1096 1262 1933 958 c 0,13,14
 1980 940 1980 940 1993.5 920.5 c 128,-1,15
 2007 901 2007 901 2007 859.5 c 128,-1,16
 2007 818 2007 818 1993.5 795 c 128,-1,17
 1980 772 1980 772 1937 758 c 1,18,19
 1373 553 1373 553 887.5 376 c 0,20,21
 284.053672316 156 284.053672316 156 254.026836158 156 c 128,-1,22
 224 156 224 156 198.5 176.5 c 0,23,24
 156 210.666666667 156 210.666666667 156 264.651515152 c 128,-1,25
 156 318.636363636 156 318.636363636 205 332 c 1,0,-1
EndSplineSet
EndChar

StartChar: question
Encoding: 63 63 34
Width: 1490
GlyphClass: 2
Flags: HW
LayerCount: 2
Fore
SplineSet
233 2662 m 2,0,1
 233 2744 233 2744 283 2744 c 0,2,3
 319.980769231 2744 319.980769231 2744 344.5 2669 c 0,4,5
 353 2643 353 2643 360 2642 c 0,6,7
 608 2601 608 2601 753 2552 c 0,8,9
 1380 2338 1380 2338 1380 1716 c 0,10,11
 1380 1316.68292683 1380 1316.68292683 1213.5 1138 c 0,12,13
 1076.52272727 991 1076.52272727 991 811 991 c 0,14,15
 754 991 754 991 739 983 c 0,16,17
 714.913140312 970.153674833 714.913140312 970.153674833 701.456570156 749.076837416 c 128,-1,18
 688 528 688 528 677.5 522 c 128,-1,19
 667 516 667 516 619.5 516 c 128,-1,20
 572 516 572 516 560.5 526 c 128,-1,21
 549 536 549 536 549 596.5 c 0,22,23
 549 1122.33333333 549 1122.33333333 554.5 1199.16666667 c 128,-1,24
 560 1276 560 1276 585 1291.5 c 128,-1,25
 610 1307 610 1307 672 1307 c 2,26,-1
 918 1307 l 2,27,28
 1239.23636364 1307 1239.23636364 1307 1260 1592.5 c 0,29,30
 1262 1620 1262 1620 1262 1708 c 128,-1,31
 1262 1796 1262 1796 1206.5 1917 c 128,-1,32
 1151 2038 1151 2038 1040 2137 c 0,33,34
 803.586472603 2347.85530822 803.586472603 2347.85530822 314.5 2407.5 c 0,35,36
 259.790890269 2414.17184265 259.790890269 2414.17184265 251.395445135 2425.08592133 c 0,37,38
 233 2449 233 2449 233 2478 c 2,39,-1
 233 2662 l 2,0,1
465.5 27.5 m 128,-1,41
 381 100 381 100 381 150 c 128,-1,42
 381 200 381 200 412.5 260.5 c 128,-1,43
 444 321 444 321 490 365.5 c 128,-1,44
 536 410 536 410 575 410 c 128,-1,45
 614 410 614 410 670.5 383.5 c 128,-1,46
 727 357 727 357 773 307.5 c 128,-1,47
 819 258 819 258 819 201 c 128,-1,48
 819 144 819 144 783.5 83.5 c 128,-1,49
 748 23 748 23 705.5 -11 c 128,-1,50
 663 -45 663 -45 606.5 -45 c 128,-1,40
 550 -45 550 -45 465.5 27.5 c 128,-1,41
EndSplineSet
Position2: "'cpsp' Capital Spacing in Latin lookup 0 subtable" dx=16 dy=0 dh=33 dv=0
EndChar

StartChar: at
Encoding: 64 64 35
Width: 3256
GlyphClass: 2
Flags: HW
LayerCount: 2
Fore
SplineSet
1536 467 m 1,0,1
 1286 217 1286 217 1073 217 c 0,2,3
 991 217 991 217 932.5 269.5 c 0,4,5
 823 367.769230769 823 367.769230769 823 569 c 0,6,7
 823 821.133333333 823 821.133333333 1118.5 1202 c 0,8,9
 1350.00558719 1500.38497905 1350.00558719 1500.38497905 1645 1595.5 c 0,10,11
 1752 1630 1752 1630 1818.5 1630 c 128,-1,12
 1885 1630 1885 1630 1915 1624 c 128,-1,13
 1945 1618 1945 1618 1965 1612 c 128,-1,14
 1985 1606 1985 1606 1989.5 1608 c 128,-1,15
 1994 1610 1994 1610 2032 1657 c 128,-1,16
 2070 1704 2070 1704 2093 1718.5 c 128,-1,17
 2116 1733 2116 1733 2159 1733 c 0,18,19
 2273 1733 2273 1733 2273 1667 c 0,20,21
 2273 1636 2273 1636 2261 1606 c 1,22,23
 2126 1315 2126 1315 1968 935.5 c 128,-1,24
 1810 556 1810 556 1810 471 c 0,25,26
 1810 391.571428571 1810 391.571428571 1821 379.785714286 c 0,27,28
 1843.2 356 1843.2 356 1880 356 c 0,29,30
 2050 356 2050 356 2256 456.5 c 128,-1,31
 2462 557 2462 557 2616 711 c 0,32,33
 2916 1011 2916 1011 2916 1380 c 0,34,35
 2916 1918.40322581 2916 1918.40322581 2522 2144 c 0,36,37
 2282.73239437 2281 2282.73239437 2281 1929 2281 c 0,38,39
 1515.7591623 2281 1515.7591623 2281 1151.5 2080.5 c 0,40,41
 795.639209226 1884.62273476 795.639209226 1884.62273476 579 1538 c 0,42,43
 356 1181.2 356 1181.2 356 741 c 0,44,45
 356 499 356 499 447 294.5 c 128,-1,46
 538 90 538 90 690.5 -45.5 c 0,47,48
 1012.94464945 -332 1012.94464945 -332 1458 -332 c 0,49,50
 2021.14285714 -332 2021.14285714 -332 2454 -29 c 0,51,52
 2584 62 2584 62 2672.5 145.5 c 128,-1,53
 2761 229 2761 229 2786 229 c 128,-1,54
 2811 229 2811 229 2833 197 c 128,-1,55
 2855 165 2855 165 2855 146 c 128,-1,56
 2855 127 2855 127 2830 102 c 1,57,58
 2574 -176 2574 -176 2212.5 -325.5 c 128,-1,59
 1851 -475 1851 -475 1446 -475 c 0,60,61
 1120.58695652 -475 1120.58695652 -475 833.5 -333 c 0,62,63
 550.61691023 -193.079331942 550.61691023 -193.079331942 374.5 85 c 0,64,65
 193 371.578947368 193 371.578947368 193 766 c 0,66,67
 193 1447.62424242 193 1447.62424242 734 1946 c 0,68,69
 1060.86775018 2247.1145335 1060.86775018 2247.1145335 1492 2363.5 c 0,70,71
 1705 2421 1705 2421 1902 2421 c 128,-1,72
 2099 2421 2099 2421 2262 2388 c 128,-1,73
 2425 2355 2425 2355 2573.5 2278.5 c 128,-1,74
 2722 2202 2722 2202 2829.5 2087.5 c 0,75,76
 3064 1837.73023256 3064 1837.73023256 3064 1409 c 0,77,78
 3064 937.004651163 3064 937.004651163 2708.5 603 c 0,79,80
 2512.70694273 419.045592705 2512.70694273 419.045592705 2215 308.5 c 0,81,82
 1947.03960396 209 1947.03960396 209 1675 209 c 0,83,84
 1520 209 1520 209 1520 311 c 0,85,86
 1520 377 1520 377 1536 467 c 1,0,1
1155.5 823 m 128,-1,88
 1122 708 1122 708 1122 619.5 c 128,-1,89
 1122 531 1122 531 1166.5 478.5 c 128,-1,90
 1211 426 1211 426 1284 426 c 128,-1,91
 1357 426 1357 426 1444.5 519.5 c 128,-1,92
 1532 613 1532 613 1605 749.5 c 128,-1,93
 1678 886 1678 886 1740 1031 c 128,-1,94
 1802 1176 1802 1176 1837 1287.5 c 128,-1,95
 1872 1399 1872 1399 1872 1434 c 128,-1,96
 1872 1469 1872 1469 1835 1494.5 c 128,-1,97
 1798 1520 1798 1520 1751.5 1520 c 128,-1,98
 1705 1520 1705 1520 1639 1482.5 c 128,-1,99
 1573 1445 1573 1445 1503.5 1381 c 128,-1,100
 1434 1317 1434 1317 1365.5 1226.5 c 128,-1,101
 1297 1136 1297 1136 1243 1037 c 128,-1,87
 1189 938 1189 938 1155.5 823 c 128,-1,88
EndSplineSet
EndChar

StartChar: A
Encoding: 65 65 36
Width: 2859
GlyphClass: 2
Flags: HW
LayerCount: 2
Fore
SplineSet
479 -12 m 1,0,-1
 168 -25 l 1,1,2
 127 -25 127 -25 119 -10.5 c 128,-1,3
 111 4 111 4 111 54 c 128,-1,4
 111 104 111 104 122.5 113.5 c 128,-1,5
 134 123 134 123 184 123 c 2,6,-1
 307 123 l 2,7,8
 343.579710145 123 343.579710145 123 850.5 1357.5 c 0,9,10
 893 1461 893 1461 897 1470 c 2,11,-1
 1331 2478 l 1,12,13
 1347 2520 1347 2520 1401.5 2586.5 c 128,-1,14
 1456 2653 1456 2653 1487 2721 c 0,15,16
 1533.79777553 2823.65318504 1533.79777553 2823.65318504 1569 2826 c 1,17,18
 1610.6 2826 1610.6 2826 1618 2789 c 1,19,-1
 2109 1409 l 1,20,21
 2573 123 2573 123 2601 123 c 2,22,-1
 2744 123 l 2,23,24
 2773 123 2773 123 2781 109.5 c 128,-1,25
 2789 96 2789 96 2789 52 c 128,-1,26
 2789 8 2789 8 2781 -8.5 c 128,-1,27
 2773 -25 2773 -25 2744 -25 c 2,28,-1
 2363 -12 l 1,29,-1
 1892 -25 l 2,30,31
 1856 -25 1856 -25 1847.5 -9.5 c 128,-1,32
 1839 6 1839 6 1839 55 c 128,-1,33
 1839 104 1839 104 1849.5 113.5 c 128,-1,34
 1860 123 1860 123 1909 123 c 2,35,-1
 2134 123 l 2,36,37
 2138 123 2138 123 2138 152 c 128,-1,38
 2138 181 2138 181 2035.5 499 c 128,-1,39
 1933 817 1933 817 1884.5 956 c 128,-1,40
 1836 1095 1836 1095 1828 1104.5 c 128,-1,41
 1820 1114 1820 1114 1790 1114 c 2,42,-1
 963 1114 l 2,43,44
 920 1114 920 1114 906.5 1103 c 128,-1,45
 893 1092 893 1092 877 1049 c 0,46,47
 549 220 549 220 545 127 c 1,48,-1
 549 123 l 1,49,-1
 864 123 l 2,50,51
 898 123 898 123 905.5 110.5 c 128,-1,52
 913 98 913 98 913 66 c 128,-1,53
 913 34 913 34 912.5 24.5 c 128,-1,54
 912 15 912 15 910 2.5 c 128,-1,55
 908 -10 908 -10 902.5 -14.5 c 0,56,57
 889.666666667 -25 889.666666667 -25 864 -25 c 2,58,-1
 479 -12 l 1,0,-1
1745 1237 m 2,59,60
 1782 1237 1782 1237 1782 1249.5 c 128,-1,61
 1782 1262 1782 1262 1769 1294 c 1,62,-1
 1430 2290 l 1,63,64
 1416 2339 1416 2339 1407 2339 c 128,-1,65
 1398 2339 1398 2339 1380 2290 c 1,66,-1
 979 1307 l 2,67,68
 958 1256 958 1256 958 1246.5 c 128,-1,69
 958 1237 958 1237 1012 1237 c 2,70,-1
 1745 1237 l 2,59,60
EndSplineSet
Substitution2: "'c2sc' Capitals to Small Capitals in Latin lookup 14 subtable" A.c2
AlternateSubs2: "'aalt' Access All Alternates in Latin lookup 1 subtable" A.c2
AlternateSubs2: "'aalt' Access All Alternates lookup 0 subtable" A.c2
Position2: "'cpsp' Capital Spacing in Latin lookup 0 subtable" dx=16 dy=0 dh=33 dv=0
EndChar

StartChar: B
Encoding: 66 66 37
Width: 2424
GlyphClass: 2
Flags: HW
LayerCount: 2
Fore
SplineSet
700 -12 m 1,0,-1
 262 -25 l 1,1,2
 220 -25 220 -25 208.5 -9 c 128,-1,3
 197 7 197 7 197 54.5 c 128,-1,4
 197 102 197 102 213.5 112.5 c 128,-1,5
 230 123 230 123 283 123 c 2,6,-1
 496 123 l 2,7,8
 508 123 508 123 508 283 c 2,9,-1
 508 1606 l 2,10,11
 508 1958 508 1958 497.5 2271.5 c 128,-1,12
 487 2585 487 2585 475 2585 c 2,13,-1
 225 2576 l 1,14,15
 185 2576 185 2576 168.5 2592 c 128,-1,16
 152 2608 152 2608 152 2657.5 c 128,-1,17
 152 2707 152 2707 166.5 2719.5 c 128,-1,18
 181 2732 181 2732 225 2732 c 2,19,-1
 709 2724 l 1,20,-1
 1212 2736 l 1,21,22
 1768.07586207 2736 1768.07586207 2736 2004 2464.5 c 0,23,24
 2134 2314.8968254 2134 2314.8968254 2134 2064 c 0,25,26
 2134 1644 2134 1644 1524 1417 c 0,27,28
 1491 1404 1491 1404 1491 1401 c 128,-1,29
 1491 1398 1491 1398 1534 1391.5 c 128,-1,30
 1577 1385 1577 1385 1625 1375.5 c 128,-1,31
 1673 1366 1673 1366 1752 1341.5 c 128,-1,32
 1831 1317 1831 1317 1894 1285.5 c 128,-1,33
 1957 1254 1957 1254 2027 1199 c 128,-1,34
 2097 1144 2097 1144 2144 1076.5 c 0,35,36
 2253 919.957446809 2253 919.957446809 2253 692 c 0,37,38
 2253 -20 2253 -20 1094 -20 c 1,39,-1
 700 -12 l 1,0,-1
901 1323 m 2,40,41
 868 1323 868 1323 868 1290 c 0,42,43
 868 123 868 123 897 123 c 2,44,-1
 1143 123 l 2,45,46
 1868 123 1868 123 1868 721 c 0,47,48
 1868 943 1868 943 1786.5 1081 c 128,-1,49
 1705 1219 1705 1219 1551 1271 c 128,-1,50
 1397 1323 1397 1323 1040 1323 c 2,51,-1
 901 1323 l 2,40,41
1155 1438 m 1,52,-1
 1290 1434 l 1,53,54
 1434.76595745 1434 1434.76595745 1434 1587 1569 c 0,55,56
 1765 1726.8490566 1765 1726.8490566 1765 1999 c 0,57,58
 1765 2193 1765 2193 1673 2336.5 c 0,59,60
 1487.39721254 2626 1487.39721254 2626 1053 2626 c 0,61,62
 919 2626 919 2626 885 2609 c 1,63,64
 868 2598.375 868 2598.375 868 1663 c 2,65,-1
 868 1466 l 2,66,67
 868 1447 868 1447 875.5 1442.5 c 128,-1,68
 883 1438 883 1438 922 1438 c 2,69,-1
 1155 1438 l 1,52,-1
EndSplineSet
Substitution2: "'c2sc' Capitals to Small Capitals in Latin lookup 14 subtable" B.c2
AlternateSubs2: "'aalt' Access All Alternates in Latin lookup 1 subtable" B.c2
AlternateSubs2: "'aalt' Access All Alternates lookup 0 subtable" B.c2
Position2: "'cpsp' Capital Spacing in Latin lookup 0 subtable" dx=16 dy=0 dh=33 dv=0
EndChar

StartChar: C
Encoding: 67 67 38
Width: 2994
GlyphClass: 2
Flags: HW
LayerCount: 2
Fore
SplineSet
2634 909 m 1,0,-1
 2679 905 l 2,1,2
 2740 899.916666667 2740 899.916666667 2740 860 c 0,3,4
 2740 800 2740 800 2675 295 c 0,5,6
 2670 260 2670 260 2576.5 198.5 c 128,-1,7
 2483 137 2483 137 2341.5 75 c 0,8,9
 1992.31451613 -78 1992.31451613 -78 1622 -78 c 0,10,11
 1237.68627451 -78 1237.68627451 -78 909.5 76.5 c 0,12,13
 581.605195455 230.862784909 581.605195455 230.862784909 379.5 553 c 0,14,15
 172 883.736040609 172 883.736040609 172 1372 c 0,16,17
 172 2136.7967033 172 2136.7967033 768 2544.5 c 0,18,19
 1138.57831325 2798 1138.57831325 2798 1647 2798 c 0,20,21
 2089.21818182 2798 2089.21818182 2798 2463 2527.5 c 0,22,23
 2501 2500 2501 2500 2511.5 2492 c 128,-1,24
 2522 2484 2522 2484 2532.5 2479.5 c 128,-1,25
 2543 2475 2543 2475 2547.5 2480.5 c 128,-1,26
 2552 2486 2552 2486 2552 2503 c 2,27,-1
 2552 2613 l 2,28,29
 2552 2652 2552 2652 2565.5 2665.5 c 128,-1,30
 2579 2679 2579 2679 2627.5 2679 c 128,-1,31
 2676 2679 2676 2679 2698 2666 c 128,-1,32
 2720 2653 2720 2653 2720 2613 c 2,33,-1
 2703 1802 l 2,34,35
 2703 1764 2703 1764 2687.5 1754.5 c 128,-1,36
 2672 1745 2672 1745 2620.5 1745 c 128,-1,37
 2569 1745 2569 1745 2552 1755.5 c 128,-1,38
 2535 1766 2535 1766 2535 1798 c 1,39,-1
 2552 2175 l 1,40,41
 2552 2221.29479769 2552 2221.29479769 2421.5 2326.14739884 c 128,-1,42
 2291 2431 2291 2431 2182 2495.5 c 0,43,44
 1920.90697674 2650 1920.90697674 2650 1618 2650 c 0,45,46
 1093 2650 1093 2650 799 2135.5 c 0,47,48
 614 1811.75 614 1811.75 614 1364 c 0,49,50
 614 1110 614 1110 702.5 878 c 128,-1,51
 791 646 791 646 941 476.5 c 128,-1,52
 1091 307 1091 307 1299.5 206.5 c 128,-1,53
 1508 106 1508 106 1687 106 c 128,-1,54
 1866 106 1866 106 1993.5 130 c 128,-1,55
 2121 154 2121 154 2212 189 c 128,-1,56
 2303 224 2303 224 2375.5 262.5 c 0,57,58
 2520.19482862 339.337943476 2520.19482862 339.337943476 2523 373 c 2,59,-1
 2576 848 l 1,60,61
 2586.45714286 909 2586.45714286 909 2634 909 c 1,0,-1
EndSplineSet
Substitution2: "'c2sc' Capitals to Small Capitals in Latin lookup 14 subtable" C.c2
AlternateSubs2: "'aalt' Access All Alternates in Latin lookup 1 subtable" C.c2
AlternateSubs2: "'aalt' Access All Alternates lookup 0 subtable" C.c2
Position2: "'cpsp' Capital Spacing in Latin lookup 0 subtable" dx=16 dy=0 dh=33 dv=0
EndChar

StartChar: D
Encoding: 68 68 39
Width: 3104
GlyphClass: 2
Flags: HW
LayerCount: 2
Fore
SplineSet
709 -12 m 1,0,-1
 188 -29 l 1,1,2
 151 -29 151 -29 141 -14.5 c 128,-1,3
 131 0 131 0 131 44.5 c 128,-1,4
 131 89 131 89 149 102 c 128,-1,5
 167 115 167 115 213 115 c 2,6,-1
 475 115 l 2,7,8
 491 115 491 115 507.5 1015.5 c 128,-1,9
 524 1916 524 1916 524 2264.5 c 128,-1,10
 524 2613 524 2613 516 2613 c 2,11,-1
 233 2605 l 2,12,13
 201 2605 201 2605 188.5 2615.5 c 128,-1,14
 176 2626 176 2626 176 2667 c 128,-1,15
 176 2708 176 2708 186 2726 c 128,-1,16
 196 2744 196 2744 233 2744 c 2,17,-1
 524 2740 l 1,18,19
 693 2740 693 2740 994 2764.5 c 128,-1,20
 1295 2789 1295 2789 1460.5 2789 c 128,-1,21
 1626 2789 1626 2789 1864.5 2727.5 c 128,-1,22
 2103 2666 2103 2666 2298 2544.5 c 128,-1,23
 2493 2423 2493 2423 2635 2253.5 c 0,24,25
 2933 1897.78873239 2933 1897.78873239 2933 1372 c 0,26,27
 2933 808.751196172 2933 808.751196172 2596.5 432 c 0,28,29
 2291.50245158 90.5194912374 2291.50245158 90.5194912374 1788.5 -0.5 c 0,30,31
 1631 -29 1631 -29 1466 -29 c 1,32,-1
 709 -12 l 1,0,-1
913 2634 m 1,33,34
 885 2623.5 885 2623.5 885 1371.25 c 128,-1,35
 885 119 885 119 889 115 c 1,36,37
 920 102 920 102 1158 102 c 128,-1,38
 1396 102 1396 102 1620.5 159 c 128,-1,39
 1845 216 1845 216 1986.5 299 c 128,-1,40
 2128 382 2128 382 2230.5 513 c 128,-1,41
 2333 644 2333 644 2382.5 752 c 128,-1,42
 2432 860 2432 860 2459 1009.5 c 0,43,44
 2494 1203.2962963 2494 1203.2962963 2494 1386.14814815 c 128,-1,45
 2494 1569 2494 1569 2455 1717 c 128,-1,46
 2416 1865 2416 1865 2344.5 2002 c 128,-1,47
 2273 2139 2273 2139 2164.5 2258.5 c 128,-1,48
 2056 2378 2056 2378 1924 2467 c 0,49,50
 1640.71910112 2658 1640.71910112 2658 1274 2658 c 0,51,52
 1016 2658 1016 2658 913 2634 c 1,33,34
EndSplineSet
Substitution2: "'c2sc' Capitals to Small Capitals in Latin lookup 14 subtable" D.c2
AlternateSubs2: "'aalt' Access All Alternates in Latin lookup 1 subtable" D.c2
AlternateSubs2: "'aalt' Access All Alternates lookup 0 subtable" D.c2
Position2: "'cpsp' Capital Spacing in Latin lookup 0 subtable" dx=16 dy=0 dh=33 dv=0
EndChar

StartChar: E
Encoding: 69 69 40
Width: 2478
GlyphClass: 2
Flags: HW
LayerCount: 2
Fore
SplineSet
717 -12 m 1,0,-1
 217 -25 l 1,1,2
 175 -25 175 -25 163.5 -9 c 128,-1,3
 152 7 152 7 152 53.5 c 128,-1,4
 152 100 152 100 167.5 111.5 c 128,-1,5
 183 123 183 123 233 123 c 2,6,-1
 483 123 l 2,7,8
 500 123 500 123 500 418 c 2,9,-1
 500 811 l 1,10,-1
 483 2015 l 1,11,12
 483 2296.17647059 483 2296.17647059 468.5 2444.58823529 c 128,-1,13
 454 2593 454 2593 446 2593 c 2,14,-1
 254 2593 l 2,15,16
 213 2593 213 2593 198.5 2605 c 128,-1,17
 184 2617 184 2617 184 2676.5 c 128,-1,18
 184 2736 184 2736 238 2736 c 1,19,-1
 418 2730 l 2,20,21
 598 2724 598 2724 684 2724 c 2,22,-1
 1716 2736 l 1,23,24
 1924 2736 1924 2736 1944 2742 c 0,25,26
 1965 2748.3 1965 2748.3 1965 2769 c 1,27,28
 1966 2774 1966 2774 1968 2786.5 c 128,-1,29
 1970 2799 1970 2799 1972 2806.5 c 128,-1,30
 1974 2814 1974 2814 1980.5 2824 c 0,31,32
 1990.25 2839 1990.25 2839 2034.625 2839 c 128,-1,33
 2079 2839 2079 2839 2096.5 2828.5 c 128,-1,34
 2114 2818 2114 2818 2114 2781 c 1,35,-1
 2097 2241 l 2,36,37
 2097 2212 2097 2212 2081 2203.5 c 128,-1,38
 2065 2195 2065 2195 2019 2195 c 0,39,40
 1946 2195 1946 2195 1946 2257 c 1,41,-1
 1958 2572 l 2,42,43
 1958 2583 1958 2583 1567 2592 c 128,-1,44
 1176 2601 1176 2601 864 2601 c 0,45,46
 840 2601 840 2601 840 2259 c 128,-1,47
 840 1917 840 1917 844 1693 c 128,-1,48
 848 1469 848 1469 853.5 1461.5 c 128,-1,49
 859 1454 859 1454 885 1454 c 2,50,-1
 1569 1454 l 2,51,52
 1782 1454 1782 1454 1782 1507 c 2,53,-1
 1782 1720 l 2,54,55
 1782 1761 1782 1761 1857.5 1761 c 128,-1,56
 1933 1761 1933 1761 1933 1724 c 2,57,-1
 1925 1397 l 1,58,-1
 1933 1049 l 2,59,60
 1933 1012 1933 1012 1857.5 1012 c 128,-1,61
 1782 1012 1782 1012 1782 1053 c 2,62,-1
 1782 1257 l 2,63,64
 1782 1319 1782 1319 1569 1319 c 0,65,66
 1222 1319 1222 1319 1047 1319 c 128,-1,67
 872 1319 872 1319 866.5 1318.5 c 128,-1,68
 861 1318 861 1318 859 1316 c 128,-1,69
 857 1314 857 1314 854 1310.5 c 128,-1,70
 851 1307 851 1307 850.5 1301.5 c 128,-1,71
 850 1296 850 1296 849 1288.5 c 128,-1,72
 848 1281 848 1281 860.514925373 716.5 c 128,-1,73
 873.029850746 152 873.029850746 152 893 152 c 2,74,-1
 2146 164 l 2,75,76
 2167 164 2167 164 2172 176 c 128,-1,77
 2177 188 2177 188 2182 244 c 128,-1,78
 2187 300 2187 300 2195 610 c 0,79,80
 2195 647 2195 647 2271 647 c 128,-1,81
 2347 647 2347 647 2347 606 c 2,82,-1
 2335 33 l 1,83,84
 2335 -25 2335 -25 2253 -25 c 2,85,-1
 717 -12 l 1,0,-1
EndSplineSet
Substitution2: "'c2sc' Capitals to Small Capitals in Latin lookup 14 subtable" E.c2
AlternateSubs2: "'aalt' Access All Alternates in Latin lookup 1 subtable" E.c2
AlternateSubs2: "'aalt' Access All Alternates lookup 0 subtable" E.c2
Position2: "'cpsp' Capital Spacing in Latin lookup 0 subtable" dx=16 dy=0 dh=33 dv=0
EndChar

StartChar: F
Encoding: 70 70 41
Width: 2252
GlyphClass: 2
Flags: HW
LayerCount: 2
Fore
SplineSet
467 811 m 1,0,-1
 451 2015 l 1,1,2
 451 2296.17647059 451 2296.17647059 436.5 2444.58823529 c 128,-1,3
 422 2593 422 2593 414 2593 c 2,4,-1
 233 2593 l 2,5,6
 167.483870968 2593 167.483870968 2593 159.741935484 2617 c 128,-1,7
 152 2641 152 2641 152 2666 c 0,8,9
 152 2736 152 2736 205 2736 c 1,10,-1
 385 2730 l 2,11,12
 565 2724 565 2724 651 2724 c 2,13,-1
 1712 2736 l 1,14,15
 1907 2736 1907 2736 1939.5 2740 c 0,16,17
 1974 2744.24615385 1974 2744.24615385 1976.5 2781.62307692 c 128,-1,18
 1979 2819 1979 2819 1993 2829 c 128,-1,19
 2007 2839 2007 2839 2046 2839 c 128,-1,20
 2085 2839 2085 2839 2103.5 2827.5 c 128,-1,21
 2122 2816 2122 2816 2122 2781 c 1,22,-1
 2105 2241 l 2,23,24
 2105 2212 2105 2212 2089 2203.5 c 128,-1,25
 2073 2195 2073 2195 2028 2195 c 0,26,27
 1954 2195 1954 2195 1954 2257 c 1,28,-1
 1966 2576 l 1,29,30
 1791 2601 1791 2601 831 2601 c 0,31,32
 807 2601 807 2601 807 2148 c 128,-1,33
 807 1695 807 1695 811 1578 c 128,-1,34
 815 1461 815 1461 818.5 1457.5 c 128,-1,35
 822 1454 822 1454 868 1454 c 2,36,-1
 1577 1454 l 2,37,38
 1790 1454 1790 1454 1790 1507 c 2,39,-1
 1790 1724 l 2,40,41
 1790 1761 1790 1761 1872 1761 c 0,42,43
 1927.71428571 1761 1927.71428571 1761 1934.85714286 1751 c 128,-1,44
 1942 1741 1942 1741 1942 1729 c 2,45,-1
 1933 1397 l 1,46,-1
 1942 1004 l 2,47,48
 1942 971 1942 971 1866 971 c 128,-1,49
 1790 971 1790 971 1790 1008 c 2,50,-1
 1790 1257 l 2,51,52
 1790 1305.25274725 1790 1305.25274725 1720.5 1312.12637363 c 128,-1,53
 1651 1319 1651 1319 1577 1319 c 2,54,-1
 868 1319 l 2,55,56
 826 1319 826 1319 820.5 1312 c 128,-1,57
 815 1305 815 1305 817 1178 c 128,-1,58
 819 1051 819 1051 822.5 739 c 0,59,60
 829.41025641 123 829.41025641 123 840 123 c 2,61,-1
 1171 123 l 2,62,63
 1207 123 1207 123 1218 109 c 128,-1,64
 1229 95 1229 95 1229 52 c 128,-1,65
 1229 9 1229 9 1218 -8 c 128,-1,66
 1207 -25 1207 -25 1171 -25 c 2,67,-1
 680 -12 l 1,68,-1
 250 -25 l 1,69,70
 209 -25 209 -25 198.5 -9.5 c 128,-1,71
 188 6 188 6 188 54 c 128,-1,72
 188 102 188 102 204.5 112.5 c 128,-1,73
 221 123 221 123 274 123 c 2,74,-1
 446 123 l 2,75,76
 467 123 467 123 467 418 c 2,77,-1
 467 811 l 1,0,-1
EndSplineSet
Substitution2: "'c2sc' Capitals to Small Capitals in Latin lookup 14 subtable" F.c2
AlternateSubs2: "'aalt' Access All Alternates in Latin lookup 1 subtable" F.c2
AlternateSubs2: "'aalt' Access All Alternates lookup 0 subtable" F.c2
Position2: "'cpsp' Capital Spacing in Latin lookup 0 subtable" dx=16 dy=0 dh=33 dv=0
EndChar

StartChar: G
Encoding: 71 71 42
Width: 3129
GlyphClass: 2
Flags: HW
LayerCount: 2
Fore
SplineSet
2765 664 m 1,0,-1
 2761 299 l 2,1,2
 2761 235.991304348 2761 235.991304348 2518 124 c 0,3,4
 2062.33962264 -86 2062.33962264 -86 1622 -86 c 0,5,6
 1139.36956522 -86 1139.36956522 -86 784.5 134 c 0,7,8
 396.589013757 374.483899827 396.589013757 374.483899827 250.5 829.5 c 0,9,10
 172 1074 172 1074 172 1357 c 128,-1,11
 172 1640 172 1640 248 1868.5 c 128,-1,12
 324 2097 324 2097 460.5 2264.5 c 128,-1,13
 597 2432 597 2432 784 2550 c 0,14,15
 1156.41525424 2785 1156.41525424 2785 1671 2785 c 0,16,17
 2150.2 2785 2150.2 2785 2503 2540 c 1,18,19
 2552 2502 2552 2502 2552 2544 c 2,20,-1
 2552 2646 l 2,21,22
 2552 2685 2552 2685 2565.5 2698.5 c 128,-1,23
 2579 2712 2579 2712 2627 2712 c 128,-1,24
 2675 2712 2675 2712 2695.5 2699 c 128,-1,25
 2716 2686 2716 2686 2716 2646 c 2,26,-1
 2703 1888 l 2,27,28
 2703 1850 2703 1850 2687 1838.5 c 128,-1,29
 2671 1827 2671 1827 2620 1827 c 128,-1,30
 2569 1827 2569 1827 2552 1837.5 c 128,-1,31
 2535 1848 2535 1848 2535 1880 c 1,32,-1
 2552 2216 l 1,33,34
 2552 2264.48648649 2552 2264.48648649 2373.5 2406 c 0,35,36
 2065.72727273 2650 2065.72727273 2650 1655 2650 c 0,37,38
 1438 2650 1438 2650 1245.5 2552 c 128,-1,39
 1053 2454 1053 2454 914.5 2284.5 c 128,-1,40
 776 2115 776 2115 695 1875.5 c 128,-1,41
 614 1636 614 1636 614 1398 c 128,-1,42
 614 1160 614 1160 667 965 c 128,-1,43
 720 770 720 770 821 607.5 c 128,-1,44
 922 445 922 445 1058 322 c 0,45,46
 1346.58536585 61 1346.58536585 61 1737 61 c 0,47,48
 2081.65625 61 2081.65625 61 2292 188 c 0,49,50
 2389.31291391 246.754966887 2389.31291391 246.754966887 2392 279 c 0,51,52
 2404 384 2404 384 2404 636.5 c 128,-1,53
 2404 889 2404 889 2376 889 c 2,54,-1
 2019 889 l 2,55,56
 1974 889 1974 889 1974 962.5 c 128,-1,57
 1974 1036 1974 1036 2015 1036 c 2,58,-1
 2564 1024 l 1,59,-1
 2933 1036 l 1,60,61
 2978 1036 2978 1036 2978 962.5 c 128,-1,62
 2978 889 2978 889 2933 889 c 2,63,-1
 2806 889 l 2,64,65
 2780 889 2780 889 2772.5 839.5 c 128,-1,66
 2765 790 2765 790 2765 664 c 1,0,-1
EndSplineSet
Substitution2: "'c2sc' Capitals to Small Capitals in Latin lookup 14 subtable" G.c2
AlternateSubs2: "'aalt' Access All Alternates in Latin lookup 1 subtable" G.c2
AlternateSubs2: "'aalt' Access All Alternates lookup 0 subtable" G.c2
Position2: "'cpsp' Capital Spacing in Latin lookup 0 subtable" dx=16 dy=0 dh=33 dv=0
EndChar

StartChar: H
Encoding: 72 72 43
Width: 3239
GlyphClass: 2
Flags: HW
LayerCount: 2
Fore
SplineSet
700 -12 m 1,0,-1
 209 -25 l 1,1,2
 168 -25 168 -25 160 -10.5 c 128,-1,3
 152 4 152 4 152 54 c 128,-1,4
 152 104 152 104 163.5 113.5 c 128,-1,5
 175 123 175 123 225 123 c 2,6,-1
 463 123 l 2,7,8
 487 123 487 123 487 1167 c 2,9,-1
 487 1585 l 2,10,11
 487 2605 487 2605 467 2605 c 2,12,-1
 287 2605 l 2,13,14
 243 2605 243 2605 224 2618 c 128,-1,15
 205 2631 205 2631 205 2679 c 128,-1,16
 205 2727 205 2727 223 2740 c 128,-1,17
 241 2753 241 2753 287 2753 c 1,18,-1
 668 2740 l 1,19,-1
 1110 2753 l 1,20,21
 1151 2753 1151 2753 1161 2737 c 128,-1,22
 1171 2721 1171 2721 1171 2672.5 c 128,-1,23
 1171 2624 1171 2624 1158 2614.5 c 128,-1,24
 1145 2605 1145 2605 1094 2605 c 2,25,-1
 868 2605 l 2,26,27
 848 2605 848 2605 848 2068 c 1,28,-1
 852 1528 l 2,29,30
 852 1482 852 1482 858 1474 c 128,-1,31
 864 1466 864 1466 901 1466 c 2,32,-1
 2396 1466 l 2,33,34
 2433 1466 2433 1466 2439 1472.5 c 128,-1,35
 2445 1479 2445 1479 2445 1516 c 2,36,-1
 2445 2015 l 2,37,38
 2445 2222 2445 2222 2435 2413.5 c 128,-1,39
 2425 2605 2425 2605 2413 2605 c 2,40,-1
 2179 2605 l 2,41,42
 2139 2605 2139 2605 2124 2618.5 c 128,-1,43
 2109 2632 2109 2632 2109 2680 c 128,-1,44
 2109 2728 2109 2728 2120.5 2740.5 c 128,-1,45
 2132 2753 2132 2753 2175 2753 c 1,46,-1
 2613 2740 l 1,47,-1
 3011 2753 l 1,48,49
 3052 2753 3052 2753 3062 2737 c 128,-1,50
 3072 2721 3072 2721 3072 2672.5 c 128,-1,51
 3072 2624 3072 2624 3058.5 2614.5 c 128,-1,52
 3045 2605 3045 2605 2994 2605 c 2,53,-1
 2814 2605 l 2,54,55
 2802 2605 2802 2605 2802 1364 c 128,-1,56
 2802 123 2802 123 2818 123 c 2,57,-1
 3035 123 l 2,58,59
 3070 123 3070 123 3079 110 c 128,-1,60
 3088 97 3088 97 3088 52.5 c 128,-1,61
 3088 8 3088 8 3079 -8.5 c 128,-1,62
 3070 -25 3070 -25 3035 -25 c 1,63,-1
 2646 -12 l 1,64,-1
 2183 -25 l 1,65,66
 2142 -25 2142 -25 2132 -9.5 c 128,-1,67
 2122 6 2122 6 2122 54.5 c 128,-1,68
 2122 103 2122 103 2135.5 113 c 128,-1,69
 2149 123 2149 123 2200 123 c 2,70,-1
 2425 123 l 2,71,72
 2445 123 2445 123 2445 786 c 2,73,-1
 2445 1294 l 2,74,75
 2445 1329 2445 1329 2441 1336 c 128,-1,76
 2437 1343 2437 1343 2421 1343 c 2,77,-1
 889 1343 l 2,78,79
 861 1343 861 1343 856.5 1336 c 128,-1,80
 852 1329 852 1329 852 1286 c 0,81,82
 852 123 852 123 889 123 c 2,83,-1
 1159 123 l 2,84,85
 1193 123 1193 123 1200.5 110.5 c 128,-1,86
 1208 98 1208 98 1208 66 c 128,-1,87
 1208 34 1208 34 1207.5 24.5 c 128,-1,88
 1207 15 1207 15 1205 2.5 c 128,-1,89
 1203 -10 1203 -10 1197.5 -14.5 c 0,90,91
 1184.66666667 -25 1184.66666667 -25 1159 -25 c 2,92,-1
 700 -12 l 1,0,-1
EndSplineSet
Substitution2: "'c2sc' Capitals to Small Capitals in Latin lookup 14 subtable" H.c2
AlternateSubs2: "'aalt' Access All Alternates in Latin lookup 1 subtable" H.c2
AlternateSubs2: "'aalt' Access All Alternates lookup 0 subtable" H.c2
Position2: "'cpsp' Capital Spacing in Latin lookup 0 subtable" dx=16 dy=0 dh=33 dv=0
EndChar

StartChar: I
Encoding: 73 73 44
Width: 1363
GlyphClass: 2
Flags: HW
LayerCount: 2
Fore
SplineSet
705 -12 m 1,0,-1
 180 -25 l 1,1,2
 137 -25 137 -25 124 -8.5 c 128,-1,3
 111 8 111 8 111 55 c 128,-1,4
 111 102 111 102 127.5 112.5 c 128,-1,5
 144 123 144 123 197 123 c 2,6,-1
 467 123 l 2,7,8
 504 123 504 123 504 1614 c 2,9,-1
 504 2015 l 2,10,11
 504 2302.9375 504 2302.9375 490.5 2453.96875 c 128,-1,12
 477 2605 477 2605 471 2605 c 2,13,-1
 201 2605 l 2,14,15
 159 2605 159 2605 143 2617.5 c 128,-1,16
 127 2630 127 2630 127 2679 c 128,-1,17
 127 2728 127 2728 142 2740.5 c 128,-1,18
 157 2753 157 2753 201 2753 c 1,19,-1
 713 2740 l 1,20,21
 1196 2753 l 2,22,23
 1232 2753 1232 2753 1242.5 2736.5 c 128,-1,24
 1253 2720 1253 2720 1253 2672 c 128,-1,25
 1253 2624 1253 2624 1241.5 2614.5 c 128,-1,26
 1230 2605 1230 2605 1180 2605 c 2,27,-1
 913 2605 l 2,28,29
 877 2605 877 2605 877 1970 c 2,30,-1
 877 1417 l 2,31,32
 877 123 877 123 913 123 c 2,33,-1
 1196 123 l 2,34,35
 1231 123 1231 123 1242 109 c 128,-1,36
 1253 95 1253 95 1253 52 c 128,-1,37
 1253 9 1253 9 1242 -8 c 128,-1,38
 1231 -25 1231 -25 1196 -25 c 2,39,-1
 705 -12 l 1,0,-1
EndSplineSet
Substitution2: "'c2sc' Capitals to Small Capitals in Latin lookup 14 subtable" I.c2
AlternateSubs2: "'aalt' Access All Alternates in Latin lookup 1 subtable" I.c2
AlternateSubs2: "'aalt' Access All Alternates lookup 0 subtable" I.c2
Position2: "'cpsp' Capital Spacing in Latin lookup 0 subtable" dx=16 dy=0 dh=33 dv=0
EndChar

StartChar: J
Encoding: 74 74 45
Width: 1363
GlyphClass: 2
Flags: HW
LayerCount: 2
Fore
SplineSet
725 2740 m 1,0,-1
 1151 2753 l 1,1,2
 1192 2753 1192 2753 1202 2737 c 128,-1,3
 1212 2721 1212 2721 1212 2672.5 c 128,-1,4
 1212 2624 1212 2624 1199 2614.5 c 128,-1,5
 1186 2605 1186 2605 1135 2605 c 2,6,-1
 926 2605 l 2,7,8
 905 2605 905 2605 905 1516 c 2,9,-1
 905 532 l 2,10,11
 905 107.739726027 905 107.739726027 814.5 -165 c 0,12,13
 729.145771934 -422.2319202 729.145771934 -422.2319202 549 -614 c 0,14,15
 400.972477064 -771.896024465 400.972477064 -771.896024465 331.486238532 -809.948012232 c 0,16,17
 201.739130435 -881 201.739130435 -881 107.369565217 -881 c 128,-1,18
 13 -881 13 -881 -61 -851 c 128,-1,19
 -135 -821 -135 -821 -135 -768.5 c 128,-1,20
 -135 -716 -135 -716 -95 -662 c 128,-1,21
 -55 -608 -55 -608 -3.5 -573.5 c 0,22,23
 112.188405797 -496 112.188405797 -496 150.094202899 -496 c 128,-1,24
 188 -496 188 -496 257 -539 c 128,-1,25
 326 -582 326 -582 362.5 -582 c 128,-1,26
 399 -582 399 -582 424 -566.5 c 128,-1,27
 449 -551 449 -551 465.5 -515 c 128,-1,28
 482 -479 482 -479 492.5 -437 c 128,-1,29
 503 -395 503 -395 508 -324.5 c 0,30,31
 516 -211.7 516 -211.7 516 -20 c 2,32,-1
 516 2015 l 2,33,34
 516 2605 516 2605 479 2605 c 2,35,-1
 209 2605 l 2,36,37
 165 2605 165 2605 146 2618 c 128,-1,38
 127 2631 127 2631 127 2679 c 128,-1,39
 127 2727 127 2727 145 2740 c 128,-1,40
 163 2753 163 2753 209 2753 c 1,41,-1
 725 2740 l 1,0,-1
EndSplineSet
Substitution2: "'c2sc' Capitals to Small Capitals in Latin lookup 14 subtable" J.c2
AlternateSubs2: "'aalt' Access All Alternates in Latin lookup 1 subtable" J.c2
AlternateSubs2: "'aalt' Access All Alternates lookup 0 subtable" J.c2
Position2: "'cpsp' Capital Spacing in Latin lookup 0 subtable" dx=16 dy=0 dh=33 dv=0
EndChar

StartChar: K
Encoding: 75 75 46
Width: 2662
GlyphClass: 2
Flags: HW
LayerCount: 2
Fore
SplineSet
692 -12 m 1,0,-1
 213 -25 l 1,1,2
 172 -25 172 -25 162 -9.5 c 128,-1,3
 152 6 152 6 152 54 c 128,-1,4
 152 102 152 102 168.5 112.5 c 128,-1,5
 185 123 185 123 238 123 c 2,6,-1
 455 123 l 2,7,8
 483 123 483 123 483 807 c 2,9,-1
 483 1995 l 2,10,11
 483 2585 483 2585 459 2585 c 2,12,-1
 270 2585 l 2,13,14
 205.032258065 2585 205.032258065 2585 196.516129032 2609 c 128,-1,15
 188 2633 188 2633 188 2669.5 c 128,-1,16
 188 2706 188 2706 206 2719 c 128,-1,17
 224 2732 224 2732 270 2732 c 1,18,-1
 700 2720 l 1,19,-1
 1143 2732 l 1,20,21
 1184 2732 1184 2732 1194 2716.5 c 128,-1,22
 1204 2701 1204 2701 1204 2652.5 c 128,-1,23
 1204 2604 1204 2604 1190.5 2594.5 c 128,-1,24
 1177 2585 1177 2585 1126 2585 c 2,25,-1
 901 2585 l 2,26,27
 881 2585 881 2585 866.5 2362 c 128,-1,28
 852 2139 852 2139 852 1950 c 2,29,-1
 852 1438 l 2,30,31
 852 1392 852 1392 858 1380 c 128,-1,32
 864 1368 864 1368 893 1368 c 2,33,-1
 983 1368 l 2,34,35
 1050.01654135 1368 1050.01654135 1368 1642 2158.5 c 0,36,37
 1891 2491 1891 2491 1915 2522 c 0,38,39
 1963.77419355 2585 1963.77419355 2585 1896 2585 c 2,40,-1
 1733 2585 l 2,41,42
 1668.03225806 2585 1668.03225806 2585 1659.51612903 2609 c 128,-1,43
 1651 2633 1651 2633 1651 2669.5 c 128,-1,44
 1651 2706 1651 2706 1669 2719 c 128,-1,45
 1687 2732 1687 2732 1733 2732 c 1,46,-1
 2093 2720 l 1,47,-1
 2433 2732 l 1,48,49
 2474 2732 2474 2732 2482 2717 c 128,-1,50
 2490 2702 2490 2702 2490 2653 c 128,-1,51
 2490 2604 2490 2604 2478.5 2594.5 c 128,-1,52
 2467 2585 2467 2585 2417 2585 c 2,53,-1
 2220 2585 l 2,54,55
 2202.62637363 2585 2202.62637363 2585 1777.31318681 2073.5 c 128,-1,56
 1352 1562 1352 1562 1327.5 1534 c 128,-1,57
 1303 1506 1303 1506 1303 1501.5 c 128,-1,58
 1303 1497 1303 1497 1317 1482.5 c 128,-1,59
 1331 1468 1331 1468 1339 1458 c 2,60,-1
 2441 188 l 1,61,62
 2500.26470588 123 2500.26470588 123 2560 123 c 2,63,-1
 2626 123 l 2,64,65
 2660 123 2660 123 2667.5 110.5 c 128,-1,66
 2675 98 2675 98 2675 66 c 128,-1,67
 2675 34 2675 34 2674.5 24.5 c 128,-1,68
 2674 15 2674 15 2672 2.5 c 128,-1,69
 2670 -10 2670 -10 2664.5 -14.5 c 0,70,71
 2651.66666667 -25 2651.66666667 -25 2626 -25 c 2,72,-1
 2208 -12 l 1,73,-1
 1786 -25 l 1,74,75
 1745 -25 1745 -25 1737 -10.5 c 128,-1,76
 1729 4 1729 4 1729 52.5 c 128,-1,77
 1729 101 1729 101 1744 112 c 128,-1,78
 1759 123 1759 123 1802 123 c 2,79,-1
 1937 123 l 2,80,81
 1987.05882353 123 1987.05882353 123 1975 143.5 c 0,82,83
 1966.21621622 158.432432432 1966.21621622 158.432432432 1950 176 c 1,84,-1
 1061 1229 l 2,85,86
 1045 1249 1045 1249 1034 1253 c 128,-1,87
 1023 1257 1023 1257 979 1257 c 2,88,-1
 901 1257 l 2,89,90
 864 1257 864 1257 858 1251.5 c 128,-1,91
 852 1246 852 1246 852 1212 c 0,92,93
 852 123 852 123 889 123 c 2,94,-1
 1184 123 l 2,95,96
 1219 123 1219 123 1230 109 c 128,-1,97
 1241 95 1241 95 1241 51.5 c 128,-1,98
 1241 8 1241 8 1232 -8.5 c 128,-1,99
 1223 -25 1223 -25 1188 -25 c 2,100,-1
 692 -12 l 1,0,-1
EndSplineSet
Substitution2: "'c2sc' Capitals to Small Capitals in Latin lookup 14 subtable" K.c2
AlternateSubs2: "'aalt' Access All Alternates in Latin lookup 1 subtable" K.c2
AlternateSubs2: "'aalt' Access All Alternates lookup 0 subtable" K.c2
Position2: "'cpsp' Capital Spacing in Latin lookup 0 subtable" dx=16 dy=0 dh=33 dv=0
EndChar

StartChar: L
Encoding: 76 76 47
Width: 2424
GlyphClass: 2
Flags: HW
LayerCount: 2
Fore
SplineSet
717 -12 m 1,0,-1
 217 -25 l 1,1,2
 175 -25 175 -25 163.5 -9 c 128,-1,3
 152 7 152 7 152 53.5 c 128,-1,4
 152 100 152 100 167.5 111.5 c 128,-1,5
 183 123 183 123 233 123 c 2,6,-1
 479 123 l 2,7,8
 512 123 512 123 512 1307 c 2,9,-1
 512 2253 l 2,10,11
 512 2605 512 2605 492 2605 c 2,12,-1
 250 2605 l 2,13,14
 207 2605 207 2605 193.5 2619 c 128,-1,15
 180 2633 180 2633 180 2680 c 128,-1,16
 180 2727 180 2727 195.5 2740 c 128,-1,17
 211 2753 211 2753 262 2753 c 1,18,-1
 725 2740 l 1,19,20
 1217 2753 l 1,21,22
 1267 2753 1267 2753 1278.5 2740 c 128,-1,23
 1290 2727 1290 2727 1290 2681.5 c 128,-1,24
 1290 2636 1290 2636 1276 2620.5 c 128,-1,25
 1262 2605 1262 2605 1212 2605 c 2,26,-1
 926 2605 l 2,27,28
 893 2605 893 2605 893 1737 c 2,29,-1
 893 602 l 2,30,31
 893 139 893 139 918 139 c 0,32,33
 1308.91666667 139 1308.91666667 139 1698.95833333 150.5 c 0,34,35
 2104.59930314 162.459930314 2104.59930314 162.459930314 2136.29965157 164.729965157 c 128,-1,36
 2168 167 2168 167 2177.5 177.5 c 128,-1,37
 2187 188 2187 188 2195 246 c 2,38,-1
 2245 598 l 2,39,40
 2251.23170732 641.62195122 2251.23170732 641.62195122 2291.11585366 637.31097561 c 128,-1,41
 2331 633 2331 633 2349 629 c 0,42,43
 2396 618.555555556 2396 618.555555556 2396 586 c 0,44,45
 2396 569.090909091 2396 569.090909091 2356 324.545454545 c 128,-1,46
 2316 80 2316 80 2311.5 38.5 c 128,-1,47
 2307 -3 2307 -3 2287 -14 c 128,-1,48
 2267 -25 2267 -25 2208 -25 c 2,49,-1
 717 -12 l 1,0,-1
EndSplineSet
Substitution2: "'c2sc' Capitals to Small Capitals in Latin lookup 14 subtable" L.c2
Substitution2: "'locl' Localized Forms in Latin lookup 2 subtable" L.CAT
AlternateSubs2: "'aalt' Access All Alternates in Latin lookup 1 subtable" L.c2 L.CAT
AlternateSubs2: "'aalt' Access All Alternates lookup 0 subtable" L.c2
Position2: "'cpsp' Capital Spacing in Latin lookup 0 subtable" dx=16 dy=0 dh=33 dv=0
EndChar

StartChar: M
Encoding: 77 77 48
Width: 3665
GlyphClass: 2
Flags: HW
LayerCount: 2
Fore
SplineSet
537 -12 m 1,0,-1
 197 -25 l 1,1,2
 155 -25 155 -25 143 -8.5 c 128,-1,3
 131 8 131 8 131 55 c 128,-1,4
 131 102 131 102 147.5 112.5 c 128,-1,5
 164 123 164 123 217 123 c 2,6,-1
 385 123 l 2,7,8
 396.106382979 123 396.106382979 123 403.553191489 298 c 128,-1,9
 411 473 411 473 419.5 646 c 128,-1,10
 428 819 428 819 457.5 1597.5 c 128,-1,11
 487 2376 487 2376 487 2483.5 c 128,-1,12
 487 2591 487 2591 476 2598 c 128,-1,13
 465 2605 465 2605 410 2605 c 2,14,-1
 205 2605 l 2,15,16
 176 2605 176 2605 170 2617.5 c 128,-1,17
 164 2630 164 2630 164 2676 c 128,-1,18
 164 2722 164 2722 170 2737.5 c 128,-1,19
 176 2753 176 2753 205 2753 c 2,20,-1
 659 2740 l 1,21,-1
 918 2753 l 1,22,23
 950 2753 950 2753 965 2741.5 c 128,-1,24
 980 2730 980 2730 995 2691 c 2,25,-1
 1855 545 l 2,26,27
 1871.5625 503.59375 1871.5625 503.59375 1880.78125 495.296875 c 128,-1,28
 1890 487 1890 487 1896.5 496 c 0,29,30
 1906.12 509.32 1906.12 509.32 1921 549 c 2,31,-1
 2724 2638 l 2,32,33
 2750 2706 2750 2706 2766.5 2723 c 128,-1,34
 2783 2740 2783 2740 2830 2740 c 2,35,-1
 3027 2740 l 1,36,-1
 3445 2753 l 1,37,38
 3486 2753 3486 2753 3496 2737 c 128,-1,39
 3506 2721 3506 2721 3506 2672.5 c 128,-1,40
 3506 2624 3506 2624 3492.5 2614.5 c 128,-1,41
 3479 2605 3479 2605 3428 2605 c 2,42,-1
 3236 2605 l 1,43,44
 3215 2570 3215 2570 3215 2290 c 2,45,-1
 3215 1921 l 2,46,47
 3215 1349 3215 1349 3234.5 736 c 128,-1,48
 3254 123 3254 123 3277 123 c 2,49,-1
 3490 123 l 2,50,51
 3527 123 3527 123 3541 109.5 c 128,-1,52
 3555 96 3555 96 3555 52.5 c 128,-1,53
 3555 9 3555 9 3544 -8 c 128,-1,54
 3533 -25 3533 -25 3498 -25 c 1,55,-1
 3060 -12 l 1,56,-1
 2621 -25 l 1,57,58
 2579 -25 2579 -25 2567.5 -9 c 128,-1,59
 2556 7 2556 7 2556 54.5 c 128,-1,60
 2556 102 2556 102 2572.5 112.5 c 128,-1,61
 2589 123 2589 123 2642 123 c 2,62,-1
 2826 123 l 2,63,64
 2855 123 2855 123 2855 794.5 c 128,-1,65
 2855 1466 2855 1466 2834 2380 c 1,66,67
 2831 2463 2831 2463 2822 2464 c 0,68,69
 2815 2464 2815 2464 2799.5 2425.5 c 128,-1,70
 2784 2387 2784 2387 2781 2380 c 2,71,-1
 2023 442 l 1,72,73
 1976.92197125 329.515400411 1976.92197125 329.515400411 1904.96098563 225.757700205 c 128,-1,74
 1833 122 1833 122 1803 61 c 0,75,76
 1752.83606557 -41 1752.83606557 -41 1720 -41 c 0,77,78
 1693.18181818 -41 1693.18181818 -41 1665 21 c 0,79,80
 1660 32 1660 32 1656.5 39.5 c 0,81,82
 1643.45454545 67.4545454545 1643.45454545 67.4545454545 1638 82 c 2,83,-1
 684 2437 l 1,84,85
 652 2519 652 2519 643 2519.5 c 128,-1,86
 634 2520 634 2520 627 2433 c 1,87,88
 594 1540 594 1540 594 831.5 c 128,-1,89
 594 123 594 123 614 123 c 2,90,-1
 897 123 l 2,91,92
 932 123 932 123 943 109 c 128,-1,93
 954 95 954 95 954 52 c 128,-1,94
 954 9 954 9 943 -8 c 128,-1,95
 932 -25 932 -25 897 -25 c 1,96,-1
 537 -12 l 1,0,-1
EndSplineSet
Substitution2: "'c2sc' Capitals to Small Capitals in Latin lookup 14 subtable" M.c2
AlternateSubs2: "'aalt' Access All Alternates in Latin lookup 1 subtable" M.c2
AlternateSubs2: "'aalt' Access All Alternates lookup 0 subtable" M.c2
Position2: "'cpsp' Capital Spacing in Latin lookup 0 subtable" dx=16 dy=0 dh=33 dv=0
EndChar

StartChar: N
Encoding: 78 78 49
Width: 3334
GlyphClass: 2
Flags: HW
LayerCount: 2
Fore
SplineSet
557 -12 m 1,0,-1
 213 -25 l 1,1,2
 172 -25 172 -25 162 -9.5 c 128,-1,3
 152 6 152 6 152 54.5 c 128,-1,4
 152 103 152 103 165 113 c 128,-1,5
 178 123 178 123 229 123 c 2,6,-1
 418 123 l 2,7,8
 445 123 445 123 449.5 301.5 c 128,-1,9
 454 480 454 480 461 718 c 0,10,11
 487 1602 487 1602 487 2605 c 1,12,-1
 221 2605 l 2,13,14
 186 2605 186 2605 175 2619 c 128,-1,15
 164 2633 164 2633 164 2676 c 128,-1,16
 164 2719 164 2719 175 2736 c 128,-1,17
 186 2753 186 2753 221 2753 c 2,18,19
 680 2740 l 1,20,-1
 905 2753 l 1,21,22
 922.75 2753 922.75 2753 930.875 2750.5 c 128,-1,23
 939 2748 939 2748 943 2747 c 128,-1,24
 947 2746 947 2746 952 2742 c 128,-1,25
 957 2738 957 2738 960 2736 c 128,-1,26
 963 2734 963 2734 968.5 2728 c 128,-1,27
 974 2722 974 2722 976 2719 c 128,-1,28
 978 2716 978 2716 985 2707.5 c 128,-1,29
 992 2699 992 2699 995 2695 c 2,30,-1
 2658 651 l 2,31,32
 2706.21428571 591.214285714 2706.21428571 591.214285714 2715.60714286 600.607142857 c 0,33,34
 2728 613 2728 613 2728 676 c 2,35,-1
 2728 848 l 1,36,-1
 2720 2388 l 1,37,38
 2720 2605 2720 2605 2716 2605 c 2,39,-1
 2335 2605 l 2,40,41
 2301 2605 2301 2605 2293.5 2617.5 c 128,-1,42
 2286 2630 2286 2630 2286 2662 c 128,-1,43
 2286 2694 2286 2694 2286.5 2703.5 c 128,-1,44
 2287 2713 2287 2713 2289 2725.5 c 128,-1,45
 2291 2738 2291 2738 2296.5 2742.5 c 0,46,47
 2309.33333333 2753 2309.33333333 2753 2335 2753 c 2,48,-1
 2777 2740 l 1,49,-1
 3125 2753 l 1,50,51
 3166 2753 3166 2753 3174.5 2737.5 c 128,-1,52
 3183 2722 3183 2722 3183 2673.5 c 128,-1,53
 3183 2625 3183 2625 3168 2615 c 128,-1,54
 3153 2605 3153 2605 3101 2605 c 2,55,-1
 2916 2605 l 2,56,57
 2900 2605 2900 2605 2899 2350.5 c 128,-1,58
 2898 2096 2898 2096 2885 1518 c 128,-1,59
 2872 940 2872 940 2859.5 481.5 c 128,-1,60
 2847 23 2847 23 2847 16 c 0,61,62
 2847 -86 2847 -86 2793 -86 c 0,63,64
 2767.42424242 -86 2767.42424242 -86 2742.21212121 -54 c 128,-1,65
 2717 -22 2717 -22 2712 -16 c 0,66,67
 696 2433 696 2433 675 2457.5 c 128,-1,68
 654 2482 654 2482 646.5 2477.5 c 0,69,70
 635 2470.6 635 2470.6 635 1933 c 1,71,-1
 631 528 l 1,72,73
 631 123 631 123 647 123 c 2,74,-1
 999 123 l 2,75,76
 1033 123 1033 123 1041 110.5 c 128,-1,77
 1049 98 1049 98 1049 59.5 c 128,-1,78
 1049 21 1049 21 1047 7 c 0,79,80
 1042.42857143 -25 1042.42857143 -25 999 -25 c 1,81,-1
 557 -12 l 1,0,-1
EndSplineSet
Substitution2: "'c2sc' Capitals to Small Capitals in Latin lookup 14 subtable" N.c2
AlternateSubs2: "'aalt' Access All Alternates in Latin lookup 1 subtable" N.c2
AlternateSubs2: "'aalt' Access All Alternates lookup 0 subtable" N.c2
Position2: "'cpsp' Capital Spacing in Latin lookup 0 subtable" dx=16 dy=0 dh=33 dv=0
EndChar

StartChar: O
Encoding: 79 79 50
Width: 3080
GlyphClass: 2
Flags: HW
LayerCount: 2
Fore
SplineSet
225.5 895.5 m 128,-1,1
 172 1087 172 1087 172 1304.5 c 128,-1,2
 172 1522 172 1522 223.5 1722 c 128,-1,3
 275 1922 275 1922 367 2082.5 c 128,-1,4
 459 2243 459 2243 589 2374.5 c 128,-1,5
 719 2506 719 2506 874 2594 c 0,6,7
 1196.32954545 2777 1196.32954545 2777 1577 2777 c 0,8,9
 2172.16981132 2777 2172.16981132 2777 2549.5 2351.5 c 0,10,11
 2908 1947.23404255 2908 1947.23404255 2908 1327 c 0,12,13
 2908 1021 2908 1021 2804.5 762.5 c 128,-1,14
 2701 504 2701 504 2518 324 c 128,-1,15
 2335 144 2335 144 2076.5 43.5 c 128,-1,16
 1818 -57 1818 -57 1584 -57 c 128,-1,17
 1350 -57 1350 -57 1187.5 -17 c 128,-1,18
 1025 23 1025 23 875 98.5 c 128,-1,19
 725 174 725 174 597 291.5 c 128,-1,20
 469 409 469 409 374 556.5 c 128,-1,0
 279 704 279 704 225.5 895.5 c 128,-1,1
582 1396.5 m 0,21,22
 582 1194 582 1194 623 993.5 c 128,-1,23
 664 793 664 793 745 627.5 c 128,-1,24
 826 462 826 462 938 339.5 c 0,25,26
 1173.42857143 82 1173.42857143 82 1520 82 c 0,27,28
 1981.65432099 82 1981.65432099 82 2262 487.5 c 0,29,30
 2507 841.875 2507 841.875 2507 1364 c 0,31,32
 2507 1679.5 2507 1679.5 2401 1971 c 0,33,34
 2295.86792453 2260.11320755 2295.86792453 2260.11320755 2079 2446 c 0,35,36
 1855 2638 1855 2638 1536 2638 c 0,37,38
 1037.16504854 2638 1037.16504854 2638 752 2113.5 c 0,39,40
 582 1800.82142857 582 1800.82142857 582 1396.5 c 0,21,22
EndSplineSet
Substitution2: "'c2sc' Capitals to Small Capitals in Latin lookup 14 subtable" O.c2
AlternateSubs2: "'aalt' Access All Alternates in Latin lookup 1 subtable" O.c2
AlternateSubs2: "'aalt' Access All Alternates lookup 0 subtable" O.c2
Position2: "'cpsp' Capital Spacing in Latin lookup 0 subtable" dx=16 dy=0 dh=33 dv=0
EndChar

StartChar: P
Encoding: 80 80 51
Width: 2310
GlyphClass: 2
Flags: HW
LayerCount: 2
Fore
SplineSet
700 -12 m 1,0,-1
 254 -25 l 1,1,2
 213 -25 213 -25 203 -9.5 c 128,-1,3
 193 6 193 6 193 54 c 128,-1,4
 193 102 193 102 209.5 112.5 c 128,-1,5
 226 123 226 123 279 123 c 2,6,-1
 475 123 l 2,7,8
 512 123 512 123 512 1942 c 2,9,-1
 512 2154 l 2,10,11
 512 2585 512 2585 496 2585 c 2,12,-1
 225 2576 l 1,13,14
 179 2576 179 2576 165.5 2591 c 128,-1,15
 152 2606 152 2606 152 2656.5 c 128,-1,16
 152 2707 152 2707 166.5 2719.5 c 128,-1,17
 181 2732 181 2732 225 2732 c 2,18,-1
 709 2724 l 1,19,-1
 1245 2744 l 1,20,21
 1785 2744 1785 2744 2052 2459 c 0,22,23
 2241 2257.25842697 2241 2257.25842697 2241 1929 c 0,24,25
 2241 1471.35483871 2241 1471.35483871 1849 1288 c 0,26,27
 1609.55172414 1176 1609.55172414 1176 1249 1176 c 1,28,-1
 893 1188 l 2,29,30
 873 1188 873 1188 868.5 1182 c 128,-1,31
 864 1176 864 1176 864 1155 c 2,32,-1
 864 885 l 2,33,34
 864 123 864 123 881 123 c 2,35,-1
 1171 123 l 2,36,37
 1207 123 1207 123 1218 109 c 128,-1,38
 1229 95 1229 95 1229 52 c 128,-1,39
 1229 9 1229 9 1218 -8 c 128,-1,40
 1207 -25 1207 -25 1171 -25 c 2,41,-1
 700 -12 l 1,0,-1
868 1331 m 2,42,43
 868 1290 868 1290 1012 1290 c 128,-1,44
 1156 1290 1156 1290 1279 1312.5 c 128,-1,45
 1402 1335 1402 1335 1511.5 1387.5 c 128,-1,46
 1621 1440 1621 1440 1698 1519.5 c 0,47,48
 1864 1690.88961039 1864 1690.88961039 1864 1991 c 0,49,50
 1864 2181 1864 2181 1751.5 2323.5 c 0,51,52
 1522.94736842 2613 1522.94736842 2613 1012 2613 c 0,53,54
 922 2613 922 2613 885 2609 c 1,55,56
 868 2603 868 2603 868 2400 c 2,57,-1
 868 1331 l 2,42,43
EndSplineSet
Substitution2: "'c2sc' Capitals to Small Capitals in Latin lookup 14 subtable" P.c2
AlternateSubs2: "'aalt' Access All Alternates in Latin lookup 1 subtable" P.c2
AlternateSubs2: "'aalt' Access All Alternates lookup 0 subtable" P.c2
Position2: "'cpsp' Capital Spacing in Latin lookup 0 subtable" dx=16 dy=0 dh=33 dv=0
EndChar

StartChar: Q
Encoding: 81 81 52
Width: 3207
GlyphClass: 2
Flags: HW
LayerCount: 2
Fore
SplineSet
721 -254 m 1,0,-1
 811 -258 l 1,1,2
 932 -258 932 -258 1022 -235.5 c 0,3,4
 1205.66666667 -189.583333333 1205.66666667 -189.583333333 1548 -25 c 0,5,6
 1577 -11 1577 -11 1577 -6 c 128,-1,7
 1577 -1 1577 -1 1475 12.5 c 128,-1,8
 1373 26 1373 26 1229 64.5 c 128,-1,9
 1085 103 1085 103 947 164.5 c 128,-1,10
 809 226 809 226 693.5 306.5 c 128,-1,11
 578 387 578 387 480.5 497.5 c 128,-1,12
 383 608 383 608 315.5 739 c 0,13,14
 172 1017.4962963 172 1017.4962963 172 1393 c 0,15,16
 172 2030.45112782 172 2030.45112782 605 2419.5 c 0,17,18
 862.068761818 2650.47531607 862.068761818 2650.47531607 1236.5 2736 c 0,19,20
 1416 2777 1416 2777 1662.5 2777 c 128,-1,21
 1909 2777 1909 2777 2174 2673 c 128,-1,22
 2439 2569 2439 2569 2628 2387 c 128,-1,23
 2817 2205 2817 2205 2926 1947 c 128,-1,24
 3035 1689 3035 1689 3035 1418.5 c 128,-1,25
 3035 1148 3035 1148 2960.5 926.5 c 128,-1,26
 2886 705 2886 705 2753 532.5 c 0,27,28
 2475.48348379 172.563165061 2475.48348379 172.563165061 2028 45 c 1,29,30
 1864.36088475 -3.84749708964 1864.36088475 -3.84749708964 1601.68044237 -123.923748545 c 128,-1,31
 1339 -244 1339 -244 1332 -247 c 128,-1,32
 1325 -250 1325 -250 1321.5 -252 c 128,-1,33
 1318 -254 1318 -254 1313 -256.5 c 128,-1,34
 1308 -259 1308 -259 1306.5 -260.5 c 128,-1,35
 1305 -262 1305 -262 1303.5 -264 c 128,-1,36
 1302 -266 1302 -266 1304.5 -267.5 c 128,-1,37
 1307 -269 1307 -269 1311 -270.5 c 128,-1,38
 1315 -272 1315 -272 1323.5 -272.5 c 128,-1,39
 1332 -273 1332 -273 1341 -273.5 c 128,-1,40
 1350 -274 1350 -274 1429 -278.5 c 128,-1,41
 1508 -283 1508 -283 1546 -286 c 128,-1,42
 1584 -289 1584 -289 1654 -295 c 0,43,44
 1791.38589212 -306.77593361 1791.38589212 -306.77593361 1888.69294606 -328.387966805 c 128,-1,45
 1986 -350 1986 -350 2146.5 -396 c 0,46,47
 2495.41304348 -496 2495.41304348 -496 2604.20652174 -496 c 128,-1,48
 2713 -496 2713 -496 2797.5 -476 c 128,-1,49
 2882 -456 2882 -456 2928 -432.5 c 128,-1,50
 2974 -409 2974 -409 3010 -389 c 128,-1,51
 3046 -369 3046 -369 3057.5 -369 c 128,-1,52
 3069 -369 3069 -369 3097 -401 c 128,-1,53
 3125 -433 3125 -433 3125 -452.5 c 128,-1,54
 3125 -472 3125 -472 3087 -511.5 c 128,-1,55
 3049 -551 3049 -551 2981 -596.5 c 128,-1,56
 2913 -642 2913 -642 2832 -683 c 0,57,58
 2644.31707317 -778 2644.31707317 -778 2478.65853659 -778 c 128,-1,59
 2313 -778 2313 -778 2127.5 -743 c 128,-1,60
 1942 -708 1942 -708 1781 -658 c 128,-1,61
 1620 -608 1620 -608 1475 -558 c 0,62,63
 1127 -438 1127 -438 1055.5 -438 c 128,-1,64
 984 -438 984 -438 881.5 -475 c 128,-1,65
 779 -512 779 -512 749 -512 c 128,-1,66
 719 -512 719 -512 662.5 -441.5 c 128,-1,67
 606 -371 606 -371 606 -328 c 128,-1,68
 606 -285 606 -285 634.5 -269.5 c 128,-1,69
 663 -254 663 -254 721 -254 c 1,0,-1
553 1413.5 m 0,70,71
 553 1184 553 1184 646.5 929.5 c 0,72,73
 792.521435559 532.040584495 792.521435559 532.040584495 1067.5 353.5 c 0,74,75
 1332.46588307 181.460540376 1332.46588307 181.460540376 1674 103 c 0,76,77
 1748 86 1748 86 1773.5 86 c 128,-1,78
 1799 86 1799 86 1838 99.5 c 128,-1,79
 1877 113 1877 113 1931 142.5 c 128,-1,80
 1985 172 1985 172 2046.5 214 c 128,-1,81
 2108 256 2108 256 2173.5 318 c 128,-1,82
 2239 380 2239 380 2301.5 454 c 128,-1,83
 2364 528 2364 528 2420 626 c 128,-1,84
 2476 724 2476 724 2518 832.5 c 0,85,86
 2609 1067.58333333 2609 1067.58333333 2609 1291.79166667 c 128,-1,87
 2609 1516 2609 1516 2577 1671 c 128,-1,88
 2545 1826 2545 1826 2485 1968 c 128,-1,89
 2425 2110 2425 2110 2333.5 2232.5 c 128,-1,90
 2242 2355 2242 2355 2129 2445 c 0,91,92
 1886.67777778 2638 1886.67777778 2638 1565 2638 c 0,93,94
 1052.79591837 2638 1052.79591837 2638 743 2143 c 0,95,96
 553 1839.41304348 553 1839.41304348 553 1413.5 c 0,70,71
EndSplineSet
Substitution2: "'c2sc' Capitals to Small Capitals in Latin lookup 14 subtable" Q.c2
AlternateSubs2: "'aalt' Access All Alternates in Latin lookup 1 subtable" Q.c2
AlternateSubs2: "'aalt' Access All Alternates lookup 0 subtable" Q.c2
Position2: "'cpsp' Capital Spacing in Latin lookup 0 subtable" dx=16 dy=0 dh=33 dv=0
EndChar

StartChar: R
Encoding: 82 82 53
Width: 2625
GlyphClass: 2
Flags: HW
LayerCount: 2
Fore
SplineSet
508 1184 m 2,0,1
 508 2585 508 2585 467 2585 c 1,2,-1
 229 2576 l 1,3,4
 186 2576 186 2576 169 2594 c 128,-1,5
 152 2612 152 2612 152 2659 c 128,-1,6
 152 2706 152 2706 170 2719 c 128,-1,7
 188 2732 188 2732 233 2732 c 2,8,-1
 709 2724 l 1,9,-1
 1303 2748 l 1,10,11
 2040.57142857 2748 2040.57142857 2748 2179 2263.5 c 0,12,13
 2208 2162 2208 2162 2208 2061.5 c 128,-1,14
 2208 1961 2208 1961 2185.5 1885.5 c 128,-1,15
 2163 1810 2163 1810 2128 1750.5 c 128,-1,16
 2093 1691 2093 1691 2042.5 1635.5 c 128,-1,17
 1992 1580 1992 1580 1943 1539.5 c 128,-1,18
 1894 1499 1894 1499 1836.5 1462 c 0,19,20
 1748.35941043 1405.28344671 1748.35941043 1405.28344671 1686.17970522 1376.14172336 c 128,-1,21
 1624 1347 1624 1347 1623 1344 c 128,-1,22
 1622 1341 1622 1341 1669.5 1325.5 c 128,-1,23
 1717 1310 1717 1310 1772.5 1287 c 128,-1,24
 1828 1264 1828 1264 1899.5 1223 c 128,-1,25
 1971 1182 1971 1182 2028 1133.5 c 128,-1,26
 2085 1085 2085 1085 2143.5 1010.5 c 128,-1,27
 2202 936 2202 936 2242 848.5 c 0,28,29
 2333.36761173 648.633349351 2333.36761173 648.633349351 2343 377 c 0,30,31
 2350.5210084 146.355742297 2350.5210084 146.355742297 2363.2605042 134.677871148 c 128,-1,32
 2376 123 2376 123 2388 123 c 2,33,-1
 2576 123 l 2,34,35
 2611 123 2611 123 2624.5 102.5 c 128,-1,36
 2638 82 2638 82 2638 20 c 0,37,38
 2638 -25 2638 -25 2572 -25 c 1,39,-1
 2011 -12 l 1,40,41
 1966 -12 1966 -12 1966 33 c 2,42,-1
 1966 270 l 2,43,44
 1966 685.315789474 1966 685.315789474 1898.5 866.5 c 0,45,46
 1825.2925072 1063.00432277 1825.2925072 1063.00432277 1694.5 1150.5 c 0,47,48
 1530.36821223 1260.2985063 1530.36821223 1260.2985063 1270 1266 c 1,49,-1
 893 1270 l 2,50,51
 860 1270 860 1270 860 1237 c 0,52,53
 860 1017 860 1017 875.5 570 c 128,-1,54
 891 123 891 123 905 123 c 2,55,-1
 1143 123 l 2,56,57
 1178 123 1178 123 1189 109 c 128,-1,58
 1200 95 1200 95 1200 52 c 128,-1,59
 1200 9 1200 9 1189 -8 c 128,-1,60
 1178 -25 1178 -25 1143 -25 c 1,61,-1
 700 -12 l 1,62,-1
 299 -25 l 1,63,64
 256 -25 256 -25 242.5 -8.5 c 128,-1,65
 229 8 229 8 229 55 c 128,-1,66
 229 102 229 102 245.5 112.5 c 128,-1,67
 262 123 262 123 315 123 c 2,68,-1
 492 123 l 2,69,70
 508 123 508 123 508 639 c 2,71,-1
 508 1184 l 2,0,1
881 2609 m 1,72,73
 860 2609 860 2609 860 2400 c 2,74,-1
 860 1405 l 2,75,76
 860 1384 860 1384 913 1384 c 2,77,-1
 1438 1376 l 2,78,79
 1471 1376 1471 1376 1483 1380 c 1,80,81
 1835 1544 1835 1544 1835 1982 c 0,82,83
 1835 2323.12765957 1835 2323.12765957 1517 2507.5 c 0,84,85
 1328.13761468 2617 1328.13761468 2617 1135.06880734 2617 c 128,-1,86
 942 2617 942 2617 881 2609 c 1,72,73
EndSplineSet
Substitution2: "'c2sc' Capitals to Small Capitals in Latin lookup 14 subtable" R.c2
AlternateSubs2: "'aalt' Access All Alternates in Latin lookup 1 subtable" R.c2
AlternateSubs2: "'aalt' Access All Alternates lookup 0 subtable" R.c2
Position2: "'cpsp' Capital Spacing in Latin lookup 0 subtable" dx=16 dy=0 dh=33 dv=0
EndChar

StartChar: S
Encoding: 83 83 54
Width: 2162
GlyphClass: 2
Flags: HW
LayerCount: 2
Fore
SplineSet
1716 1995 m 1,0,-1
 1729 2257 l 1,1,2
 1729 2318.52 1729 2318.52 1631.5 2402.76 c 128,-1,3
 1534 2487 1534 2487 1458 2535 c 0,4,5
 1282.25 2646 1282.25 2646 1081.625 2646 c 128,-1,6
 881 2646 881 2646 729.5 2499 c 128,-1,7
 578 2352 578 2352 578 2127.5 c 128,-1,8
 578 1903 578 1903 770 1759 c 0,9,10
 893.544362909 1665.79986658 893.544362909 1665.79986658 1193.27218145 1554.89993329 c 128,-1,11
 1493 1444 1493 1444 1612 1382 c 1,12,13
 1866 1247 1866 1247 1963 1051 c 0,14,15
 2032 911 2032 911 2032 745 c 128,-1,16
 2032 579 2032 579 1979.5 448 c 128,-1,17
 1927 317 1927 317 1837 222.5 c 128,-1,18
 1747 128 1747 128 1628 60.5 c 0,19,20
 1390.88148148 -74 1390.88148148 -74 1102 -74 c 0,21,22
 740.018518519 -74 740.018518519 -74 441.5 30 c 0,23,24
 281.231359649 85.8355263158 281.231359649 85.8355263158 278.615679825 129.417763158 c 128,-1,25
 276 173 276 173 264.5 324 c 0,26,27
 238 671.956521739 238 671.956521739 238 706.97826087 c 128,-1,28
 238 742 238 742 239 750 c 128,-1,29
 240 758 240 758 245.5 768 c 0,30,31
 255.4 786 255.4 786 299 786 c 2,32,-1
 319 786 l 2,33,34
 361 786 361 786 378 771.5 c 128,-1,35
 395 757 395 757 397 718 c 2,36,-1
 422 333 l 2,37,38
 426 282 426 282 554.5 223 c 128,-1,39
 683 164 683 164 851.5 125 c 128,-1,40
 1020 86 1020 86 1150 86 c 128,-1,41
 1280 86 1280 86 1402 148.5 c 128,-1,42
 1524 211 1524 211 1597.5 323 c 128,-1,43
 1671 435 1671 435 1671 550 c 128,-1,44
 1671 665 1671 665 1633.5 745 c 128,-1,45
 1596 825 1596 825 1542 880 c 128,-1,46
 1488 935 1488 935 1394.5 988.5 c 0,47,48
 1263.78017241 1063.29690669 1263.78017241 1063.29690669 1100.39008621 1127.64845335 c 128,-1,49
 937 1192 937 1192 892 1210.5 c 128,-1,50
 847 1229 847 1229 765.5 1266 c 128,-1,51
 684 1303 684 1303 639 1330 c 128,-1,52
 594 1357 594 1357 526.5 1401.5 c 128,-1,53
 459 1446 459 1446 421 1486.5 c 128,-1,54
 383 1527 383 1527 337.5 1584.5 c 128,-1,55
 292 1642 292 1642 269 1702 c 0,56,57
 213 1848.08695652 213 1848.08695652 213 1980.54347826 c 128,-1,58
 213 2113 213 2113 248 2219 c 128,-1,59
 283 2325 283 2325 344 2410.5 c 128,-1,60
 405 2496 405 2496 489.5 2567 c 128,-1,61
 574 2638 574 2638 672.5 2685.5 c 0,62,63
 878.831578947 2785 878.831578947 2785 1060.41578947 2785 c 128,-1,64
 1242 2785 1242 2785 1374 2751 c 128,-1,65
 1506 2717 1506 2717 1603.5 2648.5 c 128,-1,66
 1701 2580 1701 2580 1724 2580 c 0,67,68
 1735 2580 1735 2580 1739.5 2641 c 128,-1,69
 1744 2702 1744 2702 1755.5 2713 c 128,-1,70
 1767 2724 1767 2724 1821 2724 c 128,-1,71
 1875 2724 1875 2724 1890 2713 c 128,-1,72
 1905 2702 1905 2702 1905 2654 c 1,73,-1
 1880 2003 l 1,74,75
 1880 1960 1880 1960 1868 1946.5 c 128,-1,76
 1856 1933 1856 1933 1804 1933 c 128,-1,77
 1752 1933 1752 1933 1734 1947 c 128,-1,78
 1716 1961 1716 1961 1716 1995 c 1,0,-1
EndSplineSet
Substitution2: "'c2sc' Capitals to Small Capitals in Latin lookup 14 subtable" S.c2
AlternateSubs2: "'aalt' Access All Alternates in Latin lookup 1 subtable" S.c2
AlternateSubs2: "'aalt' Access All Alternates lookup 0 subtable" S.c2
Position2: "'cpsp' Capital Spacing in Latin lookup 0 subtable" dx=16 dy=0 dh=33 dv=0
EndChar

StartChar: T
Encoding: 84 84 55
Width: 2826
GlyphClass: 2
Flags: HW
LayerCount: 2
Fore
SplineSet
211 2184.5 m 128,-1,1
 200 2175 200 2175 137 2175 c 128,-1,2
 74 2175 74 2175 74 2220 c 0,3,4
 74 2223 74 2223 86.5 2312.5 c 0,5,6
 127.660982949 2607.21263791 127.660982949 2607.21263791 134.830491474 2702.60631896 c 128,-1,7
 142 2798 142 2798 155.5 2812 c 128,-1,8
 169 2826 169 2826 226 2826 c 128,-1,9
 283 2826 283 2826 283 2789 c 2,10,-1
 283 2748 l 2,11,12
 283 2728 283 2728 713 2728 c 2,13,-1
 2175 2728 l 2,14,15
 2609 2728 2609 2728 2610.5 2764 c 128,-1,16
 2612 2800 2612 2800 2626 2813 c 128,-1,17
 2640 2826 2640 2826 2671 2826 c 128,-1,18
 2702 2826 2702 2826 2713 2825 c 128,-1,19
 2724 2824 2724 2824 2736.5 2819 c 0,20,21
 2757 2810.8 2757 2810.8 2757 2769 c 1,22,-1
 2740 2216 l 2,23,24
 2740 2187 2740 2187 2725 2181 c 128,-1,25
 2710 2175 2710 2175 2665.5 2175 c 128,-1,26
 2621 2175 2621 2175 2605 2187 c 128,-1,27
 2589 2199 2589 2199 2589 2232 c 1,28,-1
 2601 2560 l 1,29,30
 2601 2589 2601 2589 2150 2589 c 2,31,-1
 1679 2589 l 2,32,33
 1653.47031963 2589 1653.47031963 2589 1650.73515982 2289.5 c 128,-1,34
 1648 1990 1648 1990 1647 1954 c 2,35,-1
 1622 377 l 1,36,37
 1622 123 1622 123 1630 123 c 2,38,-1
 1921 123 l 2,39,40
 1956 123 1956 123 1967 109 c 128,-1,41
 1978 95 1978 95 1978 52 c 128,-1,42
 1978 9 1978 9 1967 -8 c 128,-1,43
 1956 -25 1956 -25 1921 -25 c 2,44,-1
 1430 -12 l 1,45,-1
 926 -25 l 1,46,47
 885 -25 885 -25 874.5 -9.5 c 128,-1,48
 864 6 864 6 864 54.5 c 128,-1,49
 864 103 864 103 877.5 113 c 128,-1,50
 891 123 891 123 942 123 c 2,51,-1
 1196 123 l 2,52,53
 1220 123 1220 123 1234.5 917.5 c 128,-1,54
 1249 1712 1249 1712 1249 2150.5 c 128,-1,55
 1249 2589 1249 2589 1225 2589 c 2,56,-1
 643 2589 l 2,57,58
 264.473684211 2589 264.473684211 2589 258 2548 c 1,59,-1
 225 2232 l 2,60,0
 222 2194 222 2194 211 2184.5 c 128,-1,1
EndSplineSet
Substitution2: "'c2sc' Capitals to Small Capitals in Latin lookup 14 subtable" T.c2
AlternateSubs2: "'aalt' Access All Alternates in Latin lookup 1 subtable" T.c2
AlternateSubs2: "'aalt' Access All Alternates lookup 0 subtable" T.c2
Position2: "'cpsp' Capital Spacing in Latin lookup 0 subtable" dx=16 dy=0 dh=33 dv=0
EndChar

StartChar: U
Encoding: 85 85 56
Width: 3092
GlyphClass: 2
Flags: HW
LayerCount: 2
Fore
SplineSet
397 2355 m 2,0,1
 397 2585 397 2585 381 2585 c 2,2,-1
 225 2585 l 2,3,4
 183 2585 183 2585 167.5 2597 c 128,-1,5
 152 2609 152 2609 152 2658 c 128,-1,6
 152 2707 152 2707 166.5 2719.5 c 128,-1,7
 181 2732 181 2732 225 2732 c 1,8,-1
 614 2720 l 1,9,-1
 1090 2732 l 1,10,11
 1131 2732 1131 2732 1141 2716.5 c 128,-1,12
 1151 2701 1151 2701 1151 2652.5 c 128,-1,13
 1151 2604 1151 2604 1137.5 2594.5 c 128,-1,14
 1124 2585 1124 2585 1073 2585 c 2,15,-1
 807 2585 l 2,16,17
 786 2585 786 2585 770 1901.5 c 128,-1,18
 754 1218 754 1218 754 934 c 0,19,20
 754 539 754 539 946.5 345.5 c 128,-1,21
 1139 152 1139 152 1540 152 c 128,-1,22
 1941 152 1941 152 2261 369 c 0,23,24
 2308 400 2308 400 2327.5 425.5 c 128,-1,25
 2347 451 2347 451 2353 551.5 c 128,-1,26
 2359 652 2359 652 2359 1012 c 2,27,-1
 2359 2261 l 2,28,29
 2359 2585 2359 2585 2335 2585 c 2,30,-1
 2130 2585 l 2,31,32
 2065.03225806 2585 2065.03225806 2585 2056.51612903 2609 c 128,-1,33
 2048 2633 2048 2633 2048 2669.5 c 128,-1,34
 2048 2706 2048 2706 2066 2719 c 128,-1,35
 2084 2732 2084 2732 2130 2732 c 1,36,-1
 2552 2720 l 1,37,-1
 2871 2732 l 1,38,39
 2914 2732 2914 2732 2927.5 2715.5 c 128,-1,40
 2941 2699 2941 2699 2941 2652 c 128,-1,41
 2941 2605 2941 2605 2924.5 2595 c 128,-1,42
 2908 2585 2908 2585 2855 2585 c 2,43,-1
 2761 2585 l 2,44,45
 2736.8125 2585 2736.8125 2585 2728.90625 2033 c 128,-1,46
 2721 1481 2721 1481 2716 1272 c 128,-1,47
 2711 1063 2711 1063 2703.5 773 c 128,-1,48
 2696 483 2696 483 2691.5 310.5 c 128,-1,49
 2687 138 2687 138 2687 102 c 0,50,51
 2687 -41 2687 -41 2589 -41 c 0,52,53
 2527.26548673 -41 2527.26548673 -41 2454.5 108.5 c 128,-1,54
 2381.73451327 258 2381.73451327 258 2339.86725664 258 c 128,-1,55
 2298 258 2298 258 2142.5 170 c 128,-1,56
 1987 82 1987 82 1754.5 12.5 c 128,-1,57
 1522 -57 1522 -57 1325 -57 c 128,-1,58
 1128 -57 1128 -57 989.5 -27.5 c 128,-1,59
 851 2 851 2 756.5 50 c 128,-1,60
 662 98 662 98 594 175 c 128,-1,61
 526 252 526 252 487.5 330 c 128,-1,62
 449 408 449 408 427.5 516.5 c 0,63,64
 393 690.604651163 393 690.604651163 393 930 c 2,65,-1
 397 2355 l 2,0,1
EndSplineSet
Substitution2: "'c2sc' Capitals to Small Capitals in Latin lookup 14 subtable" U.c2
AlternateSubs2: "'aalt' Access All Alternates in Latin lookup 1 subtable" U.c2
AlternateSubs2: "'aalt' Access All Alternates lookup 0 subtable" U.c2
Position2: "'cpsp' Capital Spacing in Latin lookup 0 subtable" dx=16 dy=0 dh=33 dv=0
EndChar

StartChar: V
Encoding: 86 86 57
Width: 2805
GlyphClass: 2
Flags: HW
LayerCount: 2
Fore
SplineSet
2388 2720 m 1,0,-1
 2707 2732 l 1,1,2
 2750 2732 2750 2732 2763.5 2715.5 c 128,-1,3
 2777 2699 2777 2699 2777 2652 c 128,-1,4
 2777 2605 2777 2605 2760.5 2595 c 128,-1,5
 2744 2585 2744 2585 2709 2585 c 128,-1,6
 2674 2585 2674 2585 2662 2584 c 128,-1,7
 2650 2583 2650 2583 2639.5 2583.5 c 128,-1,8
 2629 2584 2629 2584 2621 2580.5 c 128,-1,9
 2613 2577 2613 2577 2607.5 2576.5 c 128,-1,10
 2602 2576 2602 2576 2596 2569.5 c 128,-1,11
 2590 2563 2590 2563 2587.5 2562 c 128,-1,12
 2585 2561 2585 2561 2579.5 2550 c 128,-1,13
 2574 2539 2574 2539 2572.5 2536.5 c 0,14,15
 2568 2529 2568 2529 2556 2499 c 2,16,-1
 1610 274 l 2,17,18
 1579.58762887 204.051546392 1579.58762887 204.051546392 1544.79381443 161.525773196 c 128,-1,19
 1510 119 1510 119 1490.5 91 c 128,-1,20
 1471 63 1471 63 1444.5 16 c 128,-1,21
 1418 -31 1418 -31 1404.5 -55 c 0,22,23
 1370.75 -115 1370.75 -115 1331.375 -115 c 128,-1,24
 1292 -115 1292 -115 1267 -51 c 128,-1,25
 1242 13 1242 13 1191.5 165.5 c 128,-1,26
 1141 318 1141 318 1112 383.5 c 128,-1,27
 1083 449 1083 449 873 989.5 c 0,28,29
 253.101757632 2585 253.101757632 2585 233 2585 c 2,30,-1
 106 2585 l 2,31,32
 43.1 2585 43.1 2585 36.05 2608.5 c 128,-1,33
 29 2632 29 2632 29 2669.5 c 128,-1,34
 29 2707 29 2707 45.5 2719.5 c 128,-1,35
 62 2732 62 2732 106 2732 c 1,36,-1
 492 2720 l 1,37,-1
 1024 2732 l 2,38,39
 1067 2732 1067 2732 1080.5 2715.5 c 128,-1,40
 1094 2699 1094 2699 1094 2652 c 128,-1,41
 1094 2605 1094 2605 1077.5 2595 c 128,-1,42
 1061 2585 1061 2585 1008 2585 c 2,43,-1
 721 2585 l 1,44,-1
 721 2576 l 2,45,46
 721 2500.94736842 721 2500.94736842 801.5 2273.97368421 c 0,47,48
 1157.19162304 1271.08376963 1157.19162304 1271.08376963 1320.09581152 844.541884817 c 128,-1,49
 1483 418 1483 418 1501 418 c 128,-1,50
 1519 418 1519 418 1573 558 c 128,-1,51
 1627 698 1627 698 1733.5 968.5 c 128,-1,52
 1840 1239 1840 1239 1923.5 1455 c 128,-1,53
 2007 1671 2007 1671 2096.5 1910 c 0,54,55
 2286 2416.03910615 2286 2416.03910615 2286 2500.51955307 c 128,-1,56
 2286 2585 2286 2585 2261 2585 c 2,57,-1
 1970 2585 l 2,58,59
 1902.58064516 2585 1902.58064516 2585 1893.29032258 2609 c 128,-1,60
 1884 2633 1884 2633 1884 2669.5 c 128,-1,61
 1884 2706 1884 2706 1898.5 2719 c 128,-1,62
 1913 2732 1913 2732 1958 2732 c 1,63,-1
 2388 2720 l 1,0,-1
EndSplineSet
Substitution2: "'c2sc' Capitals to Small Capitals in Latin lookup 14 subtable" V.c2
AlternateSubs2: "'aalt' Access All Alternates in Latin lookup 1 subtable" V.c2
AlternateSubs2: "'aalt' Access All Alternates lookup 0 subtable" V.c2
Position2: "'cpsp' Capital Spacing in Latin lookup 0 subtable" dx=16 dy=0 dh=33 dv=0
EndChar

StartChar: W
Encoding: 87 87 58
Width: 4128
GlyphClass: 2
Flags: HW
LayerCount: 2
Fore
SplineSet
3752 2720 m 1,0,-1
 4030 2732 l 1,1,2
 4072 2732 4072 2732 4086 2716 c 128,-1,3
 4100 2700 4100 2700 4100 2657 c 128,-1,4
 4100 2614 4100 2614 4083 2599.5 c 128,-1,5
 4066 2585 4066 2585 4003.5 2585 c 128,-1,6
 3941 2585 3941 2585 3922 2573 c 128,-1,7
 3903 2561 3903 2561 3892.5 2533.5 c 128,-1,8
 3882 2506 3882 2506 3881.5 2505 c 128,-1,9
 3881 2504 3881 2504 3880.5 2502 c 128,-1,10
 3880 2500 3880 2500 3879 2499 c 2,11,-1
 2974 274 l 2,12,13
 2941.21109399 194.61633282 2941.21109399 194.61633282 2905.605547 154.30816641 c 128,-1,14
 2870 114 2870 114 2854.5 91.5 c 128,-1,15
 2839 69 2839 69 2816.5 31 c 128,-1,16
 2794 -7 2794 -7 2780.5 -29.5 c 128,-1,17
 2767 -52 2767 -52 2750.5 -73.5 c 0,18,19
 2660.09733717 -191.29740914 2660.09733717 -191.29740914 2593.5 -4.5 c 0,20,21
 2569.97020262 61.4982121573 2569.97020262 61.4982121573 2526.48510131 215.249106079 c 128,-1,22
 2483 369 2483 369 2470 408.5 c 128,-1,23
 2457 448 2457 448 2434.5 531 c 128,-1,24
 2412 614 2412 614 2373.5 755.5 c 128,-1,25
 2335 897 2335 897 2289 1063 c 0,26,27
 2167.65517241 1500.89655172 2167.65517241 1500.89655172 2115.32758621 1686.44827586 c 128,-1,28
 2063 1872 2063 1872 2054 1872 c 128,-1,29
 2045 1872 2045 1872 2015 1798 c 1,30,-1
 1434 274 l 1,31,32
 1401.21109399 194.61633282 1401.21109399 194.61633282 1365.605547 154.30816641 c 128,-1,33
 1330 114 1330 114 1314.5 91.5 c 128,-1,34
 1299 69 1299 69 1276.5 31 c 128,-1,35
 1254 -7 1254 -7 1240.5 -29.5 c 128,-1,36
 1227 -52 1227 -52 1210.5 -73.5 c 0,37,38
 1120.09733717 -191.29740914 1120.09733717 -191.29740914 1053.5 -4.5 c 0,39,40
 1029.97020262 61.4982121573 1029.97020262 61.4982121573 986.485101311 215.249106079 c 128,-1,41
 943 369 943 369 930.5 408 c 128,-1,42
 918 447 918 447 850 675 c 128,-1,43
 782 903 782 903 688.5 1212.5 c 128,-1,44
 595 1522 595 1522 499.5 1836.5 c 0,45,46
 272.213036566 2585 272.213036566 2585 258 2585 c 2,47,-1
 111 2585 l 2,48,49
 46.0322580645 2585 46.0322580645 2585 37.5161290323 2609 c 128,-1,50
 29 2633 29 2633 29 2669.5 c 128,-1,51
 29 2706 29 2706 47 2719 c 128,-1,52
 65 2732 65 2732 111 2732 c 1,53,-1
 504 2720 l 1,54,-1
 930 2732 l 1,55,56
 973 2732 973 2732 986 2715.5 c 128,-1,57
 999 2699 999 2699 999 2652 c 128,-1,58
 999 2605 999 2605 982.5 2595 c 128,-1,59
 966 2585 966 2585 913 2585 c 2,60,-1
 709 2585 l 2,61,62
 684.166666667 2585 684.166666667 2585 680 2560 c 1,63,64
 695.978460848 2412.19923716 695.978460848 2412.19923716 989.489230424 1504.09961858 c 128,-1,65
 1283 596 1283 596 1286.5 584.5 c 128,-1,66
 1290 573 1290 573 1295.5 558 c 128,-1,67
 1301 543 1301 543 1304 534.5 c 128,-1,68
 1307 526 1307 526 1310.5 516 c 128,-1,69
 1314 506 1314 506 1316 501 c 128,-1,70
 1318 496 1318 496 1321 491.5 c 128,-1,71
 1324 487 1324 487 1326 485 c 128,-1,72
 1328 483 1328 483 1331 483 c 128,-1,73
 1334 483 1334 483 1337.5 487 c 128,-1,74
 1341 491 1341 491 1345 500.5 c 128,-1,75
 1349 510 1349 510 1353.5 521 c 128,-1,76
 1358 532 1358 532 1365.5 550.5 c 128,-1,77
 1373 569 1373 569 1380 586 c 2,78,-1
 1966 2081 l 2,79,80
 1978 2114 1978 2114 1978 2138.5 c 128,-1,81
 1978 2163 1978 2163 1975 2177.5 c 128,-1,82
 1972 2192 1972 2192 1964 2221 c 128,-1,83
 1956 2250 1956 2250 1936.5 2321.5 c 128,-1,84
 1917 2393 1917 2393 1882.5 2489 c 128,-1,85
 1848 2585 1848 2585 1839 2585 c 2,86,-1
 1606 2585 l 2,87,88
 1541.03225806 2585 1541.03225806 2585 1532.51612903 2609 c 128,-1,89
 1524 2633 1524 2633 1524 2669.5 c 128,-1,90
 1524 2706 1524 2706 1542 2719 c 128,-1,91
 1560 2732 1560 2732 1606 2732 c 1,92,-1
 2060 2720 l 1,93,-1
 2552 2732 l 1,94,95
 2595 2732 2595 2732 2608 2715.5 c 128,-1,96
 2621 2699 2621 2699 2621 2652.5 c 128,-1,97
 2621 2606 2621 2606 2603 2595.5 c 128,-1,98
 2585 2585 2585 2585 2540 2585 c 2,99,-1
 2281 2585 l 1,100,101
 2277 2577 2277 2577 2277 2519 c 128,-1,102
 2277 2461 2277 2461 2336 2229.5 c 128,-1,103
 2395 1998 2395 1998 2454 1788.5 c 128,-1,104
 2513 1579 2513 1579 2571.5 1377.5 c 128,-1,105
 2630 1176 2630 1176 2676 1017 c 128,-1,106
 2722 858 2722 858 2762 722.5 c 0,107,108
 2851.88929889 418 2851.88929889 418 2871 418 c 0,109,110
 2883.06451613 418 2883.06451613 418 2925.03225806 527.5 c 128,-1,111
 2967 637 2967 637 3090 961 c 128,-1,112
 3213 1285 3213 1285 3278.5 1463 c 128,-1,113
 3344 1641 3344 1641 3437.5 1902.5 c 0,114,115
 3621 2415.71122995 3621 2415.71122995 3621 2500.35561497 c 128,-1,116
 3621 2585 3621 2585 3596 2585 c 2,117,-1
 3330 2585 l 2,118,119
 3265.03225806 2585 3265.03225806 2585 3256.51612903 2609 c 128,-1,120
 3248 2633 3248 2633 3248 2669.5 c 128,-1,121
 3248 2706 3248 2706 3266 2719 c 128,-1,122
 3284 2732 3284 2732 3330 2732 c 1,123,-1
 3752 2720 l 1,0,-1
EndSplineSet
Substitution2: "'c2sc' Capitals to Small Capitals in Latin lookup 14 subtable" W.c2
AlternateSubs2: "'aalt' Access All Alternates in Latin lookup 1 subtable" W.c2
AlternateSubs2: "'aalt' Access All Alternates lookup 0 subtable" W.c2
Position2: "'cpsp' Capital Spacing in Latin lookup 0 subtable" dx=16 dy=0 dh=33 dv=0
EndChar

StartChar: X
Encoding: 88 88 59
Width: 2613
GlyphClass: 2
Flags: HW
LayerCount: 2
Fore
SplineSet
446 -12 m 1,0,-1
 106 -25 l 1,1,2
 63 -25 63 -25 46 -11.5 c 128,-1,3
 29 2 29 2 29 49.5 c 128,-1,4
 29 97 29 97 46.5 110 c 128,-1,5
 64 123 64 123 106 123 c 2,6,-1
 258 123 l 2,7,8
 279.333333333 123 279.333333333 123 366.666666667 254 c 128,-1,9
 454 385 454 385 492 439.5 c 128,-1,10
 530 494 530 494 582 571 c 128,-1,11
 634 648 634 648 726 770 c 128,-1,12
 818 892 818 892 958.5 1069 c 128,-1,13
 1099 1246 1099 1246 1128 1286 c 128,-1,14
 1157 1326 1157 1326 1156 1337.5 c 128,-1,15
 1155 1349 1155 1349 1089.5 1457 c 128,-1,16
 1024 1565 1024 1565 706.5 2075 c 128,-1,17
 389 2585 389 2585 373 2585 c 2,18,-1
 213 2585 l 2,19,20
 148.032258065 2585 148.032258065 2585 139.516129032 2609 c 128,-1,21
 131 2633 131 2633 131 2670 c 128,-1,22
 131 2707 131 2707 147.5 2719.5 c 128,-1,23
 164 2732 164 2732 209 2732 c 1,24,-1
 696 2720 l 1,25,-1
 1102 2732 l 1,26,27
 1143 2732 1143 2732 1153 2716.5 c 128,-1,28
 1163 2701 1163 2701 1163 2653 c 128,-1,29
 1163 2605 1163 2605 1146.5 2595 c 128,-1,30
 1130 2585 1130 2585 1077 2585 c 2,31,-1
 909 2585 l 2,32,33
 874.166666667 2585 874.166666667 2585 875.583333333 2576.5 c 128,-1,34
 877 2568 877 2568 882 2557 c 128,-1,35
 887 2546 887 2546 889 2540 c 0,36,37
 977 2324 977 2324 1172.5 1980.5 c 128,-1,38
 1368 1637 1368 1637 1376.5 1623 c 0,39,40
 1394.71428571 1593 1394.71428571 1593 1400.35714286 1593 c 0,41,42
 1411.95140665 1593 1411.95140665 1593 1753 2118 c 1,43,44
 2011 2502 2011 2502 2011 2580 c 2,45,-1
 2011 2585 l 1,46,-1
 1782 2585 l 2,47,48
 1729 2585 1729 2585 1712.5 2595 c 128,-1,49
 1696 2605 1696 2605 1696 2652 c 128,-1,50
 1696 2699 1696 2699 1709 2715.5 c 128,-1,51
 1722 2732 1722 2732 1765 2732 c 1,52,-1
 2085 2720 l 1,53,-1
 2396 2732 l 1,54,55
 2439 2732 2439 2732 2456.5 2718.5 c 128,-1,56
 2474 2705 2474 2705 2474 2657.5 c 128,-1,57
 2474 2610 2474 2610 2456.5 2597.5 c 128,-1,58
 2439 2585 2439 2585 2396 2585 c 2,59,-1
 2302 2585 l 2,60,61
 2293 2585 2293 2585 2233.5 2511.5 c 128,-1,62
 2174 2438 2174 2438 2074 2293.5 c 128,-1,63
 1974 2149 1974 2149 1748.5 1848 c 128,-1,64
 1523 1547 1523 1547 1499 1512.5 c 128,-1,65
 1475 1478 1475 1478 1491 1454 c 0,66,67
 2332 123 2332 123 2359 123 c 2,68,-1
 2499 123 l 2,69,70
 2558 123 2558 123 2571.5 112 c 128,-1,71
 2585 101 2585 101 2585 49.5 c 128,-1,72
 2585 -2 2585 -2 2571.5 -13.5 c 128,-1,73
 2558 -25 2558 -25 2507 -25 c 1,74,-1
 2081 -12 l 1,75,-1
 1606 -25 l 1,76,77
 1563 -25 1563 -25 1549.5 -8.5 c 128,-1,78
 1536 8 1536 8 1536 55 c 128,-1,79
 1536 102 1536 102 1552.5 112.5 c 128,-1,80
 1569 123 1569 123 1622 123 c 2,81,-1
 1827 123 l 2,82,83
 1874 123 1874 123 1845.5 175.5 c 128,-1,84
 1817 228 1817 228 1764 323.5 c 128,-1,85
 1711 419 1711 419 1633 552 c 128,-1,86
 1555 685 1555 685 1503.5 772.5 c 128,-1,87
 1452 860 1452 860 1360.5 1012.5 c 128,-1,88
 1269 1165 1269 1165 1256.5 1186.5 c 0,89,90
 1236.74084125 1220.48575305 1236.74084125 1220.48575305 1221 1196 c 1,91,92
 782.00913242 577.264840183 782.00913242 577.264840183 647.50456621 358.632420091 c 128,-1,93
 513 140 513 140 517 131.5 c 128,-1,94
 521 123 521 123 545 123 c 2,95,-1
 770 123 l 2,96,97
 823 123 823 123 839.5 112.5 c 128,-1,98
 856 102 856 102 856 55 c 128,-1,99
 856 8 856 8 842.5 -8.5 c 128,-1,100
 829 -25 829 -25 786 -25 c 1,101,-1
 446 -12 l 1,0,-1
EndSplineSet
Substitution2: "'c2sc' Capitals to Small Capitals in Latin lookup 14 subtable" X.c2
AlternateSubs2: "'aalt' Access All Alternates in Latin lookup 1 subtable" X.c2
AlternateSubs2: "'aalt' Access All Alternates lookup 0 subtable" X.c2
Position2: "'cpsp' Capital Spacing in Latin lookup 0 subtable" dx=16 dy=0 dh=33 dv=0
EndChar

StartChar: Y
Encoding: 89 89 60
Width: 2445
GlyphClass: 2
Flags: HW
LayerCount: 2
Fore
SplineSet
1024 123 m 2,0,1
 1065 123 1065 123 1065 1110 c 0,2,3
 1065 1121 1065 1121 1063.5 1130.5 c 128,-1,4
 1062 1140 1062 1140 1061 1146.5 c 128,-1,5
 1060 1153 1060 1153 1056 1161.5 c 128,-1,6
 1052 1170 1052 1170 1050.5 1173.5 c 0,7,8
 1044.8 1186.8 1044.8 1186.8 962.9 1337.4 c 128,-1,9
 881 1488 881 1488 563 2046.5 c 128,-1,10
 245 2605 245 2605 221 2605 c 2,11,-1
 102 2605 l 2,12,13
 60 2605 60 2605 44.5 2617.5 c 128,-1,14
 29 2630 29 2630 29 2679 c 128,-1,15
 29 2728 29 2728 43.5 2740.5 c 128,-1,16
 58 2753 58 2753 102 2753 c 1,17,-1
 537 2740 l 1,18,-1
 1020 2753 l 2,19,20
 1054 2753 1054 2753 1065.5 2735.5 c 128,-1,21
 1077 2718 1077 2718 1077 2671 c 128,-1,22
 1077 2624 1077 2624 1065.5 2614.5 c 128,-1,23
 1054 2605 1054 2605 1004 2605 c 2,24,-1
 762 2605 l 2,25,26
 724 2605 724 2605 719.5 2598 c 128,-1,27
 715 2591 715 2591 741 2529 c 128,-1,28
 767 2467 767 2467 881 2248.5 c 128,-1,29
 995 2030 995 2030 1137 1767 c 128,-1,30
 1279 1504 1279 1504 1296.5 1470 c 128,-1,31
 1314 1436 1314 1436 1322.5 1420.5 c 128,-1,32
 1331 1405 1331 1405 1335 1398 c 128,-1,33
 1339 1391 1339 1391 1346 1390.5 c 0,34,35
 1357.23868642 1389.69723668 1357.23868642 1389.69723668 1470.11934321 1607.84861834 c 128,-1,36
 1583 1826 1583 1826 1646 1947 c 128,-1,37
 1709 2068 1709 2068 1758 2166.5 c 128,-1,38
 1807 2265 1807 2265 1851.5 2358.5 c 0,39,40
 1946 2557.05617978 1946 2557.05617978 1946 2581.02808989 c 128,-1,41
 1946 2605 1946 2605 1937 2605 c 2,42,-1
 1724 2605 l 2,43,44
 1671 2605 1671 2605 1654.5 2615 c 128,-1,45
 1638 2625 1638 2625 1638 2672 c 128,-1,46
 1638 2719 1638 2719 1651.5 2736 c 128,-1,47
 1665 2753 1665 2753 1708 2753 c 1,48,-1
 2028 2740 l 1,49,-1
 2339 2753 l 1,50,51
 2382 2753 2382 2753 2399.5 2739.5 c 128,-1,52
 2417 2726 2417 2726 2417 2678.5 c 128,-1,53
 2417 2631 2417 2631 2399.5 2618 c 128,-1,54
 2382 2605 2382 2605 2339 2605 c 2,55,-1
 2200 2605 l 2,56,57
 2189.20212766 2605 2189.20212766 2605 1852.10106383 2013.5 c 128,-1,58
 1515 1422 1515 1422 1476.5 1362.5 c 128,-1,59
 1438 1303 1438 1303 1438 1282 c 0,60,61
 1438 123 1438 123 1475 123 c 2,62,-1
 1757 123 l 2,63,64
 1793 123 1793 123 1804 109 c 128,-1,65
 1815 95 1815 95 1815 52 c 128,-1,66
 1815 9 1815 9 1804 -8 c 128,-1,67
 1793 -25 1793 -25 1757 -25 c 2,68,-1
 1266 -12 l 1,69,-1
 799 -25 l 1,70,71
 758 -25 758 -25 747.5 -9.5 c 128,-1,72
 737 6 737 6 737 54.5 c 128,-1,73
 737 103 737 103 750.5 113 c 128,-1,74
 764 123 764 123 815 123 c 2,75,-1
 1024 123 l 2,0,1
EndSplineSet
Substitution2: "'c2sc' Capitals to Small Capitals in Latin lookup 14 subtable" Y.c2
AlternateSubs2: "'aalt' Access All Alternates in Latin lookup 1 subtable" Y.c2
AlternateSubs2: "'aalt' Access All Alternates lookup 0 subtable" Y.c2
Position2: "'cpsp' Capital Spacing in Latin lookup 0 subtable" dx=16 dy=0 dh=33 dv=0
EndChar

StartChar: Z
Encoding: 90 90 61
Width: 2461
GlyphClass: 2
Flags: HW
LayerCount: 2
Fore
SplineSet
2269 -25 m 2,0,-1
 197 -12 l 2,1,2
 170 -12 170 -12 161 3 c 128,-1,3
 152 18 152 18 152 52.5 c 128,-1,4
 152 87 152 87 403.5 471.5 c 128,-1,5
 655 856 655 856 1074.5 1491.5 c 128,-1,6
 1494 2127 1494 2127 1625.5 2333 c 128,-1,7
 1757 2539 1757 2539 1757 2551.5 c 128,-1,8
 1757 2564 1757 2564 1712 2564 c 2,9,-1
 434 2564 l 2,10,11
 418.304347826 2564 418.304347826 2564 413.152173913 2531 c 128,-1,12
 408 2498 408 2498 394.5 2415 c 0,13,14
 363.440559441 2224.04195804 363.440559441 2224.04195804 361.22027972 2215.52097902 c 128,-1,15
 359 2207 359 2207 357.5 2196 c 128,-1,16
 356 2185 356 2185 355 2181 c 0,17,18
 345.87804878 2144.51219512 345.87804878 2144.51219512 333.93902439 2141.25609756 c 128,-1,19
 322 2138 322 2138 315 2138 c 0,20,21
 197 2138 197 2138 197 2179 c 1,22,-1
 287 2773 l 1,23,24
 287 2810 287 2810 363 2810 c 128,-1,25
 439 2810 439 2810 434 2777 c 2,26,-1
 430 2744 l 1,27,28
 430 2720 430 2720 659 2720 c 2,29,-1
 2236 2720 l 2,30,31
 2276 2720 2276 2720 2289 2705.5 c 128,-1,32
 2302 2691 2302 2691 2302 2658.5 c 128,-1,33
 2302 2626 2302 2626 2199 2467.5 c 128,-1,34
 2096 2309 2096 2309 1921 2050.5 c 128,-1,35
 1746 1792 1746 1792 1550 1501 c 0,36,37
 1062.74356103 777.573348264 1062.74356103 777.573348264 750 242 c 1,38,39
 695 164 695 164 754 164 c 2,40,-1
 2146 164 l 2,41,42
 2164 164 2164 164 2165 170 c 0,43,44
 2168 188 2168 188 2168 197.5 c 2,45,-1
 2183 614 l 1,46,47
 2183 651 2183 651 2267 651 c 128,-1,48
 2351 651 2351 651 2351 610 c 2,49,-1
 2339 33 l 1,50,51
 2339 -25 2339 -25 2269 -25 c 2,0,-1
EndSplineSet
Substitution2: "'c2sc' Capitals to Small Capitals in Latin lookup 14 subtable" Z.c2
AlternateSubs2: "'aalt' Access All Alternates in Latin lookup 1 subtable" Z.c2
AlternateSubs2: "'aalt' Access All Alternates lookup 0 subtable" Z.c2
Position2: "'cpsp' Capital Spacing in Latin lookup 0 subtable" dx=16 dy=0 dh=33 dv=0
EndChar

StartChar: bracketleft
Encoding: 91 91 62
Width: 1212
GlyphClass: 2
Flags: HW
LayerCount: 2
Fore
SplineSet
315 -528 m 2,0,-1
 315 2777 l 2,1,2
 315 2812 315 2812 327 2825.5 c 128,-1,3
 339 2839 339 2839 377 2839 c 2,4,-1
 1004 2839 l 2,5,6
 1039 2839 1039 2839 1050 2828.5 c 128,-1,7
 1061 2818 1061 2818 1061 2789 c 2,8,-1
 1061 2732 l 2,9,10
 1061 2689 1061 2689 1051 2677.5 c 128,-1,11
 1041 2666 1041 2666 1004 2666 c 2,12,-1
 565 2666 l 2,13,14
 534 2666 534 2666 529 2662 c 128,-1,15
 524 2658 524 2658 524 2630 c 2,16,-1
 524 -381 l 2,17,18
 524 -409 524 -409 529 -413.5 c 128,-1,19
 534 -418 534 -418 565 -418 c 2,20,-1
 1004 -418 l 2,21,22
 1041 -418 1041 -418 1051 -429 c 128,-1,23
 1061 -440 1061 -440 1061 -483 c 2,24,-1
 1061 -532 l 2,25,26
 1061 -564 1061 -564 1051 -577 c 128,-1,27
 1041 -590 1041 -590 1004 -590 c 2,28,-1
 381 -590 l 2,29,30
 338 -590 338 -590 326.5 -580.5 c 128,-1,31
 315 -571 315 -571 315 -528 c 2,0,-1
EndSplineSet
Substitution2: "'case' Case-Sensitive Forms in Latin lookup 16 subtable" bracketleft.u
Substitution2: "'subs' Subscript in Latin lookup 10 subtable" bracketleft.sub
Substitution2: "'sups' Superscript in Latin lookup 9 subtable" bracketleft.sup
Substitution2: "'dnom' Denominators in Latin lookup 6 subtable" bracketleft.denom
Substitution2: "'numr' Numerators in Latin lookup 5 subtable" bracketleft.numer
AlternateSubs2: "'aalt' Access All Alternates in Latin lookup 1 subtable" bracketleft.u bracketleft.sub bracketleft.sup bracketleft.denom bracketleft.numer
AlternateSubs2: "'aalt' Access All Alternates lookup 0 subtable" bracketleft.u bracketleft.sub bracketleft.sup bracketleft.denom bracketleft.numer
EndChar

StartChar: backslash
Encoding: 92 92 63
Width: 1662
GlyphClass: 2
Flags: HW
LayerCount: 2
Fore
SplineSet
1642 -918 m 0,0,1
 1642 -967 1642 -967 1544.5 -967 c 128,-1,2
 1447 -967 1447 -967 1428 -951 c 128,-1,3
 1409 -935 1409 -935 1393.5 -891.5 c 128,-1,4
 1378 -848 1378 -848 1377 -845.5 c 0,5,6
 1373.33333333 -836.333333333 1373.33333333 -836.333333333 1372 -831 c 2,7,-1
 86 2654 l 1,8,9
 25 2801.68421053 25 2801.68421053 25 2848.84210526 c 128,-1,10
 25 2896 25 2896 97.5 2896 c 128,-1,11
 170 2896 170 2896 191.5 2894 c 128,-1,12
 213 2892 213 2892 227 2880.5 c 0,13,14
 243.880484115 2866.63388805 243.880484115 2866.63388805 258 2818 c 1,15,-1
 1556 -664 l 1,16,17
 1642 -882.071428571 1642 -882.071428571 1642 -918 c 0,0,1
EndSplineSet
EndChar

StartChar: bracketright
Encoding: 93 93 64
Width: 1212
GlyphClass: 2
Flags: HW
LayerCount: 2
Fore
SplineSet
152 -483 m 2,0,1
 152 -440 152 -440 162 -429 c 128,-1,2
 172 -418 172 -418 209 -418 c 2,3,-1
 647 -418 l 2,4,5
 678 -418 678 -418 683 -413.5 c 128,-1,6
 688 -409 688 -409 688 -381 c 2,7,-1
 688 2630 l 2,8,9
 688 2658 688 2658 683 2662 c 128,-1,10
 678 2666 678 2666 647 2666 c 2,11,-1
 209 2666 l 2,12,13
 172 2666 172 2666 162 2677.5 c 128,-1,14
 152 2689 152 2689 152 2732 c 2,15,-1
 152 2781 l 2,16,17
 152 2813 152 2813 162 2826 c 128,-1,18
 172 2839 172 2839 209 2839 c 2,19,-1
 831 2839 l 2,20,21
 872 2839 872 2839 884.5 2829 c 128,-1,22
 897 2819 897 2819 897 2781 c 2,23,-1
 897 -524 l 2,24,25
 897 -579.5 897 -579.5 880.5 -584.75 c 128,-1,26
 864 -590 864 -590 844 -590 c 2,27,-1
 209 -590 l 2,28,29
 173 -590 173 -590 162.5 -580 c 128,-1,30
 152 -570 152 -570 152 -541 c 2,31,-1
 152 -483 l 2,0,1
EndSplineSet
Substitution2: "'case' Case-Sensitive Forms in Latin lookup 16 subtable" bracketright.u
Substitution2: "'subs' Subscript in Latin lookup 10 subtable" bracketright.sub
Substitution2: "'sups' Superscript in Latin lookup 9 subtable" bracketright.sup
Substitution2: "'dnom' Denominators in Latin lookup 6 subtable" bracketright.denom
Substitution2: "'numr' Numerators in Latin lookup 5 subtable" bracketright.numer
AlternateSubs2: "'aalt' Access All Alternates in Latin lookup 1 subtable" bracketright.u bracketright.sub bracketright.sup bracketright.denom bracketright.numer
AlternateSubs2: "'aalt' Access All Alternates lookup 0 subtable" bracketright.u bracketright.sub bracketright.sup bracketright.denom bracketright.numer
EndChar

StartChar: asciicircum
Encoding: 94 94 65
Width: 1646
GlyphClass: 2
Flags: HW
LayerCount: 2
Fore
SplineSet
422 1262 m 1,0,1
 344 1249 344 1249 293.5 1249 c 128,-1,2
 243 1249 243 1249 193 1266 c 1,3,-1
 799 2593 l 1,4,-1
 803 2597 l 1,5,6
 815 2601 815 2601 831.5 2601 c 128,-1,7
 848 2601 848 2601 860 2597 c 1,8,-1
 864 2593 l 1,9,-1
 1470 1266 l 1,10,11
 1418 1249 1418 1249 1364 1249 c 128,-1,12
 1310 1249 1310 1249 1237 1262 c 1,13,-1
 1233 1262 l 1,14,-1
 823 2191 l 1,15,-1
 430 1262 l 1,16,-1
 422 1262 l 1,0,1
EndSplineSet
EndChar

StartChar: underscore
Encoding: 95 95 66
Width: 1679
GlyphClass: 2
Flags: HW
LayerCount: 2
Fore
SplineSet
90 -168 m 2,0,1
 90 -125 90 -125 105.5 -107.5 c 128,-1,2
 121 -90 121 -90 160 -90 c 2,3,-1
 1532 -90 l 2,4,5
 1568 -90 1568 -90 1578.5 -105 c 128,-1,6
 1589 -120 1589 -120 1589 -147 c 2,7,-1
 1589 -205 l 2,8,9
 1589 -299 1589 -299 1532 -299 c 2,10,-1
 147 -299 l 2,11,12
 110 -299 110 -299 100 -281.5 c 128,-1,13
 90 -264 90 -264 90 -217 c 2,14,-1
 90 -168 l 2,0,1
EndSplineSet
EndChar

StartChar: a
Encoding: 97 97 68
Width: 1716
GlyphClass: 2
Flags: HW
LayerCount: 2
Fore
SplineSet
1372 1098 m 1,0,-1
 1348 262 l 1,1,2
 1348 183.904761905 1348 183.904761905 1404.5 157 c 0,3,4
 1415 152 1415 152 1428 152 c 128,-1,5
 1441 152 1441 152 1512.5 203 c 128,-1,6
 1584 254 1584 254 1592 254 c 128,-1,7
 1600 254 1600 254 1625.5 222.5 c 128,-1,8
 1651 191 1651 191 1651 179.5 c 128,-1,9
 1651 168 1651 168 1623.5 147 c 128,-1,10
 1596 126 1596 126 1534.5 81 c 128,-1,11
 1473 36 1473 36 1392 -23 c 128,-1,12
 1311 -82 1311 -82 1275 -82 c 128,-1,13
 1239 -82 1239 -82 1213.5 -72 c 128,-1,14
 1188 -62 1188 -62 1173 -48.5 c 128,-1,15
 1158 -35 1158 -35 1144.5 -12 c 128,-1,16
 1131 11 1131 11 1125 27 c 128,-1,17
 1119 43 1119 43 1110.5 70 c 128,-1,18
 1102 97 1102 97 1096 114.5 c 0,19,20
 1086.74418605 141.496124031 1086.74418605 141.496124031 1053 119 c 1,21,22
 749 -70 749 -70 551 -70 c 128,-1,23
 353 -70 353 -70 242 28.5 c 128,-1,24
 131 127 131 127 131 291 c 0,25,26
 131 475.222222222 131 475.222222222 283 604 c 0,27,28
 434.281304893 732.168883312 434.281304893 732.168883312 591.640652447 785.584441656 c 0,29,30
 843.555555556 871.096839959 843.555555556 871.096839959 1061 909 c 0,31,32
 1081 913.285714286 1081 913.285714286 1081 973.142857143 c 128,-1,33
 1081 1033 1081 1033 1080 1072 c 128,-1,34
 1079 1111 1079 1111 1075 1172.5 c 128,-1,35
 1071 1234 1071 1234 1061.5 1269.5 c 128,-1,36
 1052 1305 1052 1305 1036.5 1351.5 c 128,-1,37
 1021 1398 1021 1398 995 1424.5 c 128,-1,38
 969 1451 969 1451 934 1476.5 c 0,39,40
 868.803921569 1524 868.803921569 1524 768.401960784 1524 c 128,-1,41
 668 1524 668 1524 599.5 1495.5 c 128,-1,42
 531 1467 531 1467 511.5 1414.5 c 128,-1,43
 492 1362 492 1362 492 1262 c 128,-1,44
 492 1162 492 1162 452.5 1135 c 128,-1,45
 413 1108 413 1108 327 1064 c 128,-1,46
 241 1020 241 1020 225 1020 c 0,47,48
 188 1020 188 1020 188 1108.5 c 128,-1,49
 188 1197 188 1197 228 1286.5 c 128,-1,50
 268 1376 268 1376 334 1440.5 c 128,-1,51
 400 1505 400 1505 483 1552.5 c 0,52,53
 648.126315789 1647 648.126315789 1647 797.563157895 1647 c 128,-1,54
 947 1647 947 1647 1042 1621 c 128,-1,55
 1137 1595 1137 1595 1199 1548.5 c 128,-1,56
 1261 1502 1261 1502 1300 1432.5 c 0,57,58
 1372 1304.19230769 1372 1304.19230769 1372 1098 c 1,0,-1
442 406 m 0,59,60
 442 340 442 340 470.5 279.5 c 128,-1,61
 499 219 499 219 558.5 177 c 128,-1,62
 618 135 618 135 693.5 135 c 128,-1,63
 769 135 769 135 862.5 158 c 0,64,65
 1081 211.748663102 1081 211.748663102 1081 250 c 2,66,-1
 1081 786 l 2,67,68
 1081 819 1081 819 1071.5 819 c 128,-1,69
 1062 819 1062 819 1026 812 c 0,70,71
 442 698.444444444 442 698.444444444 442 406 c 0,59,60
EndSplineSet
Substitution2: "'smcp' Lowercase to Small Capitals in Latin lookup 13 subtable" a.sc
Substitution2: "'subs' Subscript in Latin lookup 10 subtable" a.sub
Substitution2: "'sups' Superscript in Latin lookup 9 subtable" a.sup
Substitution2: "'dnom' Denominators in Latin lookup 6 subtable" a.denom
Substitution2: "'numr' Numerators in Latin lookup 5 subtable" a.numer
AlternateSubs2: "'aalt' Access All Alternates in Latin lookup 1 subtable" a.sc a.sub a.sup a.denom a.numer
AlternateSubs2: "'aalt' Access All Alternates lookup 0 subtable" a.sc a.sub a.sup a.denom a.numer
EndChar

StartChar: b
Encoding: 98 98 69
Width: 1986
GlyphClass: 2
Flags: HW
LayerCount: 2
Fore
SplineSet
291 2605 m 1,0,-1
 41 2580 l 1,1,2
 9.07692307692 2580 9.07692307692 2580 6.53846153846 2591 c 128,-1,3
 4 2602 4 2602 4 2659 c 128,-1,4
 4 2716 4 2716 29 2716 c 1,5,-1
 627 2781 l 1,6,7
 659 2781 659 2781 659 2748 c 2,8,-1
 647 1597 l 1,9,10
 647 1479 647 1479 652 1479 c 128,-1,11
 657 1479 657 1479 683 1490.5 c 128,-1,12
 709 1502 709 1502 750.5 1519 c 128,-1,13
 792 1536 792 1536 842.5 1553 c 0,14,15
 961.323529412 1593 961.323529412 1593 1077 1593 c 0,16,17
 1308 1593 1308 1593 1491.5 1484 c 128,-1,18
 1675 1375 1675 1375 1775.5 1187.5 c 128,-1,19
 1876 1000 1876 1000 1876 808 c 128,-1,20
 1876 616 1876 616 1828 481 c 128,-1,21
 1780 346 1780 346 1696 247 c 128,-1,22
 1612 148 1612 148 1500 76.5 c 0,23,24
 1276.78321678 -66 1276.78321678 -66 987 -66 c 0,25,26
 876 -66 876 -66 755 -27 c 128,-1,27
 634 12 634 12 587.5 12 c 128,-1,28
 541 12 541 12 473.5 -24.5 c 128,-1,29
 406 -61 406 -61 377 -61 c 0,30,31
 336 -61 336 -61 336 4 c 0,32,33
 336 8 336 8 337.5 28.5 c 128,-1,34
 339 49 339 49 341.5 97 c 128,-1,35
 344 145 344 145 346.5 221 c 0,36,37
 352 388.2 352 388.2 352 862.1 c 128,-1,38
 352 1336 352 1336 335.5 1970.5 c 128,-1,39
 319 2605 319 2605 291 2605 c 1,0,-1
647 1352 m 2,40,-1
 639 262 l 2,41,42
 639 168.666666667 639 168.666666667 684.5 138.333333333 c 128,-1,43
 730 108 730 108 759.5 95.5 c 128,-1,44
 789 83 789 83 833 78 c 0,45,46
 903.4 70 903.4 70 992.2 70 c 128,-1,47
 1081 70 1081 70 1176 107.5 c 128,-1,48
 1271 145 1271 145 1340 211 c 128,-1,49
 1409 277 1409 277 1458 365.5 c 0,50,51
 1556 542.5 1556 542.5 1556 723.75 c 128,-1,52
 1556 905 1556 905 1504 1031.5 c 128,-1,53
 1452 1158 1452 1158 1365.5 1249.5 c 0,54,55
 1175.95628415 1450 1175.95628415 1450 913 1450 c 0,56,57
 832 1450 832 1450 739.5 1413 c 128,-1,58
 647 1376 647 1376 647 1352 c 2,40,-1
EndSplineSet
Substitution2: "'smcp' Lowercase to Small Capitals in Latin lookup 13 subtable" b.sc
Substitution2: "'subs' Subscript in Latin lookup 10 subtable" b.sub
Substitution2: "'sups' Superscript in Latin lookup 9 subtable" b.sup
Substitution2: "'dnom' Denominators in Latin lookup 6 subtable" b.denom
Substitution2: "'numr' Numerators in Latin lookup 5 subtable" b.numer
AlternateSubs2: "'aalt' Access All Alternates in Latin lookup 1 subtable" b.sc b.sub b.sup b.denom b.numer
AlternateSubs2: "'aalt' Access All Alternates lookup 0 subtable" b.sc b.sub b.sup b.denom b.numer
EndChar

StartChar: c
Encoding: 99 99 70
Width: 1687
GlyphClass: 2
Flags: HW
LayerCount: 2
Fore
SplineSet
987 1647 m 0,0,1
 1121 1647 1121 1647 1249.5 1592.5 c 128,-1,2
 1378 1538 1378 1538 1461 1443 c 128,-1,3
 1544 1348 1544 1348 1544 1241 c 0,4,5
 1544 1186 1544 1186 1485 1140 c 128,-1,6
 1426 1094 1426 1094 1365.5 1094 c 128,-1,7
 1305 1094 1305 1094 1291 1134 c 128,-1,8
 1277 1174 1277 1174 1264 1216.5 c 128,-1,9
 1251 1259 1251 1259 1243.5 1284.5 c 128,-1,10
 1236 1310 1236 1310 1222 1345 c 128,-1,11
 1208 1380 1208 1380 1194.5 1400.5 c 128,-1,12
 1181 1421 1181 1421 1158.5 1445 c 128,-1,13
 1136 1469 1136 1469 1109.5 1481.5 c 0,14,15
 1046.96 1511 1046.96 1511 955.48 1511 c 128,-1,16
 864 1511 864 1511 776.5 1470.5 c 128,-1,17
 689 1430 689 1430 625.5 1362 c 128,-1,18
 562 1294 562 1294 515 1206 c 0,19,20
 422 1031.87234043 422 1031.87234043 422 877.936170213 c 128,-1,21
 422 724 422 724 446 626.5 c 128,-1,22
 470 529 470 529 520.5 442.5 c 128,-1,23
 571 356 571 356 643 291.5 c 0,24,25
 798.720930233 152 798.720930233 152 1040 152 c 0,26,27
 1268.48 152 1268.48 152 1505 261.5 c 0,28,29
 1532 274 1532 274 1546 274 c 0,30,31
 1577 274 1577 274 1577 229 c 0,32,33
 1577 200.093220339 1577 200.093220339 1489.5 138.546610169 c 128,-1,34
 1402 77 1402 77 1326.5 39 c 0,35,36
 1143.71052632 -53 1143.71052632 -53 918 -53 c 0,37,38
 555 -53 555 -53 343 158.5 c 128,-1,39
 131 370 131 370 131 760.136363636 c 128,-1,40
 131 1150.27272727 131 1150.27272727 390.367088608 1398.63636364 c 128,-1,41
 649.734177215 1647 649.734177215 1647 987 1647 c 0,0,1
EndSplineSet
Substitution2: "'smcp' Lowercase to Small Capitals in Latin lookup 13 subtable" c.sc
Substitution2: "'subs' Subscript in Latin lookup 10 subtable" c.sub
Substitution2: "'sups' Superscript in Latin lookup 9 subtable" c.sup
Substitution2: "'dnom' Denominators in Latin lookup 6 subtable" c.denom
Substitution2: "'numr' Numerators in Latin lookup 5 subtable" c.numer
AlternateSubs2: "'aalt' Access All Alternates in Latin lookup 1 subtable" c.sc c.sub c.sup c.denom c.numer
AlternateSubs2: "'aalt' Access All Alternates lookup 0 subtable" c.sc c.sub c.sup c.denom c.numer
EndChar

StartChar: d
Encoding: 100 100 71
Width: 2043
GlyphClass: 2
Flags: HW
LayerCount: 2
Fore
SplineSet
1380 -57 m 2,0,-1
 1384 90 l 2,1,2
 1384 121 1384 121 1339 94 c 0,3,4
 1081.60869565 -66 1081.60869565 -66 844 -66 c 0,5,6
 371.742331288 -66 371.742331288 -66 192 319.5 c 0,7,8
 111 493.223684211 111 493.223684211 111 704.111842105 c 128,-1,9
 111 915 111 915 176 1068 c 128,-1,10
 241 1221 241 1221 352.5 1330 c 0,11,12
 592.889908257 1565 592.889908257 1565 954 1565 c 0,13,14
 1148.38095238 1565 1148.38095238 1565 1351 1472.5 c 0,15,16
 1374 1462 1374 1462 1381.5 1462 c 128,-1,17
 1389 1462 1389 1462 1389 1618 c 128,-1,18
 1389 1774 1389 1774 1374.5 2197.5 c 128,-1,19
 1360 2621 1360 2621 1343 2621 c 1,20,-1
 1069 2585 l 1,21,22
 1042.05 2585 1042.05 2585 1048.025 2625 c 128,-1,23
 1054 2665 1054 2665 1055.5 2675.5 c 128,-1,24
 1057 2686 1057 2686 1057.5 2690 c 128,-1,25
 1058 2694 1058 2694 1059.5 2700.5 c 128,-1,26
 1061 2707 1061 2707 1062.5 2709.5 c 128,-1,27
 1064 2712 1064 2712 1066 2715.5 c 128,-1,28
 1068 2719 1068 2719 1071.5 2720 c 0,29,30
 1079.2 2722.2 1079.2 2722.2 1140.6 2729.1 c 128,-1,31
 1202 2736 1202 2736 1338 2755 c 128,-1,32
 1474 2774 1474 2774 1558.5 2786 c 128,-1,33
 1643 2798 1643 2798 1667.5 2798 c 128,-1,34
 1692 2798 1692 2798 1692 2752 c 128,-1,35
 1692 2706 1692 2706 1686 2468 c 0,36,37
 1667 1714.33333333 1667 1714.33333333 1667 1145.66666667 c 128,-1,38
 1667 577 1667 577 1672.5 364 c 128,-1,39
 1678 151 1678 151 1695 110.5 c 128,-1,40
 1712 70 1712 70 1765 70 c 0,41,42
 1770 70 1770 70 1798 74 c 2,43,-1
 1861 83 l 2,44,45
 1896 88 1896 88 1914 91.5 c 0,46,47
 1954 99.2777777778 1954 99.2777777778 1954 68.6388888889 c 128,-1,48
 1954 38 1954 38 1953.5 24.5 c 128,-1,49
 1953 11 1953 11 1949.5 -6.5 c 0,50,51
 1943 -39 1943 -39 1917 -41 c 1,52,53
 1433 -106 1433 -106 1412.5 -106 c 128,-1,54
 1392 -106 1392 -106 1386 -96 c 128,-1,55
 1380 -86 1380 -86 1380 -57 c 2,0,-1
459 979.5 m 128,-1,57
 434 878 434 878 434 751.5 c 128,-1,58
 434 625 434 625 469 507.5 c 128,-1,59
 504 390 504 390 575.5 300 c 0,60,61
 725.65 111 725.65 111 1044 111 c 0,62,63
 1135 111 1135 111 1262 152 c 128,-1,64
 1389 193 1389 193 1389 233 c 2,65,-1
 1389 1257 l 2,66,67
 1389 1294.53 1389 1294.53 1307.5 1350.765 c 0,68,69
 1152.08695652 1458 1152.08695652 1458 1026.54347826 1458 c 128,-1,70
 901 1458 901 1458 810 1421 c 128,-1,71
 719 1384 719 1384 651 1319 c 128,-1,72
 583 1254 583 1254 533.5 1167.5 c 128,-1,56
 484 1081 484 1081 459 979.5 c 128,-1,57
EndSplineSet
Substitution2: "'smcp' Lowercase to Small Capitals in Latin lookup 13 subtable" d.sc
Substitution2: "'subs' Subscript in Latin lookup 10 subtable" d.sub
Substitution2: "'sups' Superscript in Latin lookup 9 subtable" d.sup
Substitution2: "'dnom' Denominators in Latin lookup 6 subtable" d.denom
Substitution2: "'numr' Numerators in Latin lookup 5 subtable" d.numer
AlternateSubs2: "'aalt' Access All Alternates in Latin lookup 1 subtable" d.sc d.sub d.sup d.denom d.numer
AlternateSubs2: "'aalt' Access All Alternates lookup 0 subtable" d.sc d.sub d.sup d.denom d.numer
EndChar

StartChar: e
Encoding: 101 101 72
Width: 1736
GlyphClass: 2
Flags: HW
LayerCount: 2
Fore
SplineSet
1348 909 m 1,0,-1
 434 930 l 1,1,2
 422 900 422 900 422 771 c 128,-1,3
 422 642 422 642 472 514 c 128,-1,4
 522 386 522 386 604.5 304 c 0,5,6
 778.554878049 131 778.554878049 131 1008 131 c 0,7,8
 1286.67272727 131 1286.67272727 131 1516.5 369.5 c 0,9,10
 1543 397 1543 397 1550 397 c 128,-1,11
 1557 397 1557 397 1593.5 365.5 c 128,-1,12
 1630 334 1630 334 1630 326 c 128,-1,13
 1630 318 1630 318 1597.5 276.5 c 128,-1,14
 1565 235 1565 235 1499.5 175.5 c 128,-1,15
 1434 116 1434 116 1350.5 60.5 c 0,16,17
 1148.14414414 -74 1148.14414414 -74 935.572072072 -74 c 128,-1,18
 723 -74 723 -74 571 -12.5 c 128,-1,19
 419 49 419 49 319.5 159.5 c 128,-1,20
 220 270 220 270 167.5 422.5 c 128,-1,21
 115 575 115 575 115 758 c 128,-1,22
 115 941 115 941 177 1102 c 128,-1,23
 239 1263 239 1263 348.5 1380.5 c 0,24,25
 584.740425532 1634 584.740425532 1634 958 1634 c 0,26,27
 1261.03243243 1634 1261.03243243 1634 1425.5 1432.5 c 0,28,29
 1581 1241.98675497 1581 1241.98675497 1581 971 c 0,30,31
 1581 909 1581 909 1348 909 c 1,0,-1
1182.5 1042 m 1,32,33
 1274 1042 1274 1042 1274 1057 c 0,34,35
 1274 1350.80392157 1274 1350.80392157 1092 1465 c 0,36,37
 1004.34375 1520 1004.34375 1520 909.671875 1520 c 128,-1,38
 815 1520 815 1520 728.5 1474 c 128,-1,39
 642 1428 642 1428 582.5 1357 c 0,40,41
 454.486584045 1204.24449525 454.486584045 1204.24449525 442 1044 c 1,42,43
 442 1024 442 1024 479 1024 c 2,44,-1
 1182.5 1042 l 1,32,33
EndSplineSet
Substitution2: "'smcp' Lowercase to Small Capitals in Latin lookup 13 subtable" e.sc
Substitution2: "'subs' Subscript in Latin lookup 10 subtable" e.sub
Substitution2: "'sups' Superscript in Latin lookup 9 subtable" e.sup
Substitution2: "'dnom' Denominators in Latin lookup 6 subtable" e.denom
Substitution2: "'numr' Numerators in Latin lookup 5 subtable" e.numer
AlternateSubs2: "'aalt' Access All Alternates in Latin lookup 1 subtable" e.sc e.sub e.sup e.denom e.numer
AlternateSubs2: "'aalt' Access All Alternates lookup 0 subtable" e.sc e.sub e.sup e.denom e.numer
EndChar

StartChar: f
Encoding: 102 102 73
Width: 1253
GlyphClass: 2
Flags: HW
LayerCount: 2
Fore
SplineSet
537 -12 m 1,0,-1
 197 -20 l 2,1,2
 157 -20 157 -20 144 -4 c 128,-1,3
 131 12 131 12 131 49 c 0,4,5
 131 115 131 115 193 115 c 2,6,-1
 344 115 l 2,7,8
 360 115 360 115 360 360 c 1,9,-1
 356 705 l 1,10,-1
 356 950 l 2,11,12
 356 1405 356 1405 348 1405 c 2,13,-1
 213 1405 l 2,14,15
 177 1405 177 1405 166.5 1417.5 c 128,-1,16
 156 1430 156 1430 156 1470 c 128,-1,17
 156 1510 156 1510 164.5 1523 c 128,-1,18
 173 1536 173 1536 201 1536 c 2,19,-1
 324 1536 l 2,20,21
 344 1536 344 1536 348 1541 c 128,-1,22
 352 1546 352 1546 352 1573 c 2,23,-1
 344 1970 l 1,24,25
 344 2587.66222222 344 2587.66222222 740.5 2744.5 c 0,26,27
 853 2789 853 2789 966 2789 c 128,-1,28
 1079 2789 1079 2789 1159 2755 c 128,-1,29
 1239 2721 1239 2721 1293.5 2654 c 128,-1,30
 1348 2587 1348 2587 1348 2510 c 128,-1,31
 1348 2433 1348 2433 1270 2365.5 c 128,-1,32
 1192 2298 1192 2298 1135.03448276 2298 c 128,-1,33
 1078.06896552 2298 1078.06896552 2298 1073 2347 c 0,34,35
 1073 2350 1073 2350 1061.5 2436 c 128,-1,36
 1050 2522 1050 2522 1017 2597.5 c 128,-1,37
 984 2673 984 2673 893 2675 c 1,38,39
 810.835820896 2675 810.835820896 2675 776.917910448 2624.5 c 128,-1,40
 743 2574 743 2574 725.5 2535 c 128,-1,41
 708 2496 708 2496 697 2441.5 c 128,-1,42
 686 2387 686 2387 679 2338 c 128,-1,43
 672 2289 672 2289 669 2226 c 0,44,45
 664 2121 664 2121 664 2055 c 128,-1,46
 664 1989 664 1989 655 1593 c 0,47,48
 655 1552 655 1552 671 1544 c 128,-1,49
 687 1536 687 1536 750 1536 c 2,50,-1
 1204 1536 l 2,51,52
 1245 1536 1245 1536 1245 1513 c 128,-1,53
 1245 1490 1245 1490 1234.5 1449.5 c 128,-1,54
 1224 1409 1224 1409 1208 1409 c 2,55,-1
 750 1409 l 2,56,57
 702 1409 702 1409 687 1402.5 c 128,-1,58
 672 1396 672 1396 672 1372 c 2,59,-1
 672 692 l 2,60,61
 672 115 672 115 709 115 c 2,62,-1
 987 115 l 2,63,64
 1021 115 1021 115 1028.5 102.5 c 128,-1,65
 1036 90 1036 90 1036 48.5 c 128,-1,66
 1036 7 1036 7 1027.5 -6.5 c 128,-1,67
 1019 -20 1019 -20 979 -20 c 2,68,-1
 537 -12 l 1,0,-1
EndSplineSet
Substitution2: "'smcp' Lowercase to Small Capitals in Latin lookup 13 subtable" f.sc
Substitution2: "'subs' Subscript in Latin lookup 10 subtable" f.sub
Substitution2: "'sups' Superscript in Latin lookup 9 subtable" f.sup
Substitution2: "'dnom' Denominators in Latin lookup 6 subtable" f.denom
Substitution2: "'numr' Numerators in Latin lookup 5 subtable" f.numer
AlternateSubs2: "'aalt' Access All Alternates in Latin lookup 1 subtable" f.sc f.sub f.sup f.denom f.numer
AlternateSubs2: "'aalt' Access All Alternates lookup 0 subtable" f.sc f.sub f.sup f.denom f.numer
EndChar

StartChar: g
Encoding: 103 103 74
Width: 1740
GlyphClass: 2
Flags: HW
LayerCount: 2
Fore
SplineSet
96.5 -890 m 128,-1,1
 49 -807 49 -807 49 -720 c 128,-1,2
 49 -633 49 -633 82.5 -564 c 128,-1,3
 116 -495 116 -495 167 -446 c 128,-1,4
 218 -397 218 -397 287.5 -355 c 0,5,6
 415.048295455 -277.920454545 415.048295455 -277.920454545 509.024147727 -251.960227273 c 128,-1,7
 603 -226 603 -226 604 -224 c 256,8,9
 605 -222 605 -222 597 -222 c 2,10,-1
 545 -221 l 1,11,-1
 397 -221 l 2,12,13
 261 -221 261 -221 221 -135 c 1,14,15
 184 -43 184 -43 184 75 c 128,-1,16
 184 193 184 193 266 209 c 1,17,18
 692 320.571428571 692 320.571428571 692 324.785714286 c 128,-1,19
 692 329 692 329 655 336 c 1,20,21
 127 486 127 486 127 1008 c 0,22,23
 127 1142 127 1142 189.5 1260 c 128,-1,24
 252 1378 252 1378 355 1458 c 0,25,26
 576.45 1630 576.45 1630 860 1630 c 0,27,28
 1032.3442623 1630 1032.3442623 1630 1128.67213115 1578 c 128,-1,29
 1225 1526 1225 1526 1269 1495 c 128,-1,30
 1313 1464 1313 1464 1338.5 1442.5 c 128,-1,31
 1364 1421 1364 1421 1368 1421 c 128,-1,32
 1372 1421 1372 1421 1421.5 1438.5 c 0,33,34
 1572.91566265 1492.03078983 1572.91566265 1492.03078983 1667 1499 c 1,35,36
 1687 1499 1687 1499 1701.5 1455 c 128,-1,37
 1716 1411 1716 1411 1716 1373 c 128,-1,38
 1716 1335 1716 1335 1692 1335 c 1,39,40
 1652 1331 1652 1331 1559 1312.5 c 128,-1,41
 1466 1294 1466 1294 1466 1289 c 128,-1,42
 1466 1284 1466 1284 1478.5 1245 c 0,43,44
 1516 1128 1516 1128 1516 997 c 128,-1,45
 1516 866 1516 866 1483.5 764 c 128,-1,46
 1451 662 1451 662 1386 586.5 c 0,47,48
 1224.68721461 399.128995434 1224.68721461 399.128995434 720 256.5 c 0,49,50
 651 237 651 237 522.5 201.5 c 128,-1,51
 394 166 394 166 328 147 c 1,52,53
 319 147 319 147 319 125.5 c 128,-1,54
 319 104 319 104 330 77 c 0,55,56
 356.481481481 12 356.481481481 12 369 12 c 0,57,58
 486.194805195 4.67532467532 486.194805195 4.67532467532 638.097402597 -0.162337662338 c 128,-1,59
 790 -5 790 -5 892.5 -12 c 128,-1,60
 995 -19 995 -19 1075 -28.5 c 128,-1,61
 1155 -38 1155 -38 1245.5 -56 c 128,-1,62
 1336 -74 1336 -74 1403.5 -98.5 c 128,-1,63
 1471 -123 1471 -123 1536 -161.5 c 128,-1,64
 1601 -200 1601 -200 1642 -248 c 0,65,66
 1733 -354.536585366 1733 -354.536585366 1733 -535.768292683 c 128,-1,67
 1733 -717 1733 -717 1615.5 -875 c 0,68,69
 1373.80696203 -1200 1373.80696203 -1200 819 -1200 c 0,70,71
 460.178571429 -1200 460.178571429 -1200 222 -1029 c 0,72,0
 144 -973 144 -973 96.5 -890 c 128,-1,1
258 -680 m 128,-1,74
 258 -772 258 -772 310 -848.5 c 128,-1,75
 362 -925 362 -925 445 -972 c 0,76,77
 616.29787234 -1069 616.29787234 -1069 815 -1069 c 0,78,79
 1144.26213592 -1069 1144.26213592 -1069 1331.5 -919.5 c 0,80,81
 1475 -804.92248062 1475 -804.92248062 1475 -606 c 0,82,83
 1475 -527 1475 -527 1409 -464 c 128,-1,84
 1343 -401 1343 -401 1237 -365 c 0,85,86
 1019.11111111 -291 1019.11111111 -291 774 -291 c 0,87,88
 614.25 -291 614.25 -291 489.125 -362.5 c 128,-1,89
 364 -434 364 -434 311 -511 c 128,-1,73
 258 -588 258 -588 258 -680 c 128,-1,74
473.5 1265 m 128,-1,91
 414 1154 414 1154 414 1032.5 c 128,-1,92
 414 911 414 911 450 807.5 c 128,-1,93
 486 704 486 704 539.5 632.5 c 128,-1,94
 593 561 593 561 654.5 507 c 0,95,96
 775.222222222 401 775.222222222 401 840.611111111 401 c 128,-1,97
 906 401 906 401 973 444 c 128,-1,98
 1040 487 1040 487 1099.5 562 c 0,99,100
 1237 735.319327731 1237 735.319327731 1237 985.659663866 c 128,-1,101
 1237 1236 1237 1236 1130 1369.5 c 128,-1,102
 1023 1503 1023 1503 840 1503 c 0,103,104
 729 1503 729 1503 631 1439.5 c 128,-1,90
 533 1376 533 1376 473.5 1265 c 128,-1,91
EndSplineSet
Substitution2: "'smcp' Lowercase to Small Capitals in Latin lookup 13 subtable" g.sc
Substitution2: "'subs' Subscript in Latin lookup 10 subtable" g.sub
Substitution2: "'sups' Superscript in Latin lookup 9 subtable" g.sup
Substitution2: "'dnom' Denominators in Latin lookup 6 subtable" g.denom
Substitution2: "'numr' Numerators in Latin lookup 5 subtable" g.numer
AlternateSubs2: "'aalt' Access All Alternates in Latin lookup 1 subtable" g.sc g.sub g.sup g.denom g.numer
AlternateSubs2: "'aalt' Access All Alternates lookup 0 subtable" g.sc g.sub g.sup g.denom g.numer
EndChar

StartChar: h
Encoding: 104 104 75
Width: 2060
GlyphClass: 2
Flags: HW
LayerCount: 2
Fore
SplineSet
295 2593 m 1,0,-1
 53 2564 l 1,1,2
 29 2564 29 2564 29 2619.5 c 128,-1,3
 29 2675 29 2675 33.5 2687.5 c 128,-1,4
 38 2700 38 2700 131.5 2713.5 c 128,-1,5
 225 2727 225 2727 430.5 2752 c 128,-1,6
 636 2777 636 2777 659 2777 c 128,-1,7
 682 2777 682 2777 687 2766 c 128,-1,8
 692 2755 692 2755 692 2734.5 c 128,-1,9
 692 2714 692 2714 684 2511.5 c 0,10,11
 659 1878.6875 659 1878.6875 659 1647.84375 c 128,-1,12
 659 1417 659 1417 661 1414.5 c 128,-1,13
 663 1412 663 1412 731 1449 c 128,-1,14
 799 1486 799 1486 957.5 1537.5 c 128,-1,15
 1116 1589 1116 1589 1226 1589 c 128,-1,16
 1336 1589 1336 1589 1414.5 1564 c 128,-1,17
 1493 1539 1493 1539 1547 1498 c 128,-1,18
 1601 1457 1601 1457 1640.5 1392 c 128,-1,19
 1680 1327 1680 1327 1703 1259 c 128,-1,20
 1726 1191 1726 1191 1739.5 1098.5 c 0,21,22
 1761 951.185185185 1761 951.185185185 1761 737 c 2,23,-1
 1761 389 l 2,24,25
 1761 115 1761 115 1774 115 c 2,26,-1
 1913 115 l 2,27,28
 1950 115 1950 115 1960 100 c 128,-1,29
 1970 85 1970 85 1970 49 c 0,30,31
 1970 -20 1970 -20 1913 -20 c 1,32,-1
 1610 -12 l 1,33,-1
 1249 -20 l 2,34,35
 1210 -20 1210 -20 1201 -5.5 c 128,-1,36
 1192 9 1192 9 1192 46.5 c 128,-1,37
 1192 84 1192 84 1201 99.5 c 128,-1,38
 1210 115 1210 115 1241 115 c 2,39,-1
 1438 115 l 2,40,41
 1458 115 1458 115 1458 536.5 c 128,-1,42
 1458 958 1458 958 1444 1036.5 c 128,-1,43
 1430 1115 1430 1115 1400 1181.5 c 128,-1,44
 1370 1248 1370 1248 1326 1295.5 c 0,45,46
 1231.97894737 1397 1231.97894737 1397 1060.48947368 1397 c 128,-1,47
 889 1397 889 1397 717 1311 c 0,48,49
 659 1282 659 1282 659 1262 c 0,50,51
 664 516 664 516 664 315.5 c 128,-1,52
 664 115 664 115 680 115 c 2,53,-1
 868 115 l 2,54,55
 904 115 904 115 913 100.5 c 128,-1,56
 922 86 922 86 922 58.5 c 128,-1,57
 922 31 922 31 921 22 c 128,-1,58
 920 13 920 13 915 1.5 c 0,59,60
 905.652173913 -20 905.652173913 -20 868 -20 c 2,61,-1
 516 -12 l 1,62,-1
 156 -20 l 1,63,64
 103.052631579 -20 103.052631579 -20 99 18.5 c 0,65,66
 98 28 98 28 98 49 c 0,67,68
 98 115 98 115 160 115 c 2,69,-1
 336 115 l 2,70,71
 352 115 352 115 352 697.5 c 0,72,73
 352 1910.35714286 352 1910.35714286 334 2244.17857143 c 128,-1,74
 316 2578 316 2578 312 2585.5 c 128,-1,75
 308 2593 308 2593 295 2593 c 1,0,-1
EndSplineSet
Substitution2: "'smcp' Lowercase to Small Capitals in Latin lookup 13 subtable" h.sc
Substitution2: "'subs' Subscript in Latin lookup 10 subtable" h.sub
Substitution2: "'sups' Superscript in Latin lookup 9 subtable" h.sup
Substitution2: "'dnom' Denominators in Latin lookup 6 subtable" h.denom
Substitution2: "'numr' Numerators in Latin lookup 5 subtable" h.numer
AlternateSubs2: "'aalt' Access All Alternates in Latin lookup 1 subtable" h.sc h.sub h.sup h.denom h.numer
AlternateSubs2: "'aalt' Access All Alternates lookup 0 subtable" h.sc h.sub h.sup h.denom h.numer
EndChar

StartChar: k
Encoding: 107 107 78
Width: 1839
GlyphClass: 2
Flags: HW
LayerCount: 2
Fore
SplineSet
303 2630 m 1,0,-1
 70 2617 l 1,1,2
 39 2617 39 2617 32 2623.5 c 128,-1,3
 25 2630 25 2630 25 2658 c 2,4,-1
 25 2703 l 2,5,6
 25 2732 25 2732 34 2745 c 128,-1,7
 43 2758 43 2758 74 2761 c 0,8,9
 607 2802 607 2802 637.5 2802 c 128,-1,10
 668 2802 668 2802 668 2771.5 c 2,11,-1
 668 2736 l 1,12,-1
 623 909 l 2,13,14
 623 881 623 881 631.5 874.5 c 128,-1,15
 640 868 640 868 676 868 c 2,16,-1
 766 868 l 2,17,18
 811.2 868 811.2 868 833.6 896 c 128,-1,19
 856 924 856 924 965 1069 c 128,-1,20
 1074 1214 1074 1214 1142 1325.5 c 128,-1,21
 1210 1437 1210 1437 1210 1449.5 c 128,-1,22
 1210 1462 1210 1462 1167 1462 c 2,23,-1
 1069 1462 l 2,24,25
 1021.41176471 1462 1021.41176471 1462 1017 1499.5 c 0,26,27
 1016 1508 1016 1508 1016 1528 c 0,28,29
 1016 1597 1016 1597 1073 1597 c 1,30,-1
 1327 1589 l 1,31,-1
 1581 1597 l 1,32,33
 1630 1597 1630 1597 1630 1545 c 128,-1,34
 1630 1493 1630 1493 1620.5 1477.5 c 128,-1,35
 1611 1462 1611 1462 1577 1462 c 2,36,-1
 1446 1462 l 2,37,38
 1414.89361702 1462 1414.89361702 1462 1078 1052.5 c 0,39,40
 999.223880597 956.746268657 999.223880597 956.746268657 991.611940299 948.373134328 c 128,-1,41
 984 940 984 940 980.5 932.5 c 128,-1,42
 977 925 977 925 976 923 c 128,-1,43
 975 921 975 921 977.5 915 c 128,-1,44
 980 909 980 909 982 906.5 c 128,-1,45
 984 904 984 904 991.5 895.5 c 128,-1,46
 999 887 999 887 1004 881 c 2,47,-1
 1622 164 l 2,48,49
 1651 129 1651 129 1664 122 c 128,-1,50
 1677 115 1677 115 1704 115 c 2,51,-1
 1753 115 l 2,52,53
 1793 115 1793 115 1801.5 102.5 c 128,-1,54
 1810 90 1810 90 1810 59 c 128,-1,55
 1810 28 1810 28 1809 18.5 c 128,-1,56
 1808 9 1808 9 1803 -2 c 0,57,58
 1794.81818182 -20 1794.81818182 -20 1753 -20 c 1,59,-1
 1470 -12 l 1,60,-1
 1180 -20 l 2,61,62
 1144 -20 1144 -20 1135 -5 c 128,-1,63
 1126 10 1126 10 1126 47 c 128,-1,64
 1126 84 1126 84 1136 99.5 c 128,-1,65
 1146 115 1146 115 1180 115 c 2,66,-1
 1233 115 l 2,67,68
 1269.38461538 115 1269.38461538 115 1260.5 131.5 c 0,69,70
 1257 138 1257 138 1245 156 c 1,71,-1
 795 713 l 2,72,73
 758 759 758 759 745 768.5 c 128,-1,74
 732 778 732 778 705 778 c 2,75,-1
 655 778 l 2,76,77
 635 778 635 778 629 769 c 128,-1,78
 623 760 623 760 623 725 c 2,79,-1
 623 381 l 2,80,81
 623 115 623 115 631 115 c 2,82,-1
 762 115 l 2,83,84
 799 115 799 115 807 99 c 128,-1,85
 815 83 815 83 815 37 c 0,86,87
 815 -20 815 -20 762 -20 c 1,88,-1
 471 -12 l 1,89,-1
 127 -20 l 2,90,91
 87.8636363636 -20 87.8636363636 -20 81.9318181818 -5.5 c 0,92,93
 74 13.8888888889 74 13.8888888889 74 40.9444444444 c 128,-1,94
 74 68 74 68 75 77 c 128,-1,95
 76 86 76 86 80 96.5 c 0,96,97
 87.0476190476 115 87.0476190476 115 123 115 c 2,98,-1
 303 115 l 2,99,100
 328 115 328 115 332 122.5 c 128,-1,101
 336 130 336 130 336 176 c 2,102,-1
 336 967 l 2,103,104
 336 2630 336 2630 303 2630 c 1,0,-1
EndSplineSet
Substitution2: "'smcp' Lowercase to Small Capitals in Latin lookup 13 subtable" k.sc
Substitution2: "'subs' Subscript in Latin lookup 10 subtable" k.sub
Substitution2: "'sups' Superscript in Latin lookup 9 subtable" k.sup
Substitution2: "'dnom' Denominators in Latin lookup 6 subtable" k.denom
Substitution2: "'numr' Numerators in Latin lookup 5 subtable" k.numer
AlternateSubs2: "'aalt' Access All Alternates in Latin lookup 1 subtable" k.sc k.sub k.sup k.denom k.numer
AlternateSubs2: "'aalt' Access All Alternates lookup 0 subtable" k.sc k.sub k.sup k.denom k.numer
EndChar

StartChar: l
Encoding: 108 108 79
Width: 1052
GlyphClass: 2
Flags: HW
LayerCount: 2
Fore
SplineSet
86 2617 m 1,0,1
 66 2617 66 2617 66 2644.5 c 128,-1,2
 66 2672 66 2672 73 2698 c 128,-1,3
 80 2724 80 2724 81.5 2729.5 c 128,-1,4
 83 2735 83 2735 86 2739 c 128,-1,5
 89 2743 89 2743 90 2745 c 128,-1,6
 91 2747 91 2747 96.5 2748.5 c 128,-1,7
 102 2750 102 2750 104 2750.5 c 0,8,9
 114 2753 114 2753 366.5 2771 c 128,-1,10
 619 2789 619 2789 641 2789 c 0,11,12
 676 2789 676 2789 676 2716 c 2,13,-1
 700 262 l 1,14,15
 700 115 700 115 721 115 c 2,16,-1
 897 115 l 2,17,18
 931 115 931 115 938.5 101.5 c 128,-1,19
 946 88 946 88 946 57 c 128,-1,20
 946 26 946 26 945 16.5 c 128,-1,21
 944 7 944 7 939.5 -3.5 c 0,22,23
 932.428571429 -20 932.428571429 -20 897 -20 c 2,24,-1
 557 -12 l 1,25,-1
 164 -20 l 2,26,27
 130 -20 130 -20 120.5 -4.5 c 128,-1,28
 111 11 111 11 111 47.5 c 128,-1,29
 111 84 111 84 120 99.5 c 128,-1,30
 129 115 129 115 160 115 c 2,31,-1
 369 115 l 2,32,33
 389 115 389 115 389 455.5 c 128,-1,34
 389 796 389 796 377 1565.5 c 128,-1,35
 365 2335 365 2335 354 2458.5 c 128,-1,36
 343 2582 343 2582 340.5 2592.5 c 128,-1,37
 338 2603 338 2603 336.5 2610 c 128,-1,38
 335 2617 335 2617 331.5 2621.5 c 128,-1,39
 328 2626 328 2626 326.5 2628.5 c 0,40,41
 323.2 2634 323.2 2634 314.725 2634 c 2,42,-1
 299 2634 l 1,43,-1
 86 2617 l 1,0,1
EndSplineSet
Substitution2: "'smcp' Lowercase to Small Capitals in Latin lookup 13 subtable" l.sc
Substitution2: "'subs' Subscript in Latin lookup 10 subtable" l.sub
Substitution2: "'sups' Superscript in Latin lookup 9 subtable" l.sup
Substitution2: "'dnom' Denominators in Latin lookup 6 subtable" l.denom
Substitution2: "'numr' Numerators in Latin lookup 5 subtable" l.numer
Substitution2: "'locl' Localized Forms in Latin lookup 2 subtable" l.CAT
AlternateSubs2: "'aalt' Access All Alternates in Latin lookup 1 subtable" l.sc l.sub l.sup l.denom l.numer l.CAT
AlternateSubs2: "'aalt' Access All Alternates lookup 0 subtable" l.sc l.sub l.sup l.denom l.numer
EndChar

StartChar: m
Encoding: 109 109 80
Width: 3026
GlyphClass: 2
Flags: HW
LayerCount: 2
Fore
SplineSet
355 1419.5 m 2,0,1
 355 1421 355 1421 349.5 1421 c 2,2,-1
 336 1421 l 1,3,4
 138 1409 138 1409 112 1409 c 128,-1,5
 86 1409 86 1409 86 1434 c 0,6,7
 86 1438 86 1438 100 1488.5 c 128,-1,8
 114 1539 114 1539 121.5 1544 c 0,9,10
 133.5 1552 133.5 1552 368.25 1562.5 c 128,-1,11
 603 1573 603 1573 626 1573 c 128,-1,12
 649 1573 649 1573 656.5 1562.5 c 128,-1,13
 664 1552 664 1552 664 1516 c 2,14,-1
 664 1393 l 2,15,16
 664 1365 664 1365 666.5 1362.5 c 128,-1,17
 669 1360 669 1360 684 1372 c 1,18,19
 1013 1602 1013 1602 1270 1602 c 0,20,21
 1534.79069767 1602 1534.79069767 1602 1622 1414.5 c 0,22,23
 1632 1393 1632 1393 1634 1393 c 128,-1,24
 1636 1393 1636 1393 1670 1413.5 c 128,-1,25
 1704 1434 1704 1434 1760 1463.5 c 128,-1,26
 1816 1493 1816 1493 1883.5 1522.5 c 0,27,28
 2044.81355932 1593 2044.81355932 1593 2179.40677966 1593 c 128,-1,29
 2314 1593 2314 1593 2404.5 1563 c 128,-1,30
 2495 1533 2495 1533 2554 1481 c 128,-1,31
 2613 1429 2613 1429 2649.5 1351 c 0,32,33
 2716 1208.89041096 2716 1208.89041096 2716 983 c 1,34,-1
 2707 287 l 1,35,36
 2707 115 2707 115 2716 115 c 2,37,-1
 2879 115 l 2,38,39
 2916 115 2916 115 2926.5 99.5 c 128,-1,40
 2937 84 2937 84 2937 48.5 c 128,-1,41
 2937 13 2937 13 2926 -3.5 c 128,-1,42
 2915 -20 2915 -20 2879 -20 c 2,43,-1
 2556 -12 l 1,44,-1
 2195 -20 l 2,45,46
 2161 -20 2161 -20 2151.5 -4.5 c 128,-1,47
 2142 11 2142 11 2142 49 c 0,48,49
 2142 115 2142 115 2204 115 c 2,50,-1
 2372 115 l 2,51,52
 2404 115 2404 115 2404 885 c 0,53,54
 2404 1303 2404 1303 2177.5 1378.5 c 0,55,56
 2122 1397 2122 1397 2043.5 1397 c 128,-1,57
 1965 1397 1965 1397 1869.5 1369.5 c 128,-1,58
 1774 1342 1774 1342 1720.5 1315 c 128,-1,59
 1667 1288 1667 1288 1667 1282 c 128,-1,60
 1667 1276 1667 1276 1673.5 1247 c 0,61,62
 1692 1164.46153846 1692 1164.46153846 1692 967 c 2,63,-1
 1692 508 l 2,64,65
 1692 115 1692 115 1700 115 c 2,66,-1
 1847 115 l 2,67,68
 1883 115 1883 115 1892 100.5 c 128,-1,69
 1901 86 1901 86 1901 49 c 0,70,71
 1901 -20 1901 -20 1847 -20 c 1,72,-1
 1532 -12 l 1,73,-1
 1225 -20 l 1,74,75
 1184 -20 1184 -20 1171.5 -5 c 128,-1,76
 1159 10 1159 10 1159 47 c 128,-1,77
 1159 84 1159 84 1168.5 99.5 c 128,-1,78
 1178 115 1178 115 1212 115 c 2,79,-1
 1368 115 l 2,80,81
 1397 115 1397 115 1397 500 c 1,82,-1
 1393 885 l 1,83,84
 1393 1095.82352941 1393 1095.82352941 1379.5 1151.41176471 c 128,-1,85
 1366 1207 1366 1207 1352.5 1246.5 c 128,-1,86
 1339 1286 1339 1286 1318 1310.5 c 128,-1,87
 1297 1335 1297 1335 1268.5 1356.5 c 0,88,89
 1214.81395349 1397 1214.81395349 1397 1094.40697674 1397 c 0,90,91
 859.043478261 1397 859.043478261 1397 709 1278 c 0,92,93
 668 1245.78571429 668 1245.78571429 668 1212 c 2,94,-1
 668 233 l 2,95,96
 668 128.947368421 668 128.947368421 681 123.473684211 c 0,97,98
 701.125 115 701.125 115 733 115 c 2,99,-1
 831 115 l 2,100,101
 868 115 868 115 878.5 99.5 c 128,-1,102
 889 84 889 84 889 48.5 c 128,-1,103
 889 13 889 13 878 -3.5 c 128,-1,104
 867 -20 867 -20 831 -20 c 2,105,-1
 508 -12 l 1,106,-1
 152 -20 l 2,107,108
 123 -20 123 -20 112.5 -7 c 128,-1,109
 102 6 102 6 102 60.5 c 128,-1,110
 102 115 102 115 147 115 c 2,111,-1
 319 115 l 2,112,113
 348 115 348 115 358.5 220 c 128,-1,114
 369 325 369 325 369 668 c 2,115,-1
 369 1114 l 1,116,-1
 358 1411.5 l 1,117,-1
 355 1419.5 l 2,0,1
EndSplineSet
Substitution2: "'smcp' Lowercase to Small Capitals in Latin lookup 13 subtable" m.sc
Substitution2: "'subs' Subscript in Latin lookup 10 subtable" m.sub
Substitution2: "'sups' Superscript in Latin lookup 9 subtable" m.sup
Substitution2: "'dnom' Denominators in Latin lookup 6 subtable" m.denom
Substitution2: "'numr' Numerators in Latin lookup 5 subtable" m.numer
AlternateSubs2: "'aalt' Access All Alternates in Latin lookup 1 subtable" m.sc m.sub m.sup m.denom m.numer
AlternateSubs2: "'aalt' Access All Alternates lookup 0 subtable" m.sc m.sub m.sup m.denom m.numer
EndChar

StartChar: n
Encoding: 110 110 81
Width: 2105
GlyphClass: 2
Flags: HW
LayerCount: 2
Fore
SplineSet
354 1422 m 2,0,-1
 102 1405 l 1,1,2
 82 1405 82 1405 82 1424 c 128,-1,3
 82 1443 82 1443 99 1486.5 c 128,-1,4
 116 1530 116 1530 124.5 1535.5 c 128,-1,5
 133 1541 133 1541 166 1543.5 c 128,-1,6
 199 1546 199 1546 381.5 1557.5 c 128,-1,7
 564 1569 564 1569 600 1572 c 128,-1,8
 636 1575 636 1575 643 1573.5 c 128,-1,9
 650 1572 650 1572 655.5 1572.5 c 128,-1,10
 661 1573 661 1573 665 1570 c 128,-1,11
 669 1567 669 1567 672 1566.5 c 128,-1,12
 675 1566 675 1566 676.5 1561.5 c 128,-1,13
 678 1557 678 1557 679 1555 c 128,-1,14
 680 1553 680 1553 680 1547 c 2,15,-1
 680 1376 l 2,16,17
 680 1352 680 1352 685.5 1352 c 128,-1,18
 691 1352 691 1352 695 1355 c 128,-1,19
 699 1358 699 1358 703 1361 c 0,20,21
 715 1370 715 1370 728.5 1378.5 c 128,-1,22
 742 1387 742 1387 788 1418 c 128,-1,23
 834 1449 834 1449 861 1466 c 128,-1,24
 888 1483 888 1483 938.5 1509 c 128,-1,25
 989 1535 989 1535 1031.5 1549 c 0,26,27
 1140.78571429 1585 1140.78571429 1585 1247.39285714 1585 c 128,-1,28
 1354 1585 1354 1585 1435.5 1564.5 c 128,-1,29
 1517 1544 1517 1544 1574.5 1509.5 c 128,-1,30
 1632 1475 1632 1475 1674.5 1420.5 c 128,-1,31
 1717 1366 1717 1366 1743 1306.5 c 128,-1,32
 1769 1247 1769 1247 1784 1168.5 c 0,33,34
 1810 1032.43333333 1810 1032.43333333 1810 848 c 1,35,-1
 1790 152 l 2,36,37
 1790 124 1790 124 1794 119.5 c 128,-1,38
 1798 115 1798 115 1823 115 c 2,39,-1
 1946 115 l 2,40,41
 1986 115 1986 115 2000.5 101.5 c 128,-1,42
 2015 88 2015 88 2015 51.5 c 128,-1,43
 2015 15 2015 15 2004 -2.5 c 128,-1,44
 1993 -20 1993 -20 1954 -20 c 1,45,-1
 1647 -12 l 1,46,-1
 1290 -20 l 2,47,48
 1247 -20 1247 -20 1238 -8 c 128,-1,49
 1229 4 1229 4 1229 45 c 0,50,51
 1229 115 1229 115 1294 115 c 2,52,-1
 1470 115 l 2,53,54
 1495 115 1495 115 1495 538.5 c 128,-1,55
 1495 962 1495 962 1485 1036 c 128,-1,56
 1475 1110 1475 1110 1449 1178 c 128,-1,57
 1423 1246 1423 1246 1381 1291 c 0,58,59
 1289.53333333 1389 1289.53333333 1389 1114 1389 c 0,60,61
 977.833333333 1389 977.833333333 1389 797 1296 c 0,62,63
 711.879603399 1252.22379603 711.879603399 1252.22379603 699.9398017 1235.61189802 c 128,-1,64
 688 1219 688 1219 688 1192 c 2,65,-1
 684 180 l 2,66,67
 684 132 684 132 690 123.5 c 128,-1,68
 696 115 696 115 725 115 c 2,69,-1
 881 115 l 2,70,71
 920 115 920 115 929 100.5 c 128,-1,72
 938 86 938 86 938 58.5 c 128,-1,73
 938 31 938 31 937 22 c 128,-1,74
 936 13 936 13 931.5 1.5 c 0,75,76
 923.086956522 -20 923.086956522 -20 885 -20 c 2,77,-1
 541 -12 l 1,78,-1
 168 -20 l 2,79,80
 128.863636364 -20 128.863636364 -20 122.931818182 -5.5 c 0,81,82
 115 13.8888888889 115 13.8888888889 115 49 c 128,-1,83
 115 84 115 84 124.5 99.5 c 128,-1,84
 134 115 134 115 168 115 c 2,85,-1
 352 115 l 2,86,87
 385 115 385 115 385 682 c 128,-1,88
 385 1249 385 1249 380.5 1319.5 c 128,-1,89
 376 1390 376 1390 374 1399 c 128,-1,90
 372 1408 372 1408 369.5 1413 c 0,91,92
 365 1422 365 1422 354 1422 c 2,0,-1
EndSplineSet
Substitution2: "'smcp' Lowercase to Small Capitals in Latin lookup 13 subtable" n.sc
Substitution2: "'subs' Subscript in Latin lookup 10 subtable" n.sub
Substitution2: "'sups' Superscript in Latin lookup 9 subtable" n.sup
Substitution2: "'dnom' Denominators in Latin lookup 6 subtable" n.denom
Substitution2: "'numr' Numerators in Latin lookup 5 subtable" n.numer
AlternateSubs2: "'aalt' Access All Alternates in Latin lookup 1 subtable" n.sc n.sub n.sup n.denom n.numer
AlternateSubs2: "'aalt' Access All Alternates lookup 0 subtable" n.sc n.sub n.sup n.denom n.numer
EndChar

StartChar: o
Encoding: 111 111 82
Width: 1826
GlyphClass: 2
Flags: HW
LayerCount: 2
Fore
SplineSet
111 757.5 m 0,0,1
 111 932 111 932 173 1093.5 c 128,-1,2
 235 1255 235 1255 344.5 1374.5 c 0,3,4
 582.284518828 1634 582.284518828 1634 963 1634 c 0,5,6
 1301.12946429 1634 1301.12946429 1634 1510.5 1391 c 0,7,8
 1716 1152.49222798 1716 1152.49222798 1716 807 c 0,9,10
 1716 419.608695652 1716 419.608695652 1500.5 176 c 0,11,12
 1279.34615385 -74 1279.34615385 -74 897 -74 c 0,13,14
 562.188340807 -74 562.188340807 -74 336 168.5 c 0,15,16
 111 409.725961538 111 409.725961538 111 757.5 c 0,0,1
426 692 m 0,17,18
 426 388.954545455 426 388.954545455 598 193.5 c 0,19,20
 718.12 57 718.12 57 897 57 c 0,21,22
 1397 57 1397 57 1397 836 c 0,23,24
 1397 1194.64423077 1397 1194.64423077 1186 1395.5 c 0,25,26
 1073.07070707 1503 1073.07070707 1503 913 1503 c 0,27,28
 426 1503 426 1503 426 692 c 0,17,18
EndSplineSet
Substitution2: "'smcp' Lowercase to Small Capitals in Latin lookup 13 subtable" o.sc
Substitution2: "'subs' Subscript in Latin lookup 10 subtable" o.sub
Substitution2: "'sups' Superscript in Latin lookup 9 subtable" o.sup
Substitution2: "'dnom' Denominators in Latin lookup 6 subtable" o.denom
Substitution2: "'numr' Numerators in Latin lookup 5 subtable" o.numer
AlternateSubs2: "'aalt' Access All Alternates in Latin lookup 1 subtable" o.sc o.sub o.sup o.denom o.numer
AlternateSubs2: "'aalt' Access All Alternates lookup 0 subtable" o.sc o.sub o.sup o.denom o.numer
EndChar

StartChar: p
Encoding: 112 112 83
Width: 2097
GlyphClass: 2
Flags: HW
LayerCount: 2
Fore
SplineSet
123 1409 m 1,0,1
 86 1409 86 1409 86 1422.5 c 128,-1,2
 86 1436 86 1436 99.5 1490 c 128,-1,3
 113 1544 113 1544 123 1544 c 2,4,-1
 680 1569 l 1,5,6
 711 1569 711 1569 724 1555.5 c 128,-1,7
 737 1542 737 1542 737 1499 c 2,8,-1
 737 1417 l 2,9,10
 737 1376 737 1376 789 1415 c 0,11,12
 792 1417 792 1417 793.5 1418.5 c 0,13,14
 797 1422 797 1422 843.5 1454.5 c 128,-1,15
 890 1487 890 1487 1011.5 1534 c 128,-1,16
 1133 1581 1133 1581 1280.5 1581 c 128,-1,17
 1428 1581 1428 1581 1565.5 1520 c 128,-1,18
 1703 1459 1703 1459 1789.5 1351.5 c 0,19,20
 1966 1132.15028902 1966 1132.15028902 1966 795 c 0,21,22
 1966 460.118421053 1966 460.118421053 1736 216.5 c 0,23,24
 1485.34161491 -49 1485.34161491 -49 1098 -49 c 0,25,26
 955 -49 955 -49 802 2 c 1,27,-1
 750 20 l 1,28,29
 741 20 741 20 741 -33 c 2,30,-1
 754 -766 l 1,31,32
 762 -1028 762 -1028 774 -1028 c 2,33,-1
 1061 -1028 l 2,34,35
 1100 -1028 1100 -1028 1109 -1042.5 c 128,-1,36
 1118 -1057 1118 -1057 1118 -1094 c 0,37,38
 1118 -1163 1118 -1163 1061 -1163 c 1,39,-1
 618 -1155 l 1,40,-1
 209 -1163 l 2,41,42
 175 -1163 175 -1163 165.5 -1147.5 c 128,-1,43
 156 -1132 156 -1132 156 -1095.5 c 128,-1,44
 156 -1059 156 -1059 165.5 -1043.5 c 128,-1,45
 175 -1028 175 -1028 209 -1028 c 2,46,-1
 430 -1028 l 2,47,48
 442 -1028 442 -1028 442 -385 c 2,49,-1
 442 197 l 2,50,51
 442 358 442 358 441 495 c 128,-1,52
 440 632 440 632 439.5 727 c 128,-1,53
 439 822 439 822 436.5 913 c 128,-1,54
 434 1004 434 1004 432.5 1050.5 c 128,-1,55
 431 1097 431 1097 428 1160 c 128,-1,56
 425 1223 425 1223 424 1240 c 0,57,58
 413.811881188 1413.1980198 413.811881188 1413.1980198 402.405940594 1415.0990099 c 128,-1,59
 391 1417 391 1417 388.5 1417.5 c 128,-1,60
 386 1418 386 1418 375.5 1417.5 c 128,-1,61
 365 1417 365 1417 360 1417 c 2,62,-1
 123 1409 l 1,0,1
741 201 m 2,63,64
 741 168 741 168 800.5 132.5 c 0,65,66
 933.746478873 53 933.746478873 53 1063.37323944 53 c 128,-1,67
 1193 53 1193 53 1286 96 c 128,-1,68
 1379 139 1379 139 1444.5 210.5 c 128,-1,69
 1510 282 1510 282 1556.5 375 c 0,70,71
 1647 556 1647 556 1647 807 c 128,-1,72
 1647 1058 1647 1058 1499.5 1235.5 c 128,-1,73
 1352 1413 1352 1413 1126 1413 c 0,74,75
 906.333333333 1413 906.333333333 1413 781.5 1306 c 0,76,77
 741 1271.28571429 741 1271.28571429 741 1253 c 2,78,-1
 741 201 l 2,63,64
EndSplineSet
Substitution2: "'smcp' Lowercase to Small Capitals in Latin lookup 13 subtable" p.sc
Substitution2: "'subs' Subscript in Latin lookup 10 subtable" p.sub
Substitution2: "'sups' Superscript in Latin lookup 9 subtable" p.sup
Substitution2: "'dnom' Denominators in Latin lookup 6 subtable" p.denom
Substitution2: "'numr' Numerators in Latin lookup 5 subtable" p.numer
AlternateSubs2: "'aalt' Access All Alternates in Latin lookup 1 subtable" p.sc p.sub p.sup p.denom p.numer
AlternateSubs2: "'aalt' Access All Alternates lookup 0 subtable" p.sc p.sub p.sup p.denom p.numer
EndChar

StartChar: q
Encoding: 113 113 84
Width: 2007
GlyphClass: 2
Flags: HW
LayerCount: 2
Fore
SplineSet
1708 1536 m 1,0,1
 1688 927 1688 927 1688 315 c 2,2,-1
 1688 -360 l 2,3,4
 1688 -1016 1688 -1016 1704 -1016 c 2,5,-1
 1851 -1016 l 2,6,7
 1891 -1016 1891 -1016 1904 -1028 c 128,-1,8
 1917 -1040 1917 -1040 1917 -1088 c 128,-1,9
 1917 -1136 1917 -1136 1909.5 -1147.5 c 128,-1,10
 1902 -1159 1902 -1159 1864 -1159 c 2,11,-1
 1741 -1159 l 2,12,13
 1462.81818182 -1159 1462.81818182 -1159 1264.40909091 -1181.5 c 128,-1,14
 1066 -1204 1066 -1204 1051.5 -1204 c 0,15,16
 1024 -1204 1024 -1204 1024 -1134.5 c 128,-1,17
 1024 -1065 1024 -1065 1066.5 -1061.5 c 128,-1,18
 1109 -1058 1109 -1058 1150.5 -1054.5 c 128,-1,19
 1192 -1051 1192 -1051 1214 -1049.5 c 128,-1,20
 1236 -1048 1236 -1048 1262.5 -1044.5 c 128,-1,21
 1289 -1041 1289 -1041 1301 -1039 c 128,-1,22
 1313 -1037 1313 -1037 1327 -1031 c 128,-1,23
 1341 -1025 1341 -1025 1346 -1018.5 c 128,-1,24
 1351 -1012 1351 -1012 1356.5 -1000.5 c 0,25,26
 1364 -984.818181818 1364 -984.818181818 1364 -942 c 2,27,-1
 1372 0 l 2,28,29
 1372 34.4 1372 34.4 1341 22 c 0,30,31
 1328.5 17 1328.5 17 1311 12 c 0,32,33
 1047 -66 1047 -66 901 -66 c 128,-1,34
 755 -66 755 -66 656 -39.5 c 128,-1,35
 557 -13 557 -13 461 48.5 c 128,-1,36
 365 110 365 110 292.5 200.5 c 0,37,38
 131 402.096551724 131 402.096551724 131 737 c 0,39,40
 131 975 131 975 243 1166.5 c 128,-1,41
 355 1358 355 1358 552.5 1465.5 c 128,-1,42
 750 1573 750 1573 995 1573 c 0,43,44
 1151.46341463 1573 1151.46341463 1573 1250.73170732 1536 c 0,45,46
 1438.53658537 1466 1438.53658537 1466 1466.76829268 1466 c 128,-1,47
 1495 1466 1495 1466 1517 1488.5 c 128,-1,48
 1539 1511 1539 1511 1556.5 1538 c 0,49,50
 1603.16666667 1610 1603.16666667 1610 1655.58333333 1610 c 128,-1,51
 1708 1610 1708 1610 1708 1536 c 1,0,1
465 971.5 m 128,-1,53
 446 879 446 879 446 781 c 128,-1,54
 446 683 446 683 470 584.5 c 128,-1,55
 494 486 494 486 543.5 397 c 128,-1,56
 593 308 593 308 660.5 239.5 c 0,57,58
 807.817518248 90 807.817518248 90 1024 90 c 0,59,60
 1133 90 1133 90 1254.5 113.5 c 128,-1,61
 1376 137 1376 137 1376 168 c 2,62,-1
 1376 1192 l 2,63,64
 1376 1307 1376 1307 1267 1372.5 c 128,-1,65
 1158 1438 1158 1438 1009 1438 c 128,-1,66
 860 1438 860 1438 773 1400 c 128,-1,67
 686 1362 686 1362 626.5 1298 c 128,-1,68
 567 1234 567 1234 525.5 1149 c 128,-1,52
 484 1064 484 1064 465 971.5 c 128,-1,53
EndSplineSet
Substitution2: "'smcp' Lowercase to Small Capitals in Latin lookup 13 subtable" q.sc
Substitution2: "'subs' Subscript in Latin lookup 10 subtable" q.sub
Substitution2: "'sups' Superscript in Latin lookup 9 subtable" q.sup
Substitution2: "'dnom' Denominators in Latin lookup 6 subtable" q.denom
Substitution2: "'numr' Numerators in Latin lookup 5 subtable" q.numer
AlternateSubs2: "'aalt' Access All Alternates in Latin lookup 1 subtable" q.sc q.sub q.sup q.denom q.numer
AlternateSubs2: "'aalt' Access All Alternates lookup 0 subtable" q.sc q.sub q.sup q.denom q.numer
EndChar

StartChar: r
Encoding: 114 114 85
Width: 1347
GlyphClass: 2
Flags: HW
LayerCount: 2
Fore
SplineSet
115 1417 m 2,0,1
 86 1417 86 1417 86 1427 c 128,-1,2
 86 1437 86 1437 89 1451.5 c 128,-1,3
 92 1466 92 1466 96.5 1483 c 128,-1,4
 101 1500 101 1500 104.5 1515.5 c 0,5,6
 110.032258065 1540 110.032258065 1540 176 1540 c 1,7,8
 518 1552 518 1552 586.5 1552 c 128,-1,9
 655 1552 655 1552 661.5 1547.5 c 128,-1,10
 668 1543 668 1543 668 1516 c 2,11,-1
 664 1278 l 1,12,-1
 664 1250 l 1,13,-1
 665 1234 l 2,14,15
 665 1240 665 1240 680 1270 c 1,16,17
 748 1433 748 1433 859 1529.5 c 128,-1,18
 970 1626 970 1626 1066.5 1626 c 128,-1,19
 1163 1626 1163 1626 1241 1557 c 128,-1,20
 1319 1488 1319 1488 1319 1441.5 c 128,-1,21
 1319 1395 1319 1395 1262 1324 c 128,-1,22
 1205 1253 1205 1253 1163 1253 c 128,-1,23
 1121 1253 1121 1253 1085 1273.5 c 128,-1,24
 1049 1294 1049 1294 1022 1318.5 c 0,25,26
 949.816326531 1384 949.816326531 1384 909 1384 c 0,27,28
 688 1384 688 1384 688 561 c 0,29,30
 688 115 688 115 725 115 c 2,31,-1
 995 115 l 2,32,33
 1029 115 1029 115 1039 99.5 c 128,-1,34
 1049 84 1049 84 1049 57.5 c 128,-1,35
 1049 31 1049 31 1048 22 c 128,-1,36
 1047 13 1047 13 1042 1.5 c 0,37,38
 1032.65217391 -20 1032.65217391 -20 995 -20 c 2,39,-1
 549 -12 l 1,40,-1
 184 -20 l 2,41,42
 150 -20 150 -20 140.5 -4.5 c 128,-1,43
 131 11 131 11 131 39.5 c 128,-1,44
 131 68 131 68 132 77 c 128,-1,45
 133 86 133 86 137 96.5 c 0,46,47
 144.047619048 115 144.047619048 115 180 115 c 2,48,-1
 360 115 l 2,49,50
 393 115 393 115 393 770 c 128,-1,51
 393 1425 393 1425 360 1425 c 1,52,-1
 115 1417 l 2,0,1
EndSplineSet
Substitution2: "'smcp' Lowercase to Small Capitals in Latin lookup 13 subtable" r.sc
Substitution2: "'subs' Subscript in Latin lookup 10 subtable" r.sub
Substitution2: "'sups' Superscript in Latin lookup 9 subtable" r.sup
Substitution2: "'dnom' Denominators in Latin lookup 6 subtable" r.denom
Substitution2: "'numr' Numerators in Latin lookup 5 subtable" r.numer
AlternateSubs2: "'aalt' Access All Alternates in Latin lookup 1 subtable" r.sc r.sub r.sup r.denom r.numer
AlternateSubs2: "'aalt' Access All Alternates lookup 0 subtable" r.sc r.sub r.sup r.denom r.numer
EndChar

StartChar: s
Encoding: 115 115 86
Width: 1380
GlyphClass: 2
Flags: HW
LayerCount: 2
Fore
SplineSet
210.5 73.5 m 0,0,1
 131 136 131 136 131 198 c 128,-1,2
 131 260 131 260 184.5 318.5 c 128,-1,3
 238 377 238 377 258.5 377 c 128,-1,4
 279 377 279 377 290.5 360 c 128,-1,5
 302 343 302 343 319 310.5 c 128,-1,6
 336 278 336 278 382 221 c 128,-1,7
 428 164 428 164 515 110.5 c 128,-1,8
 602 57 602 57 718.5 57 c 128,-1,9
 835 57 835 57 909 121.5 c 128,-1,10
 983 186 983 186 983 311 c 0,11,12
 983 494.152173913 983 494.152173913 739 613.5 c 0,13,14
 693 636 693 636 567.5 691 c 128,-1,15
 442 746 442 746 364 795 c 0,16,17
 143 936.257731959 143 936.257731959 143 1147 c 0,18,19
 143 1283 143 1283 232.5 1394 c 128,-1,20
 322 1505 322 1505 459 1563.5 c 128,-1,21
 596 1622 596 1622 715.5 1622 c 128,-1,22
 835 1622 835 1622 911 1602.5 c 128,-1,23
 987 1583 987 1583 1036 1551.5 c 128,-1,24
 1085 1520 1085 1520 1119.5 1480.5 c 0,25,26
 1184 1406.65217391 1184 1406.65217391 1184 1327 c 0,27,28
 1184 1294 1184 1294 1116.5 1269.5 c 128,-1,29
 1049 1245 1049 1245 1014 1245 c 128,-1,30
 979 1245 979 1245 964 1259.5 c 128,-1,31
 949 1274 949 1274 938.5 1297.5 c 128,-1,32
 928 1321 928 1321 917 1349.5 c 128,-1,33
 906 1378 906 1378 889 1406.5 c 128,-1,34
 872 1435 872 1435 848.5 1458.5 c 0,35,36
 796 1511 796 1511 723.5 1511 c 128,-1,37
 651 1511 651 1511 612 1502.5 c 128,-1,38
 573 1494 573 1494 535 1473.5 c 128,-1,39
 497 1453 497 1453 469 1422.5 c 0,40,41
 406 1353.875 406 1353.875 406 1237 c 0,42,43
 406 1124.12 406 1124.12 493 1058 c 0,44,45
 556.461538462 1009.76923077 556.461538462 1009.76923077 607.230769231 984.384615385 c 0,46,47
 658.615384615 958.692307692 658.615384615 958.692307692 686.307692308 944.846153846 c 128,-1,48
 714 931 714 931 721 928 c 0,49,50
 866.662921348 865.573033708 866.662921348 865.573033708 1002 784 c 1,51,52
 1249 631.621890547 1249 631.621890547 1249 434 c 0,53,54
 1249 286 1249 286 1165 171 c 0,55,56
 995.539130435 -61 995.539130435 -61 659 -61 c 0,57,58
 381.584 -61 381.584 -61 210.5 73.5 c 0,0,1
EndSplineSet
Substitution2: "'hist' Historical Forms in Latin lookup 15 subtable" longs
Substitution2: "'smcp' Lowercase to Small Capitals in Latin lookup 13 subtable" s.sc
Substitution2: "'subs' Subscript in Latin lookup 10 subtable" s.sub
Substitution2: "'sups' Superscript in Latin lookup 9 subtable" s.sup
Substitution2: "'dnom' Denominators in Latin lookup 6 subtable" s.denom
Substitution2: "'numr' Numerators in Latin lookup 5 subtable" s.numer
AlternateSubs2: "'aalt' Access All Alternates in Latin lookup 1 subtable" longs s.sc s.sub s.sup s.denom s.numer
AlternateSubs2: "'aalt' Access All Alternates lookup 0 subtable" longs s.sc s.sub s.sup s.denom s.numer
EndChar

StartChar: t
Encoding: 116 116 87
Width: 1183
GlyphClass: 2
Flags: HW
LayerCount: 2
Fore
SplineSet
307 1130 m 1,0,1
 307 1368 307 1368 262 1368 c 2,2,-1
 160 1368 l 2,3,4
 127 1368 127 1368 127 1409 c 0,5,6
 127 1430 127 1430 147 1450 c 1,7,-1
 520 1970 l 1,8,9
 544 2007 544 2007 573 2007 c 0,10,11
 618 2007 618 2007 618 1958 c 1,12,-1
 594 1565 l 1,13,14
 594 1543 594 1543 598 1539.5 c 128,-1,15
 602 1536 602 1536 627 1536 c 2,16,-1
 1049 1536 l 2,17,18
 1077 1536 1077 1536 1077 1511 c 0,19,20
 1077 1506 1077 1506 1065 1454.5 c 128,-1,21
 1053 1403 1053 1403 1039.5 1387.5 c 128,-1,22
 1026 1372 1026 1372 999 1372 c 2,23,-1
 610 1372 l 2,24,25
 594 1372 594 1372 594 1196 c 2,26,-1
 594 410 l 2,27,28
 594 259.631578947 594 259.631578947 625 227.815789474 c 0,29,30
 683.282051282 168 683.282051282 168 765.641025641 168 c 128,-1,31
 848 168 848 168 922.5 184 c 128,-1,32
 997 200 997 200 1048.5 216.5 c 128,-1,33
 1100 233 1100 233 1117.5 233 c 128,-1,34
 1135 233 1135 233 1135 194.5 c 128,-1,35
 1135 156 1135 156 1131.5 149.5 c 128,-1,36
 1128 143 1128 143 1084 110.5 c 128,-1,37
 1040 78 1040 78 872.5 14.5 c 128,-1,38
 705 -49 705 -49 613 -49 c 128,-1,39
 521 -49 521 -49 458.5 -22 c 128,-1,40
 396 5 396 5 362.5 49.5 c 0,41,42
 299 133.850746269 299 133.850746269 299 242 c 2,43,-1
 307 1130 l 1,0,1
EndSplineSet
Substitution2: "'smcp' Lowercase to Small Capitals in Latin lookup 13 subtable" t.sc
Substitution2: "'subs' Subscript in Latin lookup 10 subtable" t.sub
Substitution2: "'sups' Superscript in Latin lookup 9 subtable" t.sup
Substitution2: "'dnom' Denominators in Latin lookup 6 subtable" t.denom
Substitution2: "'numr' Numerators in Latin lookup 5 subtable" t.numer
AlternateSubs2: "'aalt' Access All Alternates in Latin lookup 1 subtable" t.sc t.sub t.sup t.denom t.numer
AlternateSubs2: "'aalt' Access All Alternates lookup 0 subtable" t.sc t.sub t.sup t.denom t.numer
EndChar

StartChar: u
Encoding: 117 117 88
Width: 2088
GlyphClass: 2
Flags: HW
LayerCount: 2
Fore
SplineSet
279 1446 m 2,0,-1
 78 1442 l 2,1,2
 45 1442 45 1442 45 1462 c 0,3,4
 45 1558.53333333 45 1558.53333333 93.5 1565 c 0,5,6
 101 1566 101 1566 104.5 1566.5 c 0,7,8
 122 1569 122 1569 308.5 1577 c 128,-1,9
 495 1585 495 1585 557 1585 c 128,-1,10
 619 1585 619 1585 623 1577.5 c 128,-1,11
 627 1570 627 1570 627 1548 c 2,12,-1
 627 434 l 2,13,14
 627 172 627 172 1069 172 c 0,15,16
 1183 172 1183 172 1306.5 188.5 c 128,-1,17
 1430 205 1430 205 1430 225 c 2,18,-1
 1430 709 l 2,19,20
 1430 1458 1430 1458 1397 1458 c 1,21,-1
 1192 1450 l 1,22,23
 1159 1450 1159 1450 1159 1462 c 0,24,25
 1159 1550.82608696 1159 1550.82608696 1176 1561.91304348 c 128,-1,26
 1193 1573 1193 1573 1221 1573 c 1,27,-1
 1696 1593 l 1,28,29
 1737 1593 1737 1593 1737 1573 c 2,30,-1
 1737 1556 l 1,31,32
 1733 578 1733 578 1733 398.5 c 128,-1,33
 1733 219 1733 219 1738.5 172 c 128,-1,34
 1744 125 1744 125 1757 109.5 c 128,-1,35
 1770 94 1770 94 1798 94 c 1,36,-1
 1978 119 l 1,37,38
 2003 119 2003 119 2003 69 c 128,-1,39
 2003 19 2003 19 1996 8.5 c 128,-1,40
 1989 -2 1989 -2 1726.5 -40 c 128,-1,41
 1464 -78 1464 -78 1456 -78 c 128,-1,42
 1448 -78 1448 -78 1443 26.5 c 128,-1,43
 1438 131 1438 131 1435.5 131 c 128,-1,44
 1433 131 1433 131 1392.5 111.5 c 128,-1,45
 1352 92 1352 92 1284.5 64.5 c 128,-1,46
 1217 37 1217 37 1136 9.5 c 0,47,48
 820.555628315 -97.5953113745 820.555628315 -97.5953113745 602.5 -35.5 c 0,49,50
 315 46.3708609272 315 46.3708609272 315 500 c 2,51,-1
 315 1143 l 2,52,53
 315 1446 315 1446 279 1446 c 2,0,-1
EndSplineSet
Substitution2: "'smcp' Lowercase to Small Capitals in Latin lookup 13 subtable" u.sc
Substitution2: "'subs' Subscript in Latin lookup 10 subtable" u.sub
Substitution2: "'sups' Superscript in Latin lookup 9 subtable" u.sup
Substitution2: "'dnom' Denominators in Latin lookup 6 subtable" u.denom
Substitution2: "'numr' Numerators in Latin lookup 5 subtable" u.numer
AlternateSubs2: "'aalt' Access All Alternates in Latin lookup 1 subtable" u.sc u.sub u.sup u.denom u.numer
AlternateSubs2: "'aalt' Access All Alternates lookup 0 subtable" u.sc u.sub u.sup u.denom u.numer
EndChar

StartChar: v
Encoding: 118 118 89
Width: 1888
GlyphClass: 2
Flags: HW
LayerCount: 2
Fore
SplineSet
238 1441 m 2,0,-1
 217 1442 l 1,1,-1
 143 1442 l 2,2,3
 109 1442 109 1442 99.5 1457 c 128,-1,4
 90 1472 90 1472 90 1507 c 0,5,6
 90 1577 90 1577 143 1577 c 1,7,-1
 430 1569 l 1,8,-1
 799 1577 l 2,9,10
 838.52173913 1577 838.52173913 1577 842.5 1546.5 c 0,11,12
 844 1535 844 1535 844 1503.5 c 0,13,14
 844 1442 844 1442 803 1442 c 2,15,-1
 659 1442 l 2,16,17
 598 1442 598 1442 598 1421 c 1,18,19
 607 1374 607 1374 756 948 c 128,-1,20
 905 522 905 522 957 408.5 c 128,-1,21
 1009 295 1009 295 1018.5 295 c 128,-1,22
 1028 295 1028 295 1044 340 c 1,23,24
 1430 1258 1430 1258 1430 1389 c 0,25,26
 1430 1442 1430 1442 1401 1442 c 2,27,-1
 1282 1442 l 2,28,29
 1234.11111111 1442 1234.11111111 1442 1230 1479 c 0,30,31
 1229 1488 1229 1488 1229 1507.5 c 128,-1,32
 1229 1527 1229 1527 1230 1536 c 128,-1,33
 1231 1545 1231 1545 1236 1556.5 c 0,34,35
 1244.91304348 1577 1244.91304348 1577 1286 1577 c 1,36,-1
 1532 1569 l 1,37,-1
 1753 1577 l 1,38,39
 1782 1577 1782 1577 1790 1561 c 128,-1,40
 1798 1545 1798 1545 1798 1493.5 c 128,-1,41
 1798 1442 1798 1442 1749 1442 c 2,42,-1
 1671 1442 l 2,43,44
 1650.8 1442 1650.8 1442 1645.4 1433 c 128,-1,45
 1640 1424 1640 1424 1634.5 1415 c 128,-1,46
 1629 1406 1629 1406 1605.5 1363.5 c 128,-1,47
 1582 1321 1582 1321 1393 864 c 128,-1,48
 1204 407 1204 407 1142.5 277.5 c 128,-1,49
 1081 148 1081 148 1054.5 112 c 128,-1,50
 1028 76 1028 76 987.5 28.5 c 128,-1,51
 947 -19 947 -19 905 -82 c 1,52,53
 879 -115 879 -115 855.5 -115 c 128,-1,54
 832 -115 832 -115 814 -95 c 128,-1,55
 796 -75 796 -75 781 -38 c 128,-1,56
 766 -1 766 -1 755.5 31 c 128,-1,57
 745 63 745 63 733 106.5 c 128,-1,58
 721 150 721 150 700 215 c 0,59,60
 581.454396056 581.926869351 581.454396056 581.926869351 424.227198028 988.463434675 c 128,-1,61
 267 1395 267 1395 263.5 1405 c 128,-1,62
 260 1415 260 1415 258.5 1418 c 128,-1,63
 257 1421 257 1421 254.5 1427 c 128,-1,64
 252 1433 252 1433 250 1434 c 128,-1,65
 248 1435 248 1435 245 1438 c 128,-1,66
 242 1441 242 1441 238 1441 c 2,0,-1
EndSplineSet
Substitution2: "'smcp' Lowercase to Small Capitals in Latin lookup 13 subtable" v.sc
Substitution2: "'subs' Subscript in Latin lookup 10 subtable" v.sub
Substitution2: "'sups' Superscript in Latin lookup 9 subtable" v.sup
Substitution2: "'dnom' Denominators in Latin lookup 6 subtable" v.denom
Substitution2: "'numr' Numerators in Latin lookup 5 subtable" v.numer
AlternateSubs2: "'aalt' Access All Alternates in Latin lookup 1 subtable" v.sc v.sub v.sup v.denom v.numer
AlternateSubs2: "'aalt' Access All Alternates lookup 0 subtable" v.sc v.sub v.sup v.denom v.numer
EndChar

